<?xml version="1.0" standalone="no"?>
<!DOCTYPE svg PUBLIC "-//W3C//DTD SVG 1.1//EN" "http://www.w3.org/Graphics/SVG/1.1/DTD/svg11.dtd" >
<svg xmlns="http://www.w3.org/2000/svg" xmlns:xlink="http://www.w3.org/1999/xlink" version="1.1">
<metadata>
Created by FontForge 20170731 at Tue Jun  5 19:56:04 2018
 By Aleksey,,,
Noel Leu
</metadata>
<defs>
<font id="GTSuperText-Regular" horiz-adv-x="580" >
  <font-face 
    font-family="GT Super Text"
    font-weight="400"
    font-stretch="normal"
    units-per-em="1000"
    panose-1="0 0 5 0 0 0 0 0 0 0"
    ascent="763"
    descent="-237"
    x-height="494"
    cap-height="700"
    bbox="-365 -237 1240 920"
    underline-thickness="50"
    underline-position="-200"
    unicode-range="U+000D-FB02"
  />
<missing-glyph horiz-adv-x="662" 
d="M460 479q182 -89 182 -256q0 -132 -93 -215.5t-241 -83.5q-128 0 -208 58t-80 150q0 70 46 111t126 41q89 0 152.5 -50t63.5 -120q0 -45 -27.5 -72.5t-72.5 -27.5q-43 0 -70.5 27.5t-27.5 69.5q0 38 28 64.5t68 26.5q22 0 40 -6q-39 52 -114 52q-51 0 -81 -31.5
t-30 -86.5q0 -77 58 -127t147 -50q82 0 132.5 41t50.5 106q0 93 -129 156l-152 74q-153 75 -153 211q0 99 75.5 161t196.5 62q68 0 142.5 -17.5t121.5 -44.5l-72 -194h-5q-22 93 -93 156t-154 63q-43 0 -67 -18t-24 -49q0 -28 23.5 -52t77.5 -50z" />
    <glyph glyph-name="fi" unicode="fi" horiz-adv-x="639" 
d="M28 0v29l25 3q32 3 44 19t12 48v343h-81v25l81 27v50q0 101 64.5 161.5t176.5 60.5q92 0 143.5 -35t51.5 -78q0 -25 -16 -39.5t-40 -14.5q-26 0 -41.5 12t-32.5 45q-20 35 -43 51t-65 16q-57 0 -88.5 -38t-31.5 -90q0 -57 22 -101h82v-52h-81v-342q0 -33 13 -48.5
t44 -19.5l24 -3v-29h-263zM353 0v29l25 3q32 3 44 19t12 48v277q0 28 -12.5 38.5t-42.5 8.5l-29 -1v29l154 43h31v-394q0 -33 13 -48.5t44 -19.5l24 -3v-29h-263z" />
    <glyph glyph-name="fl" unicode="fl" horiz-adv-x="631" 
d="M583 32l25 -3v-29h-263v29l24 3q32 3 44 19t12 48v566q-40 49 -111 49q-66 0 -97 -32.5t-31 -87.5q0 -61 23 -100h120v-52h-119v-342q0 -33 13 -48.5t44 -19.5l24 -3v-29h-263v29l25 3q32 3 44 19t12 48v343h-81v25l81 27v41q0 102 57 166.5t178 64.5q104 0 183 -34v-632
q0 -33 12.5 -48.5t43.5 -19.5z" />
    <glyph glyph-name="f_f" unicode="ff" horiz-adv-x="686" 
d="M615 766q67 0 119 -23v-124h-38q-19 90 -102 90q-45 0 -68.5 -30.5t-23.5 -86.5q0 -54 24 -98h130v-52h-129v-342q0 -41 21 -54t82 -17v-29h-285v29q47 4 64 17.5t17 52.5v343h-81v25l81 27v68q0 48 12 85q-45 63 -129 63q-58 0 -90 -34.5t-32 -91.5q0 -49 23 -90h98v-52
h-98v-342q0 -33 13 -48.5t44 -19.5l24 -3v-29h-263v29l25 3q32 3 44 19t12 48v343h-81v25l81 27v50q0 101 58.5 161.5t162.5 60.5q86 0 156 -43q48 43 129 43z" />
    <glyph glyph-name="f_f_i" unicode="ffi" horiz-adv-x="956" 
d="M623 724q-57 0 -88 -38t-31 -90q0 -57 22 -102h82v-51h-81v-342q0 -34 12.5 -49.5t44.5 -18.5l24 -3v-29h-263v29l24 3q32 3 44.5 19t12.5 48v343h-81v24l81 27v50q0 53 18 95q-45 71 -135 71q-58 0 -90 -34.5t-32 -91.5q0 -49 23 -90h98v-52h-98v-342q0 -33 13 -48.5
t44 -19.5l24 -3v-29h-263v29l25 3q32 3 44 19t12 48v343h-81v25l81 27v50q0 101 58.5 161.5t162.5 60.5q100 0 170 -51q65 52 166 52q93 0 144.5 -35.5t51.5 -78.5q0 -25 -16 -39.5t-40 -14.5q-26 0 -42 12.5t-33 45.5q-20 35 -43 51t-65 16zM909 33l24 -3v-29h-263v29l24 3
q32 3 44.5 19t12.5 48v277q0 28 -13 38.5t-43 8.5l-29 -2v30l155 42h31v-393q0 -33 13 -49t44 -19z" />
    <glyph glyph-name="f_f_l" unicode="ffl" horiz-adv-x="947" 
d="M900 32l24 -3v-29h-263v29l25 3q32 3 44 19t12 48v566q-40 49 -111 49q-66 0 -97.5 -33t-31.5 -87q0 -59 24 -100h120v-52h-119v-342q0 -33 12.5 -48.5t44.5 -19.5l24 -3v-29h-263v29l24 3q32 3 44.5 19t12.5 48v343h-81v25l81 27v41q0 56 18 104q-45 71 -135 71
q-58 0 -90 -34.5t-32 -91.5q0 -49 23 -90h98v-52h-98v-342q0 -33 13 -48.5t44 -19.5l24 -3v-29h-263v29l25 3q32 3 44 19t12 48v343h-81v25l81 27v50q0 101 58.5 161.5t162.5 60.5q95 0 167 -51q61 51 164 51q105 0 182 -34v-632q0 -33 13 -48.5t44 -19.5z" />
    <glyph glyph-name="f_b.liga" unicode="fb" horiz-adv-x="915" 
d="M605 -12q-102 0 -180 56v621q-33 49 -111 49q-66 0 -97 -32.5t-31 -87.5q0 -61 23 -100h120v-52h-119v-345q1 -32 17 -47t58 -18l28 -3v-29h-285v29l25 3q32 3 44 19t12 48v343h-81v25l81 27v41q0 102 57 166.5t178 64.5q104 0 183 -34v-249q0 -50 -21 -107l6 -3
q18 61 64 97t108 36q87 0 139.5 -62.5t52.5 -162.5q0 -130 -76 -211.5t-195 -81.5zM629 30q66 0 103 58t37 157q0 87 -34 132t-96 45q-82 0 -112 -61v-280q13 -22 41.5 -36.5t60.5 -14.5z" />
    <glyph glyph-name="f_f_b.liga" unicode="ffb" horiz-adv-x="1232" 
d="M1000 506q88 0 140.5 -62.5t52.5 -162.5q0 -130 -76 -211.5t-195 -81.5q-102 0 -180 56v621q-33 49 -111 49q-66 0 -97.5 -33t-31.5 -87q0 -59 24 -100h120v-52h-119v-345q1 -32 16.5 -47t57.5 -18l29 -3v-29h-285v29l24 3q32 3 44.5 19t12.5 48v343h-81v25l81 27v41
q0 56 18 104q-45 71 -135 71q-58 0 -90 -34.5t-32 -91.5q0 -49 23 -90h98v-52h-98v-342q0 -33 13 -48.5t44 -19.5l24 -3v-29h-263v29l25 3q32 3 44 19t12 48v343h-81v25l81 27v50q0 101 58.5 161.5t162.5 60.5q99 0 169 -49q60 49 162 49q105 0 182 -34v-249q0 -53 -20 -107
l6 -3q18 61 64 97t107 36zM946 30q66 0 103 58t37 157q0 87 -34.5 132t-96.5 45q-81 0 -112 -61v-280q13 -22 42 -36.5t61 -14.5z" />
    <glyph glyph-name="f_f_h.liga" unicode="ffh" horiz-adv-x="1259" 
d="M1216 32l24 -3v-29h-245v29l6 1q32 6 44.5 19t12.5 40v229q0 57 -27 85.5t-73 28.5q-80 0 -115 -70v-263q0 -32 10 -47.5t42 -20.5l13 -2v-29h-247v29l25 3q32 3 44 19t12 48v566q-39 49 -111 49q-66 0 -97.5 -33t-31.5 -87q0 -59 24 -100h120v-52h-119v-342
q0 -33 12.5 -48.5t44.5 -19.5l24 -3v-29h-263v29l24 3q32 3 44.5 19t12.5 48v343h-81v25l81 27v41q0 56 18 104q-45 71 -135 71q-58 0 -90 -34.5t-32 -91.5q0 -49 23 -90h98v-52h-98v-342q0 -33 13 -48.5t44 -19.5l24 -3v-29h-263v29l25 3q32 3 44 19t12 48v343h-81v25
l81 27v50q0 101 58.5 161.5t162.5 60.5q99 0 169 -49q60 49 162 49q105 0 182 -34v-213q0 -85 -20 -144l6 -2q20 63 65.5 98t110.5 35q71 0 112.5 -42t41.5 -131v-233q0 -33 12.5 -48.5t44.5 -19.5z" />
    <glyph glyph-name="f_f_j.liga" unicode="ffj" horiz-adv-x="935" 
d="M369 32q32 3 44.5 19t12.5 48v343h-81v25l81 27v50q0 53 18 95q-45 71 -135 71q-58 0 -90 -34.5t-32 -91.5q0 -49 23 -90h98v-52h-98v-342q0 -33 13 -48.5t44 -19.5l24 -3v-29h-263v29l25 3q32 3 44 19t12 48v343h-81v25l81 27v50q0 101 58.5 161.5t162.5 60.5
q101 0 171 -51q63 51 167 51q92 0 143 -35t51 -78q0 -26 -15.5 -40t-40.5 -14q-26 0 -42 12t-33 45q-20 35 -44 51.5t-64 16.5q-58 0 -88.5 -37.5t-30.5 -91.5q0 -57 22 -101h82v-52h-81v-345q1 -32 16.5 -47t57.5 -18l29 -3v-29h-285v29zM666 456l155 43h31v-561
q0 -94 -43.5 -134t-105.5 -40q-34 0 -68.5 12t-55.5 30l18 33q37 -26 87 -26q31 0 49 20t18 55v493q0 28 -13 38.5t-43 8.5l-29 -1v29z" />
    <glyph glyph-name="f_f_k.liga" unicode="ffk" horiz-adv-x="1244" 
d="M843 99q0 -32 10 -47.5t42 -20.5l13 -2v-29h-247v29l25 3q32 3 44 19t12 48v566q-40 49 -111 49q-66 0 -97.5 -33t-31.5 -87q0 -59 24 -100h120v-52h-119v-342q0 -33 12.5 -48.5t44.5 -19.5l24 -3v-29h-263v29l24 3q32 3 44.5 19t12.5 48v343h-81v25l81 27v41
q0 56 18 104q-45 71 -135 71q-58 0 -90 -34.5t-32 -91.5q0 -49 23 -90h98v-52h-98v-342q0 -33 13 -48.5t44 -19.5l24 -3v-29h-263v29l25 3q32 3 44 19t12 48v343h-81v25l81 27v50q0 101 58.5 161.5t162.5 60.5q95 0 167 -51q61 51 164 51q105 0 182 -34v-633zM1131 104
q20 -23 30.5 -34t30 -23.5t42.5 -17.5v-29h-156l-220 259l140 116q46 38 46 60q0 29 -37 29h-10l1 30h206v-30q-52 -7 -122 -66l-118 -97l1 -5z" />
    <glyph glyph-name="f_h.liga" unicode="fh" horiz-adv-x="942" 
d="M28 0v29l25 3q32 3 44 19t12 48v343h-81v25l81 27v41q0 102 57 166.5t178 64.5q104 0 183 -34v-213q0 -81 -20 -144l5 -2q20 63 66 98t111 35q70 0 111.5 -42t41.5 -131v-233q0 -33 13 -48.5t44 -19.5l24 -3v-29h-245v29l6 1q33 6 45 19t12 40v229q0 57 -27 85.5
t-73 28.5q-81 0 -114 -70v-263q0 -32 10 -47.5t41 -20.5l14 -2v-29h-247v29l24 3q32 3 44 19t12 48v566q-37 49 -111 49q-66 0 -97 -32.5t-31 -87.5q0 -61 23 -100h120v-52h-119v-342q0 -33 13 -48.5t44 -19.5l24 -3v-29h-263z" />
    <glyph glyph-name="f_j.liga" unicode="fj" horiz-adv-x="618" 
d="M28 0v29l25 3q32 3 44 19t12 48v343h-81v25l81 27v50q0 101 65 161.5t177 60.5q92 0 143 -35t51 -78q0 -25 -15.5 -39.5t-39.5 -14.5q-26 0 -42 12t-33 45q-21 35 -45 51.5t-63 16.5q-59 0 -89.5 -37.5t-30.5 -91.5q0 -57 22 -101h82v-52h-81v-345q1 -32 17 -47t58 -18
l28 -3v-29h-285zM386 -236q-73 0 -124 42l19 33q35 -26 86 -26q31 0 49 20t18 55v493q0 28 -12.5 38.5t-42.5 8.5l-29 -1v29l154 43h31v-561q0 -94 -43 -134t-106 -40z" />
    <glyph glyph-name="f_k.liga" unicode="fk" horiz-adv-x="927" 
d="M527 99q0 -32 10 -47.5t41 -20.5l14 -2v-29h-247v29l24 3q32 3 44 19t12 48v566q-40 49 -111 49q-66 0 -97 -32.5t-31 -87.5q0 -61 23 -100h120v-52h-119v-342q0 -33 13 -48.5t44 -19.5l24 -3v-29h-263v29l25 3q32 3 44 19t12 48v343h-81v25l81 27v41q0 102 57 166.5
t178 64.5q104 0 183 -34v-633zM814 104q20 -23 30.5 -34t30 -23.5t42.5 -17.5v-29h-155l-220 259l139 116q46 38 46 60q0 29 -37 29h-10l1 30h206v-30q-52 -7 -122 -66l-118 -97l1 -5z" />
    <glyph glyph-name=".notdef" horiz-adv-x="662" 
d="M460 479q182 -89 182 -256q0 -132 -93 -215.5t-241 -83.5q-128 0 -208 58t-80 150q0 70 46 111t126 41q89 0 152.5 -50t63.5 -120q0 -45 -27.5 -72.5t-72.5 -27.5q-43 0 -70.5 27.5t-27.5 69.5q0 38 28 64.5t68 26.5q22 0 40 -6q-39 52 -114 52q-51 0 -81 -31.5
t-30 -86.5q0 -77 58 -127t147 -50q82 0 132.5 41t50.5 106q0 93 -129 156l-152 74q-153 75 -153 211q0 99 75.5 161t196.5 62q68 0 142.5 -17.5t121.5 -44.5l-72 -194h-5q-22 93 -93 156t-154 63q-43 0 -67 -18t-24 -49q0 -28 23.5 -52t77.5 -50z" />
    <glyph glyph-name=".null" horiz-adv-x="600" 
 />
    <glyph glyph-name="nonmarkingreturn" horiz-adv-x="333" 
 />
    <glyph glyph-name="CR" unicode="&#xd;" horiz-adv-x="600" 
 />
    <glyph glyph-name="space" unicode=" " horiz-adv-x="235" 
 />
    <glyph glyph-name="exclam" unicode="!" horiz-adv-x="301" 
d="M131 236l-51 430q-2 26 -2 27q0 32 21.5 51.5t51.5 19.5t51 -19.5t21 -51.5q0 -1 -2 -27l-51 -430h-39zM151 -8q-32 0 -55 23t-23 55t23 54.5t55 22.5q31 0 54 -22.5t23 -54.5t-22.5 -55t-54.5 -23z" />
    <glyph glyph-name="quotedbl" unicode="&#x22;" horiz-adv-x="418" 
d="M108 486l-36 112q-15 50 -15 67q0 31 17.5 49.5t46.5 18.5q28 0 45.5 -18.5t17.5 -49.5q0 -21 -15 -67l-36 -112h-25zM284 486l-35 112q-15 46 -15 67q0 31 17.5 49.5t45.5 18.5q29 0 46.5 -18.5t17.5 -49.5q0 -17 -15 -67l-36 -112h-26z" />
    <glyph glyph-name="numbersign" unicode="#" horiz-adv-x="576" 
d="M558 448h-110l-37 -200h113v-43h-121l-38 -205h-52l38 205h-172l-38 -205h-53l38 205h-108v43h116l37 200h-113v44h121l39 208h53l-39 -208h172l38 208h53l-39 -208h102v-44zM359 248l37 200h-172l-37 -200h172z" />
    <glyph glyph-name="dollar" unicode="$" horiz-adv-x="523" 
d="M482 188q0 -83 -53.5 -136.5t-143.5 -62.5v-89h-36v88q-117 2 -202 57v159h31q31 -151 171 -166v243l-67 31q-129 61 -129 181q0 78 53.5 129t142.5 59v69h36v-68q96 -2 170 -46v-145h-28q-33 124 -142 141v-235l68 -32q66 -31 97.5 -73.5t31.5 -103.5zM233 421l16 -7
v220q-51 -1 -82.5 -26.5t-31.5 -66.5t22.5 -68.5t75.5 -51.5zM285 37q52 2 81.5 29t29.5 73q0 43 -20 68t-76 51l-15 7v-228z" />
    <glyph glyph-name="percent" unicode="%" horiz-adv-x="777" 
d="M143 -40l429 722h59l-427 -722h-61zM201 316q-73 0 -117 47.5t-44 125.5t44 125.5t117 47.5q72 0 116 -47.5t44 -125.5t-43.5 -125.5t-116.5 -47.5zM201 353q35 0 53 38t18 98t-18 97.5t-53 37.5t-53 -37.5t-18 -97.5t18 -98t53 -38zM577 -20q-73 0 -117 47.5t-44 125.5
t44 125.5t117 47.5q72 0 116 -47.5t44 -125.5t-44 -125.5t-116 -47.5zM577 17q35 0 53 38t18 98t-18 98t-53 38t-53 -38t-18 -98t18 -98t53 -38z" />
    <glyph glyph-name="ampersand" unicode="&#x26;" horiz-adv-x="782" 
d="M750 102l22 -16q-20 -45 -56.5 -74t-86.5 -29q-70 0 -125 62l-68 79q-25 -64 -75.5 -102.5t-115.5 -38.5q-88 0 -149.5 51t-61.5 142q0 154 165 221l-20 23q-66 78 -66 139q0 71 51.5 114.5t144.5 43.5q89 0 149 -20v-174h-26q-41 162 -137 162q-42 0 -65 -24t-23 -59
q0 -45 35 -86l319 -369q42 -49 67 -65t57 -16q42 0 65 36zM295 67q80 0 124 76l-202 233q-85 -37 -85 -136q0 -75 47 -124t116 -49z" />
    <glyph glyph-name="quotesingle" unicode="'" horiz-adv-x="241" 
d="M108 486l-36 112q-15 50 -15 67q0 31 17.5 49.5t46.5 18.5q28 0 45.5 -18.5t17.5 -49.5q0 -21 -15 -67l-36 -112h-25z" />
    <glyph glyph-name="parenleft" unicode="(" horiz-adv-x="357" 
d="M332 -139q-51 22 -99.5 59t-93.5 91t-72 130t-27 163q0 86 27.5 162.5t72 130t93 91t99.5 59.5l15 -26q-99 -70 -149 -179t-50 -238t50 -238t149 -179z" />
    <glyph glyph-name="parenright" unicode=")" horiz-adv-x="357" 
d="M25 -139l-15 26q99 70 149 179t50 238t-50 238t-149 179l15 26q51 -22 99.5 -59.5t93 -91t72 -130t27.5 -162.5q0 -87 -27 -163t-72 -130t-93.5 -91t-99.5 -59z" />
    <glyph glyph-name="asterisk" unicode="*" horiz-adv-x="388" 
d="M329 629q11 -32 -27 -46q-15 -6 -39 -4l-58 3l48 -32q19 -12 31 -27q11 -13 9 -28t-16 -25q-26 -20 -51 11q-11 14 -17 37l-15 57l-15 -57q-7 -26 -16 -37q-26 -30 -52 -11q-26 21 -6 53q7 12 30 27l49 32l-59 -3q-23 -2 -39 4q-36 13 -27 46q5 16 18.5 21.5t30.5 0.5
q14 -4 34 -20l46 -37l-21 55q-9 18 -9 39q0 18 9.5 28.5t26.5 10.5q33 0 36 -39q1 -12 -8 -39l-22 -56l47 38q18 16 33 20q17 5 31 -1t18 -21z" />
    <glyph glyph-name="plus" unicode="+" 
d="M490 328v-43h-178v-178h-43v178h-179v43h179v178h43v-178h178z" />
    <glyph glyph-name="comma" unicode="," horiz-adv-x="299" 
d="M92 -159l-6 25q47 11 66.5 37t19.5 54q0 23 -13 32.5t-39 16.5q-63 17 -63 71q0 31 21 50.5t54 19.5q43 0 71 -35t28 -92q0 -79 -41 -123.5t-98 -55.5z" />
    <glyph glyph-name="hyphen" unicode="-" horiz-adv-x="364" 
d="M326 342v-71h-288v71h288z" />
    <glyph glyph-name="period" unicode="." horiz-adv-x="269" 
d="M135 -8q-32 0 -55 23t-23 55t23 54.5t55 22.5q31 0 54 -22.5t23 -54.5t-22.5 -55t-54.5 -23z" />
    <glyph glyph-name="slash" unicode="/" horiz-adv-x="296" 
d="M58 -67h-48l226 804h50z" />
    <glyph glyph-name="zero" unicode="0" horiz-adv-x="609" 
d="M305 -12q-115 0 -186 80t-71 199q0 118 71 198.5t186 80.5q114 0 185 -80.5t71 -198.5q0 -119 -70.5 -199t-185.5 -80zM305 34q34 0 59.5 14t40 35.5t23.5 53.5t12 62.5t3 67.5t-3 67.5t-12 62.5t-23.5 53.5t-40 35.5t-59.5 14t-60 -14t-40.5 -35.5t-23.5 -53.5
t-12 -62.5t-3 -67.5t3 -67.5t12 -62.5t23.5 -53.5t40.5 -35.5t60 -14z" />
    <glyph glyph-name="one" unicode="1" horiz-adv-x="447" 
d="M418 30v-30h-372v29q74 2 103.5 22.5t29.5 70.5v250q0 75 -62 75q-25 0 -68 -13l-10 29l213 83h33v-424q0 -51 30 -70.5t103 -21.5z" />
    <glyph glyph-name="two" unicode="2" horiz-adv-x="488" 
d="M37 0l-8 29l147 112q84 64 119.5 113t35.5 111q0 56 -29 85.5t-79 29.5q-106 0 -150 -110l-32 11q20 81 75 123t138 42q85 0 138.5 -40.5t53.5 -111.5q0 -73 -50 -131t-142 -115l-65 -41v-7h275l-30 -100h-397z" />
    <glyph glyph-name="three" unicode="3" horiz-adv-x="490" 
d="M56 -21q20 -38 60 -57.5t87 -19.5q62 0 99.5 36t37.5 98q0 66 -39 103t-109 37h-59v56h56q62 0 98 36.5t36 98.5q0 60 -31.5 93.5t-88.5 33.5q-47 0 -83.5 -24.5t-52.5 -70.5l-31 15q17 61 72.5 96.5t126.5 35.5q95 0 149 -43.5t54 -115.5q0 -76 -50 -125.5t-126 -50.5
h-19v-9h27q86 -1 136 -44.5t50 -120.5q0 -83 -63 -136t-160 -53q-68 0 -125 29.5t-79 81.5z" />
    <glyph glyph-name="four" unicode="4" horiz-adv-x="533" 
d="M312 -140v204h-303v28l326 442h81v-408h102v-62h-100v-204h-106zM96 126h219v300h-5l-214 -296v-4z" />
    <glyph glyph-name="five" unicode="5" horiz-adv-x="502" 
d="M212 -152q-73 0 -125 32t-74 79l34 21q39 -77 133 -77q67 0 107 43t40 119q0 64 -31.5 108t-99.5 44q-64 0 -101 -39l-33 20l77 336h343l-30 -100h-279l-44 -188l4 -3q42 28 110 28q90 0 144 -57.5t54 -148.5q0 -97 -64 -157t-165 -60z" />
    <glyph glyph-name="six" unicode="6" horiz-adv-x="579" 
d="M340 418q86 0 140 -55.5t54 -144.5q0 -100 -66.5 -165t-169.5 -65q-117 0 -183 78.5t-66 217.5q0 175 99.5 286.5t257.5 111.5q89 0 130 -24l-17 -35q-42 16 -94 16q-121 0 -189 -83t-76 -239h8q50 101 172 101zM303 30q57 0 89.5 45t32.5 123q0 77 -34.5 119.5
t-97.5 42.5q-95 0 -134 -102q6 -228 144 -228z" />
    <glyph glyph-name="seven" unicode="7" horiz-adv-x="485" 
d="M122 -140h-82l353 574h-369l31 100h406l19 -27z" />
    <glyph glyph-name="eight" unicode="8" horiz-adv-x="544" 
d="M394 341q115 -64 115 -167q0 -82 -66 -134t-169 -52q-110 0 -175 46.5t-65 124.5q0 121 165 180l-29 15q-112 58 -112 161q0 73 59.5 120t154.5 47q92 0 151 -43t59 -112q0 -99 -139 -157zM156 547q0 -71 83 -118l75 -43q76 46 76 139q0 56 -31 87.5t-88 31.5
q-53 0 -84 -26t-31 -71zM274 27q59 0 93 33t34 89q0 82 -96 132l-76 41q-91 -50 -91 -153q0 -142 136 -142z" />
    <glyph glyph-name="nine" unicode="9" horiz-adv-x="579" 
d="M281 546q117 0 183 -79t66 -217q0 -176 -101.5 -289t-259.5 -113q-86 0 -126 25l16 35q42 -17 94 -17q124 0 190.5 83.5t74.5 242.5h-7q-49 -101 -170 -101q-88 0 -142 55.5t-54 144.5q0 101 66.5 165.5t169.5 64.5zM286 174q93 0 133 100q-4 230 -144 230
q-56 0 -88.5 -45t-32.5 -124q0 -77 34.5 -119t97.5 -42z" />
    <glyph glyph-name="colon" unicode=":" horiz-adv-x="269" 
d="M135 351q-32 0 -55 22.5t-23 54.5t23 55t55 23t54.5 -23t22.5 -55t-22.5 -54.5t-54.5 -22.5zM135 -8q-32 0 -55 23t-23 55t23 54.5t55 22.5q31 0 54 -22.5t23 -54.5t-22.5 -55t-54.5 -23z" />
    <glyph glyph-name="semicolon" unicode=";" horiz-adv-x="299" 
d="M146 351q-32 0 -55 22.5t-23 54.5t23 55t55 23t54.5 -23t22.5 -55t-22.5 -54.5t-54.5 -22.5zM92 -159l-6 25q47 11 66.5 37t19.5 54q0 23 -13 32.5t-39 16.5q-63 17 -63 71q0 31 21 50.5t54 19.5q43 0 71 -35t28 -92q0 -79 -41 -123.5t-98 -55.5z" />
    <glyph glyph-name="less" unicode="&#x3c;" 
d="M490 64l-400 192v42l400 192v-50l-340 -161v-4l340 -161v-50z" />
    <glyph glyph-name="equal" unicode="=" 
d="M90 355v43h400v-43h-400zM90 215v43h400v-43h-400z" />
    <glyph glyph-name="greater" unicode="&#x3e;" 
d="M90 64v50l340 161v4l-340 161v50l400 -192v-42z" />
    <glyph glyph-name="question" unicode="?" horiz-adv-x="511" 
d="M204 236v38q0 39 15.5 69.5t52.5 65.5q44 39 64.5 72t20.5 78q0 60 -33.5 96.5t-104.5 36.5q-61 0 -104.5 -36.5t-56.5 -115.5l-38 9q13 105 82 161t167 56q90 0 147 -49t57 -128q0 -65 -33 -109t-105 -98q-51 -35 -64.5 -58.5t-13.5 -66.5v-21h-53zM233 -8
q-32 0 -54.5 23t-22.5 55t22.5 54.5t54.5 22.5t54.5 -22.5t22.5 -54.5t-22.5 -55t-54.5 -23z" />
    <glyph glyph-name="at" unicode="@" horiz-adv-x="860" 
d="M446 -90q-120 0 -212 56t-139 146t-47 196q0 110 44.5 201t137 149.5t218.5 58.5q163 0 263.5 -100.5t100.5 -251.5q0 -115 -52.5 -191.5t-136.5 -76.5q-116 0 -126 79h-5q-10 -41 -42 -61t-73 -20q-46 0 -81.5 28t-35.5 76q0 122 181 146l53 7v28q0 49 -27 75.5
t-72 26.5q-81 0 -104 -80l-20 7q25 134 168 134q62 0 102 -39.5t40 -103.5v-204q0 -33 17 -49.5t43 -16.5q52 0 90 67t38 170q0 130 -88 220.5t-237 90.5q-161 0 -256 -109t-95 -261q0 -149 98.5 -253.5t265.5 -104.5q94 0 156 23t108 77l17 -13q-93 -127 -292 -127z
M415 151q56 0 79 60v113l-50 -8q-52 -9 -72.5 -32.5t-20.5 -59.5q0 -34 18.5 -53.5t45.5 -19.5z" />
    <glyph glyph-name="A" unicode="A" horiz-adv-x="740" 
d="M638 124q19 -49 41 -69.5t51 -24.5v-30h-287v31q62 2 78 21t-3 75l-45 126h-260l-44 -120q-19 -59 -4 -79.5t71 -22.5v-31h-227v30q41 4 61.5 25.5t41.5 77.5l204 550l101 39zM227 293h231l-53 147q-59 161 -59 194h-5q-1 -32 -61 -195z" />
    <glyph glyph-name="B" unicode="B" horiz-adv-x="688" 
d="M431 365q101 0 158.5 -49t57.5 -123q0 -83 -63 -138t-187 -55h-354v30q58 3 77.5 25.5t19.5 85.5v418q0 64 -19.5 86t-77.5 25v30h345q108 0 167 -46t59 -125q0 -65 -50.5 -110t-133.5 -48h-35v-6h36zM351 662h-100v-276h109q66 0 102.5 35.5t36.5 101.5q0 78 -37 108.5
t-111 30.5zM379 38q75 0 113 41t38 113q0 73 -42 114.5t-117 41.5h-120v-249q0 -30 14 -45.5t48 -15.5h66z" />
    <glyph glyph-name="C" unicode="C" horiz-adv-x="688" 
d="M380 -17q-147 0 -239.5 99.5t-92.5 257.5q0 173 98.5 275t264.5 102q135 0 215 -46v-201h-36q-42 184 -209 184q-106 0 -165.5 -69.5t-59.5 -193.5q0 -136 73 -217t195 -81q136 0 199 117l31 -14q-28 -101 -99.5 -157t-174.5 -56z" />
    <glyph glyph-name="D" unicode="D" horiz-adv-x="777" 
d="M43 0v30q58 3 77.5 25.5t19.5 85.5v418q0 64 -19.5 86t-77.5 25v30h299q183 0 282.5 -92.5t99.5 -257.5q0 -166 -96 -258t-280 -92h-305zM313 46h40q122 0 185 79t63 225q0 304 -269 304h-81v-546q0 -31 14 -46.5t48 -15.5z" />
    <glyph glyph-name="E" unicode="E" horiz-adv-x="681" 
d="M600 223h35l-23 -223h-569v30q58 3 77.5 25.5t19.5 85.5v418q0 64 -19.5 86t-77.5 25v30h555l19 -203h-35q-24 93 -70 128.5t-144 35.5h-117v-273h71q64 0 88 24.5t33 94.5h30v-280h-30q-10 72 -34 96.5t-87 24.5h-71v-248q0 -30 14 -45.5t48 -15.5h61q105 0 150.5 38.5
t75.5 145.5z" />
    <glyph glyph-name="F" unicode="F" horiz-adv-x="635" 
d="M598 700l18 -202h-35q-20 89 -68.5 126.5t-150.5 37.5h-111v-286h60q65 0 89.5 25.5t33.5 93.5h30v-280h-30q-9 71 -34 96t-89 25h-60v-195q0 -68 24 -88t102 -23v-30h-334v30q58 3 77.5 25.5t19.5 85.5v418q0 64 -19.5 86t-77.5 25v30h555z" />
    <glyph glyph-name="G" unicode="G" horiz-adv-x="766" 
d="M743 323v-29q-35 0 -49 -18t-14 -62v-149q-110 -82 -257 -82q-162 0 -268.5 104t-106.5 263q0 165 110 266t286 101q137 0 224 -40v-181h-33q-40 169 -217 169q-114 0 -179 -83t-65 -231q0 -144 66.5 -227.5t181.5 -83.5q50 0 92.5 18.5t59.5 47.5v107q-1 41 -28.5 59
t-91.5 20l-23 1v30h312z" />
    <glyph glyph-name="H" unicode="H" horiz-adv-x="840" 
d="M700 559v-418q0 -64 19.5 -85t77.5 -26v-30h-303v30q58 5 76.5 26t18.5 85v200h-338v-200q0 -65 19 -85.5t76 -25.5v-30h-303v30q59 5 78 26t19 85v418q0 64 -19.5 85t-77.5 26v30h303v-30q-58 -5 -76.5 -26t-18.5 -85v-173h338v173q0 65 -19 85.5t-76 25.5v30h303v-30
q-59 -5 -78 -26t-19 -85z" />
    <glyph glyph-name="I" unicode="I" horiz-adv-x="391" 
d="M251 559v-418q0 -63 20 -84.5t77 -26.5v-30h-305v30q59 5 78 26.5t19 84.5v418q0 63 -19.5 84.5t-77.5 26.5v30h305v-30q-61 -6 -79 -26t-18 -85z" />
    <glyph glyph-name="J" unicode="J" horiz-adv-x="355" 
d="M89 -170q-60 0 -101 32l14 34q27 -14 56 -14q40 0 59.5 28t19.5 67v582q0 63 -20 84.5t-77 26.5v30h306v-30q-61 -5 -79 -25.5t-18 -85.5v-551q0 -97 -45 -137.5t-115 -40.5z" />
    <glyph glyph-name="K" unicode="K" horiz-adv-x="783" 
d="M251 141q0 -63 20 -84.5t77 -26.5v-30h-305v30q59 5 78 26.5t19 84.5v418q0 63 -19.5 84.5t-77.5 26.5v30h305v-30q-61 -6 -79 -26t-18 -85v-418zM640 95q55 -63 133 -66v-29h-207l-298 353l229 224q44 43 44 64q0 15 -15.5 22t-56.5 7v30h263v-30q-51 -2 -86 -21
t-71 -55l-198 -198z" />
    <glyph glyph-name="L" unicode="L" horiz-adv-x="641" 
d="M579 242h31l-25 -242h-542v30q59 5 78 26.5t19 84.5v418q0 63 -19.5 84.5t-77.5 26.5v30h308v-30q-62 -6 -81 -25.5t-19 -82.5v-463q0 -30 14 -45.5t48 -15.5h62q83 0 125 43.5t79 160.5z" />
    <glyph glyph-name="M" unicode="M" horiz-adv-x="992" 
d="M449 -5l-197 478q-34 83 -46 134h-4q0 -63 -3 -131l-17 -333q-3 -70 14 -88.5t84 -24.5v-30h-251v29q63 7 80.5 26.5t21.5 88.5l26 434q3 51 -16.5 69.5t-75.5 23.5v29h215l174 -432q32 -82 37 -118h5q6 29 44 121l182 429h208v-29q-56 -5 -76.5 -24.5t-17.5 -68.5
l24 -442q3 -63 22 -81.5t81 -25.5v-29h-304v30q62 5 79 24t14 82l-19 341q-4 82 -3 122h-4q-1 -4 -43 -110l-207 -494h-27z" />
    <glyph glyph-name="N" unicode="N" horiz-adv-x="799" 
d="M643 -5l-409 525q-33 44 -47 80l-4 -1q7 -40 7 -101v-378q1 -51 20 -66.5t82 -23.5v-30h-249v30q59 5 78 26.5t19 84.5v493q-20 20 -37 25.5t-59 10.5v29h202l322 -419q47 -62 68 -113l6 2q-5 45 -5 115v281q0 62 -18.5 80t-82.5 25v30h248v-30q-61 -5 -78.5 -25.5
t-17.5 -85.5v-564h-45z" />
    <glyph glyph-name="O" unicode="O" horiz-adv-x="838" 
d="M419 -17q-163 0 -267 103t-104 264t104 264t267 103t267 -103t104 -264t-104 -264t-267 -103zM419 35q111 0 175.5 84t64.5 231t-64.5 231t-175.5 84t-175.5 -84t-64.5 -231t64.5 -231t175.5 -84z" />
    <glyph glyph-name="P" unicode="P" horiz-adv-x="620" 
d="M43 0v30q59 5 78 26.5t19 84.5v418q0 63 -19.5 84.5t-77.5 26.5v30h316q101 0 169 -46.5t68 -140.5q0 -97 -71.5 -147t-173.5 -50h-100v-175q0 -67 24 -87t102 -24v-30h-334zM251 355h82q71 0 108 40.5t37 118.5q0 149 -138 149h-89v-308z" />
    <glyph glyph-name="Q" unicode="Q" horiz-adv-x="838" 
d="M752 -210q-70 0 -134.5 15.5t-133 51t-124.5 72t-140 98.5q-172 127 -172 323q0 161 104 264t267 103t267 -103t104 -264q0 -163 -103 -264t-275 -103v-6q56 -8 96 -30q84 -47 154 -68.5t170 -21.5q30 0 73.5 7.5t59.5 19.5l13 -19q-84 -75 -226 -75zM419 35
q111 0 175.5 84t64.5 231t-64.5 231t-175.5 84t-175.5 -84t-64.5 -231t64.5 -231t175.5 -84z" />
    <glyph glyph-name="R" unicode="R" horiz-adv-x="731" 
d="M43 0v30q59 5 78 26.5t19 84.5v418q0 63 -19.5 84.5t-77.5 26.5v30h321q105 0 168.5 -40.5t63.5 -126.5q0 -82 -58 -127t-152 -47l-35 -1v-6l33 -1q67 -1 100.5 -29t72.5 -106l56 -111q36 -71 108 -76v-29h-178q-15 15 -51 91l-47 104q-18 39 -27.5 57t-27.5 42.5t-39 34
t-49 9.5h-51v-197q0 -63 20 -84.5t77 -26.5v-30h-305zM251 375h71q85 0 120 41.5t35 114.5q0 130 -149 130h-77v-286z" />
    <glyph glyph-name="S" unicode="S" horiz-adv-x="572" 
d="M278 -17q-132 0 -230 64v193h37q36 -206 212 -206q136 0 136 117q0 45 -23 71.5t-80 52.5l-132 60q-142 61 -142 183q0 89 65 144t185 55q109 0 199 -44v-178h-35q-39 172 -189 172q-64 0 -98 -27t-34 -76q0 -75 106 -119l133 -59q71 -32 106.5 -76t35.5 -112
q0 -95 -67.5 -155t-184.5 -60z" />
    <glyph glyph-name="T" unicode="T" horiz-adv-x="632" 
d="M585 720h28v-239h-34q-11 95 -39.5 134t-92.5 39h-75v-513q0 -67 24 -87t102 -24v-30h-363v30q79 4 102.5 24.5t23.5 86.5v513h-74q-66 0 -94.5 -39.5t-38.5 -133.5h-35v239h29q11 -20 49 -20h439q38 0 49 20z" />
    <glyph glyph-name="U" unicode="U" horiz-adv-x="762" 
d="M387 -17q-134 0 -207.5 73.5t-73.5 208.5v294q0 63 -19.5 84.5t-77.5 26.5v30h313v-30q-61 -5 -79 -25.5t-18 -85.5v-295q0 -103 49 -156.5t141 -53.5q183 0 183 218v287q0 63 -19.5 84.5t-77.5 26.5v30h252v-30q-60 -5 -78.5 -24.5t-18.5 -80.5v-300q0 -132 -71 -207
t-198 -75z" />
    <glyph glyph-name="V" unicode="V" horiz-adv-x="724" 
d="M344 -5l-259 614q-13 31 -31.5 45t-48.5 17v29h291v-30q-49 -2 -66.5 -11t-17.5 -35q0 -22 12 -51l132 -333q30 -78 34 -118h5q5 44 34 117l134 333q12 29 12 52q0 26 -17.5 35t-66.5 11v30h228v-29q-37 -3 -57.5 -22t-41.5 -71l-231 -583h-45z" />
    <glyph glyph-name="W" unicode="W" horiz-adv-x="1065" 
d="M326 -5l-218 590q-17 46 -39.5 65t-59.5 21v29h293v-30q-47 -4 -63 -13t-16 -36q0 -17 11 -50l120 -358q15 -48 18 -91h5q3 44 19 92l108 324l-23 64q-15 43 -30 54t-57 15v29h288v-30q-50 -4 -67.5 -13.5t-17.5 -34.5q0 -19 8 -42l122 -358q18 -54 21 -97h5q2 39 21 97
l118 348q9 30 9 47q0 29 -18.5 39t-71.5 14v30h245v-29q-40 -6 -65 -25t-41 -65l-199 -586h-50l-145 415q-15 44 -15 91h-6q-4 -46 -19 -92l-141 -414h-49z" />
    <glyph glyph-name="X" unicode="X" horiz-adv-x="726" 
d="M15 0v29q35 3 58.5 19t57.5 60l180 232l-195 273q-21 30 -41 42t-58 16v29h299v-29q-76 0 -76 -35q0 -11 13 -29l100 -141q24 -36 28 -61h5q3 19 35 63l92 119q26 34 26 50q0 18 -17 25.5t-56 7.5v30h235v-29q-38 -4 -63 -20t-63 -63l-163 -206l194 -273q30 -46 50 -61.5
t55 -18.5v-29h-288v29q40 2 56 9.5t16 24.5q0 16 -20 45l-102 144q-25 38 -28 61h-5q-3 -17 -35 -62l-113 -145q-21 -29 -21 -43q0 -18 16 -25t55 -9v-29h-227z" />
    <glyph glyph-name="Y" unicode="Y" horiz-adv-x="672" 
d="M453 700h214v-29q-26 -3 -44.5 -20t-42.5 -52l-183 -309v-149q0 -67 23.5 -87t102.5 -24v-30h-363v30q79 4 102.5 24.5t23.5 86.5v148l-175 288q-32 52 -53.5 70.5t-52.5 23.5v29h295v-30q-53 -2 -69.5 -9.5t-16.5 -29.5q0 -20 18 -48l111 -182q29 -46 33 -72h5
q3 23 30 69l110 185q16 32 16 48q0 35 -84 39v30z" />
    <glyph glyph-name="Z" unicode="Z" horiz-adv-x="652" 
d="M51 0l-18 36l418 592q15 21 31 27l-2 5q-20 -6 -37 -6h-158q-98 0 -135.5 -34t-63.5 -143h-35l21 223h516l17 -35l-414 -590q-14 -21 -34 -30l2 -5q15 6 38 6h153q105 0 152 38t75 141h36l-23 -225h-539z" />
    <glyph glyph-name="bracketleft" unicode="[" horiz-adv-x="282" 
d="M257 728q-49 0 -69.5 -14t-20.5 -44v-704q0 -30 20.5 -44t69.5 -14h15v-32h-196v884h196v-32h-15z" />
    <glyph glyph-name="backslash" unicode="\" horiz-adv-x="296" 
d="M238 -67l-228 804h50l226 -804h-48z" />
    <glyph glyph-name="bracketright" unicode="]" horiz-adv-x="282" 
d="M25 728h-15v32h196v-884h-196v32h15q49 0 69.5 14t20.5 44v704q0 30 -20.5 44t-69.5 14z" />
    <glyph glyph-name="asciicircum" unicode="^" horiz-adv-x="356" 
d="M16 460l152 245h19l153 -245h-51l-111 184l-111 -184h-51z" />
    <glyph glyph-name="underscore" unicode="_" horiz-adv-x="456" 
d="M456 -62h-456v45h456v-45z" />
    <glyph glyph-name="grave" unicode="`" horiz-adv-x="600" 
d="M197 582l-138 139v23h92l79 -162h-33z" />
    <glyph glyph-name="a" unicode="a" horiz-adv-x="531" 
d="M498 83l20 -13q-25 -80 -103 -80q-40 0 -64.5 23t-25.5 68h-7q-10 -39 -46.5 -66t-89.5 -27q-64 0 -101.5 33t-37.5 95q0 118 178 153l100 20v29q0 113 -108 113q-95 0 -128 -80l-30 10q14 63 61.5 104t131.5 41q82 0 128 -46.5t46 -139.5v-210q0 -50 38 -50q25 0 38 23z
M230 49q67 0 91 77v126l-51 -9q-118 -24 -118 -110q0 -39 20.5 -61.5t57.5 -22.5z" />
    <glyph glyph-name="b" unicode="b" horiz-adv-x="578" 
d="M347 506q87 0 139.5 -63t52.5 -162q0 -130 -76 -211.5t-195 -81.5q-101 0 -179 56v600q0 29 -9.5 40.5t-33.5 11.5q-16 0 -37 -3v27l151 40h30v-277q0 -50 -21 -107l7 -3q17 61 63 97t108 36zM292 30q67 0 103.5 58t36.5 157q0 87 -34 132t-96 45q-82 0 -112 -61v-280
q13 -22 41.5 -36.5t60.5 -14.5z" />
    <glyph glyph-name="c" unicode="c" horiz-adv-x="487" 
d="M266 -12q-102 0 -164.5 68t-62.5 180q0 114 66 192t181 78q83 0 150 -30v-142h-34q-30 114 -136 114q-66 0 -102 -43t-36 -120q0 -90 49 -144.5t130 -54.5q85 0 124 65l26 -12q-16 -66 -64.5 -108.5t-126.5 -42.5z" />
    <glyph glyph-name="d" unicode="d" horiz-adv-x="583" 
d="M560 29v-29h-169v37q0 42 13 81l-5 3q-44 -133 -168 -133q-88 0 -142.5 65.5t-54.5 168.5q0 127 73.5 205.5t185.5 78.5q55 0 90 -23v161q0 26 -10.5 37.5t-35.5 11.5q-23 0 -57 -7v27l175 47h30v-674q0 -29 16 -40.5t59 -16.5zM383 130v298q-27 36 -90 36
q-69 0 -110 -54t-41 -149q0 -88 36.5 -139t99.5 -51q72 0 105 59z" />
    <glyph glyph-name="e" unicode="e" horiz-adv-x="498" 
d="M301 86q92 0 130 64l27 -14q-16 -61 -66.5 -104.5t-128.5 -43.5q-104 0 -164 69t-60 181q0 118 60 193t164 75q93 0 144 -58.5t51 -159.5h-331q5 -95 50.5 -148.5t123.5 -53.5zM243 463q-53 0 -83 -36t-34 -101h213q0 137 -96 137z" />
    <glyph glyph-name="f" unicode="f" horiz-adv-x="369" 
d="M298 766q67 0 119 -23v-124h-38q-19 90 -102 90q-91 0 -91 -117q0 -56 23 -98h130v-52h-129v-342q0 -41 21 -54t82 -17v-29h-285v29q48 4 64.5 17.5t16.5 52.5v343h-81v25l81 27v68q0 95 49 149.5t140 54.5z" />
    <glyph glyph-name="g" unicode="g" horiz-adv-x="556" 
d="M486 438q-43 0 -92 23l-4 -6q79 -27 79 -120q0 -75 -57.5 -121t-148.5 -46q-39 0 -77 10q-53 -6 -53 -47q0 -42 73 -47l161 -9q157 -8 157 -124q0 -77 -68 -132.5t-207 -55.5q-100 0 -159 33.5t-59 84.5q0 77 104 104v6q-37 11 -57.5 37t-20.5 60q0 32 22 59.5t64 41.5v7
q-40 21 -63 57.5t-23 82.5q0 75 58 122.5t148 47.5q45 0 83 -12h178v-56h-38zM263 204q46 0 73 32.5t27 99.5t-27 100.5t-73 33.5t-73 -33.5t-27 -100.5t27 -99.5t73 -32.5zM346 -24l-169 8q-6 0 -9 1q-48 -24 -48 -74q0 -46 47 -72.5t131 -26.5q75 0 116 24t41 65
q0 72 -109 75z" />
    <glyph glyph-name="h" unicode="h" horiz-adv-x="622" 
d="M24 0v29q50 5 65.5 18t15.5 52v545q0 31 -9 41.5t-36 10.5q-14 0 -34 -3v27l151 40h29v-241q0 -84 -19 -144l5 -2q20 63 65.5 98t110.5 35q71 0 112.5 -42t41.5 -131v-233q0 -40 15.5 -52.5t65.5 -18.5v-29h-245v29q37 7 50 19.5t13 40.5v229q0 57 -27 85.5t-73 28.5
q-80 0 -115 -70v-263q0 -38 13 -51t52 -19v-29h-247z" />
    <glyph glyph-name="i" unicode="i" horiz-adv-x="318" 
d="M158 565q-31 0 -51.5 21t-20.5 51t20.5 50.5t51.5 20.5t51.5 -20.5t20.5 -50.5t-20.5 -51t-51.5 -21zM295 29v-29h-263v29q49 4 65 17.5t16 52.5v277q0 26 -11 37t-36 11q-8 0 -38 -2v29l154 43h32v-394q0 -40 16 -53t65 -18z" />
    <glyph glyph-name="j" unicode="j" horiz-adv-x="299" 
d="M154 565q-31 0 -51.5 21t-20.5 51t20.5 50.5t51.5 20.5t51.5 -20.5t20.5 -50.5t-20.5 -51t-51.5 -21zM69 -237q-54 0 -88 22l9 32q24 -10 49 -10q70 0 70 83v486q0 26 -10.5 37t-36.5 11q-6 0 -38 -2v29l154 43h32v-579q0 -81 -40 -116.5t-101 -35.5z" />
    <glyph glyph-name="k" unicode="k" horiz-adv-x="607" 
d="M24 0v29q51 6 66 18.5t15 51.5v545q0 30 -9 41t-34 11q-16 0 -36 -3v27l151 40h29v-661q0 -38 13 -51t52 -19v-29h-247zM441 0l-220 259l146 117q45 38 45 61q0 16 -12 21.5t-40 5.5v30h207v-30q-52 -7 -122 -66l-118 -97l1 -5l166 -192q28 -33 49.5 -50t53.5 -25v-29
h-156z" />
    <glyph glyph-name="l" unicode="l" horiz-adv-x="311" 
d="M287 29v-29h-263v29q50 5 65.5 18t15.5 52v545q0 29 -9 40.5t-32 11.5q-14 0 -38 -3v27l151 40h29v-660q0 -40 15.5 -52.5t65.5 -18.5z" />
    <glyph glyph-name="m" unicode="m" horiz-adv-x="902" 
d="M883 29v-29h-245v29q36 5 49.5 18t13.5 42v229q0 114 -91 114q-76 0 -101 -71v-262q0 -39 12.5 -52t51.5 -18v-29h-228v29q36 5 49 17.5t13 40.5v231q0 114 -89 114q-72 0 -102 -70v-274q0 -29 14 -41.5t50 -17.5v-29h-246v29q49 4 65 17.5t16 52.5v279q0 25 -11 35
t-38 10q-10 0 -38 -2v29l147 44h30v-56q0 -23 -8 -65l4 -1q19 62 62.5 98t102.5 36q112 0 137 -105h6q40 105 151 105q66 0 104 -41t38 -116v-249q0 -40 15.5 -53t65.5 -18z" />
    <glyph glyph-name="n" unicode="n" horiz-adv-x="631" 
d="M612 29v-29h-245v29q36 5 49.5 18t13.5 42v227q0 116 -100 116q-84 0 -115 -70v-263q0 -39 13 -52t52 -18v-29h-247v29q49 4 65 17.5t16 52.5v291q0 34 -45 34q-11 0 -41 -3v29l147 44h30v-56q0 -22 -9 -64l5 -2q21 64 66.5 99t110.5 35q71 0 112 -41.5t41 -131.5v-233
q0 -40 16 -53t65 -18z" />
    <glyph glyph-name="o" unicode="o" horiz-adv-x="578" 
d="M289 -12q-109 0 -179.5 73t-70.5 186q0 112 70.5 185.5t179.5 73.5t179.5 -73.5t70.5 -185.5q0 -113 -70.5 -186t-179.5 -73zM289 34q133 0 133 213t-133 213t-133 -213t133 -213z" />
    <glyph glyph-name="p" unicode="p" horiz-adv-x="591" 
d="M21 -225v29q50 5 65.5 18t15.5 52v504q0 24 -10.5 34.5t-34.5 10.5q-12 0 -42 -2v29l147 44h30v-57q0 -20 -9 -62l5 -1q20 61 65.5 96.5t105.5 35.5q88 0 140.5 -62.5t52.5 -166.5q0 -127 -70.5 -208t-179.5 -81q-56 0 -99 26v-139q0 -41 20.5 -53.5t82.5 -17.5v-29h-285
zM302 30q65 0 104 56.5t39 153.5q0 88 -33.5 135.5t-97.5 47.5q-78 0 -111 -59v-290q41 -44 99 -44z" />
    <glyph glyph-name="q" unicode="q" horiz-adv-x="576" 
d="M280 -225v29q64 5 83.5 18t19.5 53v130q0 44 21 110l-6 4q-19 -62 -63 -96.5t-103 -34.5q-89 0 -143.5 63.5t-54.5 166.5q0 131 73.5 209.5t194.5 78.5q106 0 183 -51v-580q0 -40 15.5 -52.5t65.5 -18.5v-29h-286zM271 71q81 0 112 57v288q-11 20 -38 33.5t-59 13.5
q-68 0 -106 -55t-38 -153q0 -86 34 -135t95 -49z" />
    <glyph glyph-name="r" unicode="r" horiz-adv-x="403" 
d="M358 506q19 0 30 -4v-114h-19q-20 10 -44 10q-46 0 -77.5 -27.5t-31.5 -88.5v-182q0 -41 20.5 -53.5t82.5 -17.5v-29h-285v29q50 5 65.5 18t15.5 52v279q0 24 -10.5 34.5t-36.5 10.5q-10 0 -40 -2v29l147 44h30v-81q0 -63 -4 -109h7l9 58q11 71 51 107.5t90 36.5z" />
    <glyph glyph-name="s" unicode="s" horiz-adv-x="438" 
d="M207 -12q-100 0 -165 51v122h37q14 -62 53 -94t92 -32q42 0 67.5 20t25.5 55q0 29 -15 47t-49 29l-92 32q-116 38 -116 138q0 68 52 109t134 41q79 0 147 -32v-112h-36q-11 44 -44.5 72t-82.5 28q-39 0 -62.5 -18t-23.5 -47q0 -55 61 -77l106 -38q104 -38 104 -136
q0 -72 -53 -115t-140 -43z" />
    <glyph glyph-name="t" unicode="t" horiz-adv-x="363" 
d="M211 -12q-119 0 -119 130v324h-86v26q100 35 161 149h26v-123h134v-52h-134v-289q0 -49 22 -71.5t55 -22.5q32 0 66 25l18 -24q-64 -72 -143 -72z" />
    <glyph glyph-name="u" unicode="u" horiz-adv-x="598" 
d="M574 29v-29h-168v38q0 43 12 79l-6 2q-18 -61 -64.5 -96t-101.5 -35q-69 0 -111 41.5t-42 119.5v240q0 32 -16 40.5t-63 8.5v30l157 26h23v-322q0 -109 98 -109q34 0 64 19t42 50v257q0 32 -15.5 40t-63.5 8v31l157 26h23v-408q0 -29 16 -40.5t59 -16.5z" />
    <glyph glyph-name="v" unicode="v" horiz-adv-x="544" 
d="M259 -5l-194 421q-13 30 -24 38.5t-36 9.5v30h252v-30q-40 0 -58 -8t-18 -28q0 -15 9 -36l87 -200q15 -42 18 -84h5q3 34 19 68l101 215q9 21 9 37q0 20 -19.5 28t-62.5 8v30h192v-30q-19 0 -31.5 -11t-23.5 -37l-192 -421h-33z" />
    <glyph glyph-name="w" unicode="w" horiz-adv-x="839" 
d="M423 333q-4 -24 -20 -67l-112 -271h-36l-186 421q-13 30 -24.5 38.5t-39.5 9.5v30h233v-30q-29 0 -42 -8.5t-13 -27.5q0 -7 10 -37l82 -195q15 -34 16 -83h5q2 28 15 65l85 195l-19 43q-13 30 -24 38.5t-37 9.5v30h246v-30q-41 0 -55.5 -7.5t-14.5 -28.5q0 -14 9 -39
l81 -197q15 -35 15 -82h5q3 30 17 66l89 214q9 21 9 36q0 23 -15.5 30.5t-59.5 7.5v30h192v-30q-27 -1 -41.5 -12t-24.5 -39l-170 -418h-36l-118 271q-15 32 -16 67h-5z" />
    <glyph glyph-name="x" unicode="x" horiz-adv-x="559" 
d="M15 0v30q32 0 54.5 14.5t56.5 56.5l104 131l-123 172q-26 36 -44 48t-44 12v30h245v-30q-28 0 -39 -6.5t-11 -22.5q0 -13 17 -38l48 -66q16 -22 19 -40h5q2 16 21 40l48 63q19 24 19 41q0 29 -50 29v30h196v-30q-32 0 -54 -14t-56 -57l-101 -126l127 -177
q26 -35 45.5 -48t45.5 -13v-29h-250v29q30 0 41.5 6t11.5 22q0 13 -16 35l-52 72q-16 21 -19 38h-5q-3 -16 -21 -39l-49 -63q-18 -22 -18 -41q0 -30 50 -30v-29h-202z" />
    <glyph glyph-name="y" unicode="y" horiz-adv-x="548" 
d="M83 -237q-44 0 -77 15v113h25q34 -25 88 -25q85 0 127 71l12 23l-193 449q-15 36 -25.5 45.5t-33.5 9.5v30h253v-30q-78 0 -78 -46q0 -14 8 -33l94 -229q17 -41 17 -82l5 -1q4 27 18 65l93 238q9 23 9 37q0 51 -77 51v30h195v-30q-36 0 -59 -55l-205 -492
q-37 -88 -86 -121t-110 -33z" />
    <glyph glyph-name="z" unicode="z" horiz-adv-x="491" 
d="M42 0l-12 24l273 394q17 26 41 33l-2 5q-20 -5 -42 -5h-102q-56 0 -83 -28.5t-39 -102.5h-30v174h399l11 -24l-267 -393q-15 -24 -41 -34l1 -5q20 5 39 5h101q61 0 95.5 34.5t50.5 110.5h27l-16 -188h-404z" />
    <glyph glyph-name="braceleft" unicode="{" horiz-adv-x="320" 
d="M305 -94v-30q-96 2 -152 51t-56 132v146q0 59 -59 94v25q59 35 59 106v147q0 83 56 132t152 51v-30q-62 -7 -90 -43.5t-28 -112.5v-129q0 -35 -13.5 -59.5t-47.5 -48.5q34 -24 47.5 -48.5t13.5 -59.5v-167q0 -75 28 -111.5t90 -44.5z" />
    <glyph glyph-name="bar" unicode="|" horiz-adv-x="198" 
d="M122 760v-884h-46v884h46z" />
    <glyph glyph-name="braceright" unicode="}" horiz-adv-x="320" 
d="M14 -94q63 7 90.5 44t27.5 112v167q0 35 14 59.5t48 48.5q-34 24 -48 48.5t-14 59.5v129q0 77 -27.5 113t-90.5 43v30q97 -2 152.5 -51t55.5 -132v-147q0 -71 59 -106v-25q-59 -35 -59 -94v-146q0 -83 -55.5 -132t-152.5 -51v30z" />
    <glyph glyph-name="asciitilde" unicode="~" horiz-adv-x="448" 
d="M280 287q-35 0 -72.5 16t-62.5 16q-58 0 -87 -32l-20 11q39 90 130 90q36 0 73 -16t62 -16q56 0 87 32l20 -11q-37 -90 -130 -90z" />
    <glyph glyph-name="DEL" horiz-adv-x="600" 
 />
    <glyph glyph-name="uni00A0" unicode="&#xa0;" horiz-adv-x="235" 
 />
    <glyph glyph-name="exclamdown" unicode="&#xa1;" horiz-adv-x="301" 
d="M151 534q32 0 54.5 -22.5t22.5 -54.5t-22.5 -54.5t-54.5 -22.5t-55 22.5t-23 54.5t23 54.5t55 22.5zM131 291h39l51 -430q2 -26 2 -27q0 -32 -21 -51.5t-51 -19.5t-51.5 19.5t-21.5 51.5q0 1 2 27z" />
    <glyph glyph-name="cent" unicode="&#xa2;" horiz-adv-x="507" 
d="M477 149q-16 -69 -62.5 -111t-112.5 -50v-88h-34v87q-104 4 -166.5 77t-62.5 191t62.5 196.5t166.5 92.5v90h34v-88h5q76 0 147 -34v-140h-36q-25 102 -116 113v-394q6 -1 18 -1q89 0 130 72zM133 305q0 -81 36 -136t99 -72v388q-63 -5 -99 -53t-36 -127z" />
    <glyph glyph-name="sterling" unicode="&#xa3;" horiz-adv-x="527" 
d="M452 164l29 -1q-1 -175 -131 -175q-29 0 -82.5 14.5t-84.5 14.5q-49 0 -74.5 -5t-53.5 -24l-25 27q67 64 90.5 107t23.5 87q0 51 -24 103h-76v38h56q-29 54 -29 116q0 101 60.5 158.5t155.5 57.5q91 0 171 -46v-151h-29q-26 153 -157 153q-52 0 -88 -30t-36 -95
q0 -33 9.5 -58.5t34 -61.5t28.5 -43h167v-38h-151q6 -18 6 -39q0 -106 -92 -177l4 -4q32 21 74 21q25 0 66.5 -18t71.5 -18q23 0 39 4.5t31 25t16 57.5z" />
    <glyph glyph-name="currency" unicode="&#xa4;" horiz-adv-x="592" 
d="M102 134l-22 22l64 64q-46 54 -46 130t46 130l-64 64l22 22l63 -63q56 48 131 48t131 -48l63 63l22 -22l-64 -64q46 -54 46 -130t-46 -130l64 -64l-22 -22l-63 63q-56 -48 -131 -48t-131 48zM296 177q72 0 120 50.5t48 122.5t-48 122.5t-120 50.5t-120 -50.5t-48 -122.5
t48 -122.5t120 -50.5z" />
    <glyph glyph-name="yen" unicode="&#xa5;" horiz-adv-x="601" 
d="M130 0v29q76 4 99 23.5t23 83.5v57h-155v34h155v60h-155v33h135l-112 218q-30 58 -53 78.5t-62 25.5v28h278v-29q-42 -2 -56 -10.5t-14 -30.5q0 -9 15 -43l111 -228h3l108 229q14 27 14 42q0 38 -69 41v29h201v-28q-58 -6 -89 -69l-129 -253h136v-33h-155v-60h155v-34
h-155v-57q0 -65 23.5 -84.5t97.5 -22.5v-29h-350z" />
    <glyph glyph-name="brokenbar" unicode="&#xa6;" horiz-adv-x="198" 
d="M122 760v-392h-46v392h46zM76 -124v392h46v-392h-46z" />
    <glyph glyph-name="section" unicode="&#xa7;" horiz-adv-x="517" 
d="M380 95q72 -50 72 -138q0 -86 -57 -140t-155 -54q-111 0 -192 59v170h31q16 -98 64.5 -142t112.5 -44q53 0 87.5 27.5t34.5 79.5q0 42 -22 65t-72 46l-113 54q-119 55 -119 166q0 109 107 149q-83 54 -83 147q0 77 55.5 127t153.5 50q95 0 166 -44v-148h-28
q-18 80 -56 115t-98 35q-56 0 -86.5 -26.5t-30.5 -70.5q0 -67 92 -110l113 -53q119 -55 119 -165q0 -111 -96 -155zM220 174l113 -53q2 -1 4.5 -2t5.5 -2.5t4 -2.5q50 28 50 97q0 38 -19.5 62t-68.5 47l-114 54q-1 0 -2 1t-2 1q-62 -22 -62 -89q0 -72 91 -113z" />
    <glyph glyph-name="dieresis" unicode="&#xa8;" horiz-adv-x="600" 
d="M110 583q-25 0 -42.5 17.5t-17.5 43.5t17.5 43t42.5 17q26 0 43.5 -17t17.5 -43t-17.5 -43.5t-43.5 -17.5zM305 583q-26 0 -43.5 17.5t-17.5 43.5t17.5 43t43.5 17t43 -17t17 -43t-17 -43.5t-43 -17.5z" />
    <glyph glyph-name="copyright" unicode="&#xa9;" horiz-adv-x="876" 
d="M438 -40q-173 0 -281.5 108t-108.5 282t108.5 282t281.5 108t281.5 -108t108.5 -282t-108.5 -282t-281.5 -108zM438 -4q152 0 250 97.5t98 256.5t-98 256.5t-250 97.5q-151 0 -249.5 -98t-98.5 -256t98.5 -256t249.5 -98zM441 152q-80 0 -131 55.5t-51 144.5
q0 96 55.5 153t145.5 57q72 0 119 -26v-117h-23q-22 101 -110 101q-55 0 -86.5 -36t-31.5 -102q0 -72 39 -116t100 -44q73 0 106 61l21 -9q-16 -59 -56 -90.5t-97 -31.5z" />
    <glyph glyph-name="ordfeminine" unicode="&#xaa;" horiz-adv-x="447" 
d="M397 390l16 -11q-19 -58 -80 -58q-64 0 -70 63h-5q-9 -28 -35.5 -46t-64.5 -18q-46 0 -74 23t-28 67q0 84 133 109l70 14v19q0 76 -77 76q-67 0 -93 -56l-24 10q11 45 47 73.5t98 28.5q64 0 98.5 -34t34.5 -101v-141q0 -34 27 -34q16 0 27 16zM200 367q43 0 59 46v93
l-35 -7q-80 -15 -80 -74q0 -26 15 -42t41 -16z" />
    <glyph glyph-name="guillemotleft" unicode="&#xab;" horiz-adv-x="587" 
d="M289 486v-34l-124 -184l124 -184v-34l-221 201v34zM509 486v-34l-124 -184l124 -184v-34l-220 201v34z" />
    <glyph glyph-name="logicalnot" unicode="&#xac;" 
d="M489 363v-221h-43v178h-356v43h399z" />
    <glyph glyph-name="uni00AD" unicode="&#xad;" horiz-adv-x="364" 
d="M326 342v-71h-288v71h288z" />
    <glyph glyph-name="registered" unicode="&#xae;" horiz-adv-x="563" 
d="M282 673q104 0 168.5 -68.5t64.5 -169.5t-64.5 -169.5t-168.5 -68.5q-105 0 -169.5 68.5t-64.5 169.5t64.5 169.5t169.5 68.5zM282 229q89 0 143 59.5t54 146.5t-54 146.5t-143 59.5q-90 0 -144 -59.5t-54 -146.5t54 -146.5t144 -59.5zM382 348q11 -26 27 -29v-14h-54
q-3 5 -19 38l-16 37q-13 30 -22.5 41.5t-28.5 11.5h-20v-71q0 -21 6.5 -31t24.5 -11h4v-15h-111v15h6q17 1 23 10t6 32v156q0 22 -6 32t-23 11h-6v14h118q87 0 87 -64q0 -31 -20 -47.5t-52 -18.5l-19 -1v-3h13q21 -1 35 -12t28 -40zM249 453h27q57 0 57 57q0 47 -54 47h-30
v-104z" />
    <glyph glyph-name="macron" unicode="&#xaf;" horiz-adv-x="600" 
d="M50 617v45h262v-45h-262z" />
    <glyph glyph-name="degree" unicode="&#xb0;" horiz-adv-x="375" 
d="M188 484q-56 0 -93.5 35t-37.5 90q0 54 38 89t93 35t92.5 -35t37.5 -89q0 -55 -37.5 -90t-92.5 -35zM188 526q34 0 56.5 21.5t22.5 61.5q0 39 -22.5 60.5t-56.5 21.5q-35 0 -57.5 -21.5t-22.5 -60.5q0 -40 22.5 -61.5t57.5 -21.5z" />
    <glyph glyph-name="plusminus" unicode="&#xb1;" 
d="M312 328h178v-43h-178v-178h-43v178h-179v43h179v178h43v-178zM90 0v43h400v-43h-400z" />
    <glyph glyph-name="two.sups" unicode="&#xb2;" horiz-adv-x="448" 
d="M57 328l-7 20l97 87q131 116 131 216q0 44 -23 72t-69 28q-82 0 -103 -91l-26 5q8 67 54.5 103.5t113.5 36.5q64 0 103.5 -31.5t39.5 -87.5q0 -64 -42.5 -117t-126.5 -120l-47 -39v-5h153q28 0 43.5 10t28.5 40h23l-41 -127h-302z" />
    <glyph glyph-name="three.sups" unicode="&#xb3;" horiz-adv-x="425" 
d="M71 410q42 -48 103 -48q47 0 74.5 26t27.5 71q0 43 -31 67.5t-83 24.5h-35v34h29q48 0 76.5 26t28.5 69q0 38 -21.5 60.5t-61.5 22.5q-62 0 -97 -66l-25 13q42 95 155 95q66 0 104.5 -30.5t38.5 -79.5q0 -48 -37 -82t-94 -37l-24 -2v-6h29q64 -1 103 -32t39 -82
q0 -58 -46 -96t-120 -38q-103 0 -154 76z" />
    <glyph glyph-name="acute" unicode="&#xb4;" horiz-adv-x="600" 
d="M83 582h-33l75 162h92v-23z" />
    <glyph glyph-name="uni00B5" unicode="&#xb5;" horiz-adv-x="598" 
d="M93 -150v539q0 26 -12.5 37t-39.5 11h-27v31l157 26h23v-322q0 -109 98 -109q34 0 64 19t42 50v257q0 26 -12 37t-40 11h-27v31l157 26h23v-408q0 -27 13.5 -39t49.5 -16l12 -2v-29h-168v38q0 43 12 79l-6 2q-18 -61 -64.5 -96t-101.5 -35q-78 0 -117 49v-33
q0 -66 21 -96t81 -30h5v-28h-143z" />
    <glyph glyph-name="paragraph" unicode="&#xb6;" horiz-adv-x="566" 
d="M556 700v-30l-22 -2q-43 -4 -59 -27.5t-16 -81.5v-689h-41v792h-120v-792h-41v470q-102 0 -168 47.5t-66 132.5t66 132.5t168 47.5h299z" />
    <glyph glyph-name="periodcentered" unicode="&#xb7;" horiz-adv-x="269" 
d="M135 287q-32 0 -55 22.5t-23 54.5t23 55t55 23t54.5 -23t22.5 -55t-22.5 -54.5t-54.5 -22.5z" />
    <glyph glyph-name="cedilla" unicode="&#xb8;" horiz-adv-x="600" 
d="M235 -146q0 -39 -26.5 -65t-68.5 -26q-34 0 -58 17.5t-32 47.5l17 6q16 -35 54 -35q24 0 40 15.5t16 41.5q0 23 -11.5 37.5t-33.5 14.5q-20 0 -39 -17l-14 9l58 103h29l-45 -76q12 9 35 9q34 0 56.5 -22.5t22.5 -59.5z" />
    <glyph glyph-name="one.sups" unicode="&#xb9;" horiz-adv-x="396" 
d="M345 352l1 -24h-283v24h16q45 1 63 14t19 40v282q0 57 -76 38l-19 -5l-8 22l163 62h27v-399q0 -26 18 -39.5t63 -14.5h16z" />
    <glyph glyph-name="ordmasculine" unicode="&#xba;" horiz-adv-x="483" 
d="M241 320q-80 0 -132.5 51t-52.5 131t52.5 131t132.5 51q81 0 133.5 -50.5t52.5 -131.5t-52.5 -131.5t-133.5 -50.5zM241 353q92 0 92 149t-92 149q-90 0 -90 -149t90 -149z" />
    <glyph glyph-name="guillemotright" unicode="&#xbb;" horiz-adv-x="587" 
d="M78 486l221 -201v-34l-221 -201v34l124 184l-124 184v34zM299 486l220 -201v-34l-220 -201v34l124 184l-124 184v34z" />
    <glyph glyph-name="onequarter" unicode="&#xbc;" horiz-adv-x="828" 
d="M57 298v22h14q37 1 51.5 12t14.5 34v237q0 48 -61 34l-16 -4l-8 19l138 55h24v-341q0 -22 15 -33.5t53 -12.5h13v-22h-238zM575 682h58l-427 -722h-60zM789 121h-62v-57q0 -40 35 -41l12 -1v-22h-198v23l14 1q37 2 48.5 16t11.5 51v30h-175v20l193 266h58v-246h63v-40z
M522 161h130v179h-3l-127 -176v-3z" />
    <glyph glyph-name="onehalf" unicode="&#xbd;" horiz-adv-x="818" 
d="M57 298v22h14q37 1 51.5 12t14.5 34v237q0 48 -61 34l-16 -4l-8 19l138 55h24v-341q0 -22 15 -33.5t53 -12.5h13v-22h-238zM575 682h58l-427 -722h-60zM754 111h21l-34 -111h-249l-7 19l79 73q106 96 106 183q0 37 -18.5 61t-55.5 24q-65 0 -83 -74l-22 5q7 57 45.5 87.5
t93.5 30.5q52 0 86 -27t34 -76q0 -56 -35.5 -101.5t-103.5 -100.5l-36 -31v-4h119q23 0 36 8.5t24 33.5z" />
    <glyph glyph-name="threequarters" unicode="&#xbe;" horiz-adv-x="848" 
d="M312 407q0 -50 -38 -83t-100 -33q-86 0 -128 66l17 12q36 -40 83 -40q38 0 60.5 22.5t22.5 61.5q0 36 -24.5 56t-66.5 20h-28v30h23q38 0 61 22t23 58q0 32 -17.5 50.5t-49.5 18.5q-50 0 -78 -55l-21 11q33 83 128 83q56 0 88.5 -26t32.5 -69q0 -40 -30 -69t-76 -32
l-21 -2v-5h26q51 -1 82 -27.5t31 -69.5zM596 682h58l-427 -722h-60zM809 121h-62v-57q0 -40 35 -41l12 -1v-22h-198v23l14 1q37 2 48.5 16t11.5 51v30h-175v20l193 266h58v-246h63v-40zM542 161h130v179h-3l-127 -176v-3z" />
    <glyph glyph-name="questiondown" unicode="&#xbf;" horiz-adv-x="436" 
d="M268 537q32 0 55 -23t23 -55t-23 -54.5t-55 -22.5t-54.5 23t-22.5 54q0 32 22.5 55t54.5 23zM297 293v-38q0 -40 -15 -71t-53 -64q-44 -39 -64.5 -72t-20.5 -78q0 -60 33.5 -96.5t104.5 -36.5q57 0 97.5 28t52.5 87l38 -8q-12 -87 -78 -134t-159 -47q-91 0 -148 49
t-57 128q0 66 34.5 112t104.5 95q50 35 63.5 58.5t13.5 66.5v21h53z" />
    <glyph glyph-name="Agrave" unicode="&#xc0;" horiz-adv-x="740" 
d="M392 750h-49l-131 114v26h90zM638 124q19 -49 41 -69.5t51 -24.5v-30h-287v31q62 2 78 21t-3 75l-45 126h-260l-44 -120q-19 -59 -4 -79.5t71 -22.5v-31h-227v30q41 4 61.5 25.5t41.5 77.5l204 550l101 39zM227 293h231l-53 147q-59 161 -59 194h-5q-1 -32 -61 -195z" />
    <glyph glyph-name="Aacute" unicode="&#xc1;" horiz-adv-x="740" 
d="M523 864l-131 -113h-49l90 139h90v-26zM638 124q19 -49 41 -69.5t51 -24.5v-30h-287v31q62 2 78 21t-3 75l-45 126h-260l-44 -120q-19 -59 -4 -79.5t71 -22.5v-31h-227v30q41 4 61.5 25.5t41.5 77.5l204 550l101 39zM227 293h231l-53 147q-59 161 -59 194h-5
q-1 -32 -61 -195z" />
    <glyph glyph-name="Acircumflex" unicode="&#xc2;" horiz-adv-x="740" 
d="M367 825l-117 -74h-51l143 139h50l143 -139h-51zM638 124q19 -49 41 -69.5t51 -24.5v-30h-287v31q62 2 78 21t-3 75l-45 126h-260l-44 -120q-19 -59 -4 -79.5t71 -22.5v-31h-227v30q41 4 61.5 25.5t41.5 77.5l204 550l101 39zM227 293h231l-53 147q-59 161 -59 194h-5
q-1 -32 -61 -195z" />
    <glyph glyph-name="Atilde" unicode="&#xc3;" horiz-adv-x="740" 
d="M306 802q-43 0 -66 -39h-26q3 57 34 83t71 26q29 0 63 -19.5t57 -19.5q43 0 66 40h26q-3 -58 -34 -84t-71 -26q-30 0 -63 19.5t-57 19.5zM638 124q19 -49 41 -69.5t51 -24.5v-30h-287v31q62 2 78 21t-3 75l-45 126h-260l-44 -120q-19 -59 -4 -79.5t71 -22.5v-31h-227v30
q41 4 61.5 25.5t41.5 77.5l204 550l101 39zM227 293h231l-53 147q-59 161 -59 194h-5q-1 -32 -61 -195z" />
    <glyph glyph-name="Adieresis" unicode="&#xc4;" horiz-adv-x="740" 
d="M263 767q-24 0 -41 16.5t-17 41.5t17 42t41 17q25 0 42 -17t17 -42t-17 -41.5t-42 -16.5zM471 767q-24 0 -41 16.5t-17 41.5t17 42t41 17t41 -17t17 -42t-17 -41.5t-41 -16.5zM638 124q19 -49 41 -69.5t51 -24.5v-30h-287v31q62 2 78 21t-3 75l-45 126h-260l-44 -120
q-19 -59 -4 -79.5t71 -22.5v-31h-227v30q41 4 61.5 25.5t41.5 77.5l204 550l101 39zM227 293h231l-53 147q-59 161 -59 194h-5q-1 -32 -61 -195z" />
    <glyph glyph-name="Aring" unicode="&#xc5;" horiz-adv-x="740" 
d="M369 725q-41 0 -70 27.5t-29 70.5t29 70t70 27t70 -27t29 -70t-29 -70.5t-70 -27.5zM369 887q-28 0 -46 -17t-18 -47t18 -47.5t46 -17.5t46 17.5t18 47.5t-18 47t-46 17zM638 124q19 -49 41 -69.5t51 -24.5v-30h-287v31q62 2 78 21t-3 75l-45 126h-260l-44 -120
q-19 -59 -4 -79.5t71 -22.5v-31h-227v30q41 4 61.5 25.5t41.5 77.5l204 550l101 39zM227 293h231l-53 147q-59 161 -59 194h-5q-1 -32 -61 -195z" />
    <glyph glyph-name="AE" unicode="&#xc6;" horiz-adv-x="1001" 
d="M5 0v30q46 4 67.5 24t54.5 78l265 473q12 23 12 36q0 17 -22.5 23t-91.5 6v30h639l18 -202h-34q-26 95 -68.5 129.5t-137.5 34.5h-78v-274h31q62 0 84 23.5t33 95.5h35v-280h-35q-11 73 -33.5 97t-83.5 24h-31v-248q0 -30 14 -45.5t48 -15.5h22q94 0 134 37t73 147h35
l-23 -223h-511v30q59 5 78 26.5t19 84.5v207h-217l-118 -215q-27 -52 -14.5 -73t67.5 -29v-31h-231zM323 388h195v273h-44z" />
    <glyph glyph-name="Ccedilla" unicode="&#xc7;" horiz-adv-x="688" 
d="M654 196q-27 -98 -94 -153.5t-164 -59.5l-33 -56q12 9 35 9q34 0 56.5 -22.5t22.5 -59.5q0 -39 -26.5 -65t-68.5 -26q-34 0 -58 17.5t-32 47.5l17 6q16 -35 54 -35q24 0 40 15.5t16 41.5q0 23 -11.5 37.5t-33.5 14.5q-20 0 -39 -17l-14 9l47 83q-143 5 -231.5 103.5
t-88.5 253.5q0 173 98.5 275t264.5 102q135 0 215 -46v-201h-36q-42 184 -209 184q-106 0 -165.5 -69.5t-59.5 -193.5q0 -136 73 -217t195 -81q136 0 199 117z" />
    <glyph glyph-name="Egrave" unicode="&#xc8;" horiz-adv-x="681" 
d="M357 750l-131 114v26h90l90 -140h-49zM600 223h35l-23 -223h-569v30q58 3 77.5 25.5t19.5 85.5v418q0 64 -19.5 86t-77.5 25v30h555l19 -203h-35q-24 93 -70 128.5t-144 35.5h-117v-273h71q64 0 88 24.5t33 94.5h30v-280h-30q-10 72 -34 96.5t-87 24.5h-71v-248
q0 -30 14 -45.5t48 -15.5h61q105 0 150.5 38.5t75.5 145.5z" />
    <glyph glyph-name="Eacute" unicode="&#xc9;" horiz-adv-x="681" 
d="M406 751h-49l90 139h90v-26zM600 223h35l-23 -223h-569v30q58 3 77.5 25.5t19.5 85.5v418q0 64 -19.5 86t-77.5 25v30h555l19 -203h-35q-24 93 -70 128.5t-144 35.5h-117v-273h71q64 0 88 24.5t33 94.5h30v-280h-30q-10 72 -34 96.5t-87 24.5h-71v-248q0 -30 14 -45.5
t48 -15.5h61q105 0 150.5 38.5t75.5 145.5z" />
    <glyph glyph-name="Ecircumflex" unicode="&#xca;" horiz-adv-x="681" 
d="M406 890l143 -139h-51l-117 74l-117 -74h-51l143 139h50zM600 223h35l-23 -223h-569v30q58 3 77.5 25.5t19.5 85.5v418q0 64 -19.5 86t-77.5 25v30h555l19 -203h-35q-24 93 -70 128.5t-144 35.5h-117v-273h71q64 0 88 24.5t33 94.5h30v-280h-30q-10 72 -34 96.5t-87 24.5
h-71v-248q0 -30 14 -45.5t48 -15.5h61q105 0 150.5 38.5t75.5 145.5z" />
    <glyph glyph-name="Edieresis" unicode="&#xcb;" horiz-adv-x="681" 
d="M277 767q-24 0 -41 16.5t-17 41.5t17 42t41 17q25 0 42 -17t17 -42t-17 -41.5t-42 -16.5zM485 767q-24 0 -41 16.5t-17 41.5t17 42t41 17t41 -17t17 -42t-17 -41.5t-41 -16.5zM600 223h35l-23 -223h-569v30q58 3 77.5 25.5t19.5 85.5v418q0 64 -19.5 86t-77.5 25v30h555
l19 -203h-35q-24 93 -70 128.5t-144 35.5h-117v-273h71q64 0 88 24.5t33 94.5h30v-280h-30q-10 72 -34 96.5t-87 24.5h-71v-248q0 -30 14 -45.5t48 -15.5h61q105 0 150.5 38.5t75.5 145.5z" />
    <glyph glyph-name="Igrave" unicode="&#xcc;" horiz-adv-x="391" 
d="M172 750l-131 114v26h90l90 -140h-49zM251 559v-418q0 -63 20 -84.5t77 -26.5v-30h-305v30q59 5 78 26.5t19 84.5v418q0 63 -19.5 84.5t-77.5 26.5v30h305v-30q-61 -6 -79 -26t-18 -85z" />
    <glyph glyph-name="Iacute" unicode="&#xcd;" horiz-adv-x="391" 
d="M221 751h-49l90 139h90v-26zM251 559v-418q0 -63 20 -84.5t77 -26.5v-30h-305v30q59 5 78 26.5t19 84.5v418q0 63 -19.5 84.5t-77.5 26.5v30h305v-30q-61 -6 -79 -26t-18 -85z" />
    <glyph glyph-name="Icircumflex" unicode="&#xce;" horiz-adv-x="391" 
d="M221 890l143 -139h-51l-117 74l-117 -74h-51l143 139h50zM251 559v-418q0 -63 20 -84.5t77 -26.5v-30h-305v30q59 5 78 26.5t19 84.5v418q0 63 -19.5 84.5t-77.5 26.5v30h305v-30q-61 -6 -79 -26t-18 -85z" />
    <glyph glyph-name="Idieresis" unicode="&#xcf;" horiz-adv-x="391" 
d="M92 767q-24 0 -41 16.5t-17 41.5t17 42t41 17q25 0 42 -17t17 -42t-17 -41.5t-42 -16.5zM300 767q-24 0 -41 16.5t-17 41.5t17 42t41 17t41 -17t17 -42t-17 -41.5t-41 -16.5zM251 559v-418q0 -63 20 -84.5t77 -26.5v-30h-305v30q59 5 78 26.5t19 84.5v418
q0 63 -19.5 84.5t-77.5 26.5v30h305v-30q-61 -6 -79 -26t-18 -85z" />
    <glyph glyph-name="Eth" unicode="&#xd0;" horiz-adv-x="777" 
d="M342 700q183 0 282.5 -92.5t99.5 -257.5q0 -166 -96 -258t-280 -92h-305v30q58 3 77.5 25.5t19.5 85.5v202h-86v31h86v185q0 64 -19.5 86t-77.5 25v30h299zM353 46q122 0 185 79t63 225q0 304 -269 304h-81v-280h175v-31h-175v-235q0 -31 14 -46.5t48 -15.5h40z" />
    <glyph glyph-name="Ntilde" unicode="&#xd1;" horiz-adv-x="799" 
d="M476 763q-30 0 -63 19.5t-57 19.5q-43 0 -66 -39h-26q3 57 34 83t71 26q29 0 62.5 -19.5t57.5 -19.5q43 0 66 40h26q-3 -58 -34 -84t-71 -26zM643 -5l-409 525q-33 44 -47 80l-4 -1q7 -40 7 -101v-378q1 -51 20 -66.5t82 -23.5v-30h-249v30q59 5 78 26.5t19 84.5v493
q-20 20 -37 25.5t-59 10.5v29h202l322 -419q47 -62 68 -113l6 2q-5 45 -5 115v281q0 62 -18.5 80t-82.5 25v30h248v-30q-61 -5 -78.5 -25.5t-17.5 -85.5v-564h-45z" />
    <glyph glyph-name="Ograve" unicode="&#xd2;" horiz-adv-x="838" 
d="M395 750l-131 114v26h90l90 -140h-49zM419 -17q-163 0 -267 103t-104 264t104 264t267 103t267 -103t104 -264t-104 -264t-267 -103zM419 35q111 0 175.5 84t64.5 231t-64.5 231t-175.5 84t-175.5 -84t-64.5 -231t64.5 -231t175.5 -84z" />
    <glyph glyph-name="Oacute" unicode="&#xd3;" horiz-adv-x="838" 
d="M444 751h-49l90 139h90v-26zM419 -17q-163 0 -267 103t-104 264t104 264t267 103t267 -103t104 -264t-104 -264t-267 -103zM419 35q111 0 175.5 84t64.5 231t-64.5 231t-175.5 84t-175.5 -84t-64.5 -231t64.5 -231t175.5 -84z" />
    <glyph glyph-name="Ocircumflex" unicode="&#xd4;" horiz-adv-x="838" 
d="M444 890l143 -139h-51l-117 74l-117 -74h-51l143 139h50zM419 -17q-163 0 -267 103t-104 264t104 264t267 103t267 -103t104 -264t-104 -264t-267 -103zM419 35q111 0 175.5 84t64.5 231t-64.5 231t-175.5 84t-175.5 -84t-64.5 -231t64.5 -231t175.5 -84z" />
    <glyph glyph-name="Otilde" unicode="&#xd5;" horiz-adv-x="838" 
d="M478 763q-30 0 -63 19.5t-57 19.5q-43 0 -66 -39h-26q3 57 34 83t71 26q29 0 62.5 -19.5t57.5 -19.5q43 0 66 40h26q-3 -58 -34 -84t-71 -26zM419 -17q-163 0 -267 103t-104 264t104 264t267 103t267 -103t104 -264t-104 -264t-267 -103zM419 35q111 0 175.5 84t64.5 231
t-64.5 231t-175.5 84t-175.5 -84t-64.5 -231t64.5 -231t175.5 -84z" />
    <glyph glyph-name="Odieresis" unicode="&#xd6;" horiz-adv-x="838" 
d="M315 767q-24 0 -41 16.5t-17 41.5t17 42t41 17q25 0 42 -17t17 -42t-17 -41.5t-42 -16.5zM523 767q-24 0 -41 16.5t-17 41.5t17 42t41 17t41 -17t17 -42t-17 -41.5t-41 -16.5zM419 -17q-163 0 -267 103t-104 264t104 264t267 103t267 -103t104 -264t-104 -264t-267 -103z
M419 35q111 0 175.5 84t64.5 231t-64.5 231t-175.5 84t-175.5 -84t-64.5 -231t64.5 -231t175.5 -84z" />
    <glyph glyph-name="multiply" unicode="&#xd7;" 
d="M474 461l-154 -154l154 -155l-30 -30l-154 155l-155 -155l-30 30l155 155l-155 154l30 30l155 -154l154 154z" />
    <glyph glyph-name="Oslash" unicode="&#xd8;" horiz-adv-x="838" 
d="M646 648q68 -49 106 -126.5t38 -171.5q0 -161 -104 -264t-267 -103q-101 0 -183 42l-40 -61h-56l56 85q-70 49 -109 127t-39 174q0 161 104 264t267 103q105 0 187 -45l43 65h56zM179 350q0 -146 64 -230l323 492q-59 53 -147 53q-111 0 -175.5 -84t-64.5 -231zM419 35
q111 0 175.5 84t64.5 231q0 142 -60 225l-323 -490q58 -50 143 -50z" />
    <glyph glyph-name="Ugrave" unicode="&#xd9;" horiz-adv-x="762" 
d="M387 750l-131 114v26h90l90 -140h-49zM387 -17q-134 0 -207.5 73.5t-73.5 208.5v294q0 63 -19.5 84.5t-77.5 26.5v30h313v-30q-61 -5 -79 -25.5t-18 -85.5v-295q0 -103 49 -156.5t141 -53.5q183 0 183 218v287q0 63 -19.5 84.5t-77.5 26.5v30h252v-30q-60 -5 -78.5 -24.5
t-18.5 -80.5v-300q0 -132 -71 -207t-198 -75z" />
    <glyph glyph-name="Uacute" unicode="&#xda;" horiz-adv-x="762" 
d="M436 751h-49l90 139h90v-26zM387 -17q-134 0 -207.5 73.5t-73.5 208.5v294q0 63 -19.5 84.5t-77.5 26.5v30h313v-30q-61 -5 -79 -25.5t-18 -85.5v-295q0 -103 49 -156.5t141 -53.5q183 0 183 218v287q0 63 -19.5 84.5t-77.5 26.5v30h252v-30q-60 -5 -78.5 -24.5
t-18.5 -80.5v-300q0 -132 -71 -207t-198 -75z" />
    <glyph glyph-name="Ucircumflex" unicode="&#xdb;" horiz-adv-x="762" 
d="M437 890l143 -139h-51l-117 74l-117 -74h-51l143 139h50zM387 -17q-134 0 -207.5 73.5t-73.5 208.5v294q0 63 -19.5 84.5t-77.5 26.5v30h313v-30q-61 -5 -79 -25.5t-18 -85.5v-295q0 -103 49 -156.5t141 -53.5q183 0 183 218v287q0 63 -19.5 84.5t-77.5 26.5v30h252v-30
q-60 -5 -78.5 -24.5t-18.5 -80.5v-300q0 -132 -71 -207t-198 -75z" />
    <glyph glyph-name="Udieresis" unicode="&#xdc;" horiz-adv-x="762" 
d="M308 767q-24 0 -41 16.5t-17 41.5t17 42t41 17q25 0 42 -17t17 -42t-17 -41.5t-42 -16.5zM516 767q-24 0 -41 16.5t-17 41.5t17 42t41 17t41 -17t17 -42t-17 -41.5t-41 -16.5zM387 -17q-134 0 -207.5 73.5t-73.5 208.5v294q0 63 -19.5 84.5t-77.5 26.5v30h313v-30
q-61 -5 -79 -25.5t-18 -85.5v-295q0 -103 49 -156.5t141 -53.5q183 0 183 218v287q0 63 -19.5 84.5t-77.5 26.5v30h252v-30q-60 -5 -78.5 -24.5t-18.5 -80.5v-300q0 -132 -71 -207t-198 -75z" />
    <glyph glyph-name="Yacute" unicode="&#xdd;" horiz-adv-x="672" 
d="M401 751h-49l90 139h90v-26zM453 700h214v-29q-26 -3 -44.5 -20t-42.5 -52l-183 -309v-149q0 -67 23.5 -87t102.5 -24v-30h-363v30q79 4 102.5 24.5t23.5 86.5v148l-175 288q-32 52 -53.5 70.5t-52.5 23.5v29h295v-30q-53 -2 -69.5 -9.5t-16.5 -29.5q0 -20 18 -48
l111 -182q29 -46 33 -72h5q3 23 30 69l110 185q16 32 16 48q0 35 -84 39v30z" />
    <glyph glyph-name="Thorn" unicode="&#xde;" horiz-adv-x="598" 
d="M43 0v30q59 5 78 26.5t19 84.5v418q0 63 -19.5 84.5t-77.5 26.5v30h305v-30q-59 -5 -77.5 -24.5t-18.5 -79.5v-8h87q101 0 168.5 -46.5t67.5 -139.5q0 -97 -70.5 -147.5t-172.5 -50.5h-81v-37q0 -60 20 -81t77 -26v-30h-305zM251 213h60q72 0 109.5 41t37.5 119
q0 148 -140 148h-67v-308z" />
    <glyph glyph-name="germandbls" unicode="&#xdf;" horiz-adv-x="599" 
d="M343 390q113 0 165.5 -55t52.5 -139q0 -90 -53.5 -151t-152.5 -61q-50 0 -90 19l8 28q33 -10 53 -10q53 0 91 49t38 123q0 178 -160 178h-26v42h22q136 0 136 171q0 143 -114 143q-108 0 -108 -146v-581h-182v29q50 5 65.5 18t15.5 52v406q0 75 20.5 129.5t55.5 81.5
t71 38.5t76 11.5q101 0 153.5 -53t52.5 -135q0 -30 -11.5 -60.5t-33.5 -58t-59.5 -44.5t-85.5 -18l-8 -1v-6h8z" />
    <glyph glyph-name="agrave" unicode="&#xe0;" horiz-adv-x="531" 
d="M266 582h-33l-138 139v23h92zM498 83l20 -13q-25 -80 -103 -80q-40 0 -64.5 23t-25.5 68h-7q-10 -39 -46.5 -66t-89.5 -27q-64 0 -101.5 33t-37.5 95q0 118 178 153l100 20v29q0 113 -108 113q-95 0 -128 -80l-30 10q14 63 61.5 104t131.5 41q82 0 128 -46.5t46 -139.5
v-210q0 -50 38 -50q25 0 38 23zM230 49q67 0 91 77v126l-51 -9q-118 -24 -118 -110q0 -39 20.5 -61.5t57.5 -22.5z" />
    <glyph glyph-name="aacute" unicode="&#xe1;" horiz-adv-x="531" 
d="M400 721l-134 -139h-33l75 162h92v-23zM498 83l20 -13q-25 -80 -103 -80q-40 0 -64.5 23t-25.5 68h-7q-10 -39 -46.5 -66t-89.5 -27q-64 0 -101.5 33t-37.5 95q0 118 178 153l100 20v29q0 113 -108 113q-95 0 -128 -80l-30 10q14 63 61.5 104t131.5 41q82 0 128 -46.5
t46 -139.5v-210q0 -50 38 -50q25 0 38 23zM230 49q67 0 91 77v126l-51 -9q-118 -24 -118 -110q0 -39 20.5 -61.5t57.5 -22.5z" />
    <glyph glyph-name="acircumflex" unicode="&#xe2;" horiz-adv-x="531" 
d="M250 667l-91 -85h-36l109 158h35l109 -158h-36zM498 83l20 -13q-25 -80 -103 -80q-40 0 -64.5 23t-25.5 68h-7q-10 -39 -46.5 -66t-89.5 -27q-64 0 -101.5 33t-37.5 95q0 118 178 153l100 20v29q0 113 -108 113q-95 0 -128 -80l-30 10q14 63 61.5 104t131.5 41
q82 0 128 -46.5t46 -139.5v-210q0 -50 38 -50q25 0 38 23zM230 49q67 0 91 77v126l-51 -9q-118 -24 -118 -110q0 -39 20.5 -61.5t57.5 -22.5z" />
    <glyph glyph-name="atilde" unicode="&#xe3;" horiz-adv-x="531" 
d="M181 632q-37 0 -57 -39h-18q3 55 31.5 79.5t65.5 24.5q28 0 60.5 -20t53.5 -20q37 0 56 38h19q-3 -54 -31.5 -78.5t-65.5 -24.5q-28 0 -60.5 20t-53.5 20zM498 83l20 -13q-25 -80 -103 -80q-40 0 -64.5 23t-25.5 68h-7q-10 -39 -46.5 -66t-89.5 -27q-64 0 -101.5 33
t-37.5 95q0 118 178 153l100 20v29q0 113 -108 113q-95 0 -128 -80l-30 10q14 63 61.5 104t131.5 41q82 0 128 -46.5t46 -139.5v-210q0 -50 38 -50q25 0 38 23zM230 49q67 0 91 77v126l-51 -9q-118 -24 -118 -110q0 -39 20.5 -61.5t57.5 -22.5z" />
    <glyph glyph-name="adieresis" unicode="&#xe4;" horiz-adv-x="531" 
d="M152 583q-25 0 -42.5 17.5t-17.5 43.5t17.5 43t42.5 17q26 0 43.5 -17t17.5 -43t-17.5 -43.5t-43.5 -17.5zM347 583q-26 0 -43.5 17.5t-17.5 43.5t17.5 43t43.5 17t43 -17t17 -43t-17 -43.5t-43 -17.5zM498 83l20 -13q-25 -80 -103 -80q-40 0 -64.5 23t-25.5 68h-7
q-10 -39 -46.5 -66t-89.5 -27q-64 0 -101.5 33t-37.5 95q0 118 178 153l100 20v29q0 113 -108 113q-95 0 -128 -80l-30 10q14 63 61.5 104t131.5 41q82 0 128 -46.5t46 -139.5v-210q0 -50 38 -50q25 0 38 23zM230 49q67 0 91 77v126l-51 -9q-118 -24 -118 -110
q0 -39 20.5 -61.5t57.5 -22.5z" />
    <glyph glyph-name="aring" unicode="&#xe5;" horiz-adv-x="531" 
d="M250 556q-42 0 -70.5 27.5t-28.5 70.5t28.5 70.5t70.5 27.5q41 0 70 -27.5t29 -70.5t-29 -70.5t-70 -27.5zM250 713q-24 0 -40.5 -16t-16.5 -43t16.5 -43t40.5 -16t40 15.5t16 43.5t-16 43.5t-40 15.5zM498 83l20 -13q-25 -80 -103 -80q-40 0 -64.5 23t-25.5 68h-7
q-10 -39 -46.5 -66t-89.5 -27q-64 0 -101.5 33t-37.5 95q0 118 178 153l100 20v29q0 113 -108 113q-95 0 -128 -80l-30 10q14 63 61.5 104t131.5 41q82 0 128 -46.5t46 -139.5v-210q0 -50 38 -50q25 0 38 23zM230 49q67 0 91 77v126l-51 -9q-118 -24 -118 -110
q0 -39 20.5 -61.5t57.5 -22.5z" />
    <glyph glyph-name="ae" unicode="&#xe6;" horiz-adv-x="736" 
d="M556 86q78 0 112 64l27 -14q-15 -61 -60.5 -104.5t-113.5 -43.5q-119 0 -168 109q-17 -45 -58.5 -77t-103.5 -32q-63 0 -105.5 35.5t-42.5 101.5q0 72 64 124t189 55h11q-13 70 -36 98.5t-74 28.5q-85 0 -116 -80l-29 10q13 63 59 104t126 41q103 0 147 -75q51 75 138 75
q88 0 131 -63t43 -176h-290q8 -86 47 -133.5t103 -47.5zM499 463q-45 0 -69.5 -41.5t-24.5 -115.5h173q0 76 -17 116.5t-62 40.5zM234 49q72 0 106 84q-8 25 -12 49l-15 84h-7q-79 0 -116.5 -33.5t-37.5 -89.5q0 -39 22 -66.5t60 -27.5z" />
    <glyph glyph-name="ccedilla" unicode="&#xe7;" horiz-adv-x="487" 
d="M266 -12h-6l-36 -61q12 9 35 9q34 0 56.5 -22.5t22.5 -59.5q0 -39 -26.5 -65t-68.5 -26q-34 0 -58 17.5t-32 47.5l17 6q16 -35 54 -35q24 0 40 15.5t16 41.5q0 23 -11.5 37.5t-33.5 14.5q-20 0 -39 -17l-14 9l51 90q-88 11 -141 77.5t-53 168.5q0 114 66 192t181 78
q83 0 150 -30v-142h-34q-30 114 -136 114q-66 0 -102 -43t-36 -120q0 -90 49 -144.5t130 -54.5q85 0 124 65l26 -12q-16 -66 -64.5 -108.5t-126.5 -42.5z" />
    <glyph glyph-name="egrave" unicode="&#xe8;" horiz-adv-x="498" 
d="M279 582h-33l-138 139v23h92zM301 86q92 0 130 64l27 -14q-16 -61 -66.5 -104.5t-128.5 -43.5q-104 0 -164 69t-60 181q0 118 60 193t164 75q93 0 144 -58.5t51 -159.5h-331q5 -95 50.5 -148.5t123.5 -53.5zM243 463q-53 0 -83 -36t-34 -101h213q0 137 -96 137z" />
    <glyph glyph-name="eacute" unicode="&#xe9;" horiz-adv-x="498" 
d="M412 721l-134 -139h-33l75 162h92v-23zM301 86q92 0 130 64l27 -14q-16 -61 -66.5 -104.5t-128.5 -43.5q-104 0 -164 69t-60 181q0 118 60 193t164 75q93 0 144 -58.5t51 -159.5h-331q5 -95 50.5 -148.5t123.5 -53.5zM243 463q-53 0 -83 -36t-34 -101h213q0 137 -96 137z
" />
    <glyph glyph-name="ecircumflex" unicode="&#xea;" horiz-adv-x="498" 
d="M262 667l-91 -85h-36l109 158h35l109 -158h-36zM301 86q92 0 130 64l27 -14q-16 -61 -66.5 -104.5t-128.5 -43.5q-104 0 -164 69t-60 181q0 118 60 193t164 75q93 0 144 -58.5t51 -159.5h-331q5 -95 50.5 -148.5t123.5 -53.5zM243 463q-53 0 -83 -36t-34 -101h213
q0 137 -96 137z" />
    <glyph glyph-name="edieresis" unicode="&#xeb;" horiz-adv-x="498" 
d="M164 583q-25 0 -42.5 17.5t-17.5 43.5t17.5 43t42.5 17q26 0 43.5 -17t17.5 -43t-17.5 -43.5t-43.5 -17.5zM359 583q-26 0 -43.5 17.5t-17.5 43.5t17.5 43t43.5 17t43 -17t17 -43t-17 -43.5t-43 -17.5zM301 86q92 0 130 64l27 -14q-16 -61 -66.5 -104.5t-128.5 -43.5
q-104 0 -164 69t-60 181q0 118 60 193t164 75q93 0 144 -58.5t51 -159.5h-331q5 -95 50.5 -148.5t123.5 -53.5zM243 463q-53 0 -83 -36t-34 -101h213q0 137 -96 137z" />
    <glyph glyph-name="igrave" unicode="&#xec;" horiz-adv-x="318" 
d="M142 582l-138 139v23h92l79 -162h-33zM295 29v-29h-263v29q49 4 65 17.5t16 52.5v277q0 26 -11 37t-36 11q-8 0 -38 -2v29l154 43h32v-394q0 -40 16 -53t65 -18z" />
    <glyph glyph-name="iacute" unicode="&#xed;" horiz-adv-x="318" 
d="M175 582h-33l75 162h92v-23zM295 29v-29h-263v29q49 4 65 17.5t16 52.5v277q0 26 -11 37t-36 11q-8 0 -38 -2v29l154 43h32v-394q0 -40 16 -53t65 -18z" />
    <glyph glyph-name="icircumflex" unicode="&#xee;" horiz-adv-x="318" 
d="M32 582l109 158h35l109 -158h-36l-90 85l-91 -85h-36zM295 29v-29h-263v29q49 4 65 17.5t16 52.5v277q0 26 -11 37t-36 11q-8 0 -38 -2v29l154 43h32v-394q0 -40 16 -53t65 -18z" />
    <glyph glyph-name="idieresis" unicode="&#xef;" horiz-adv-x="318" 
d="M63 582q-26 0 -43 17t-17 42q0 26 17 43t43 17q25 0 42 -17t17 -43q0 -25 -17 -42t-42 -17zM254 582q-25 0 -42.5 17t-17.5 42q0 26 17.5 43t42.5 17t42 -17t17 -43q0 -25 -17 -42t-42 -17zM295 29v-29h-263v29q49 4 65 17.5t16 52.5v277q0 26 -11 37t-36 11q-8 0 -38 -2
v29l154 43h32v-394q0 -40 16 -53t65 -18z" />
    <glyph glyph-name="eth" unicode="&#xf0;" horiz-adv-x="569" 
d="M337 650q188 -136 188 -376q0 -119 -63.5 -202.5t-182.5 -83.5q-103 0 -171.5 73.5t-68.5 186.5q0 108 59 183t161 75q74 0 115 -53h10q-38 94 -111 163l-150 -79v39l123 65q-74 59 -166 92l10 27q126 -32 214 -88l139 73v-39zM279 25q135 0 135 263q0 66 -18 127
q-42 45 -105 45q-70 0 -106.5 -55.5t-36.5 -160.5q0 -104 37 -161.5t94 -57.5z" />
    <glyph glyph-name="ntilde" unicode="&#xf1;" horiz-adv-x="631" 
d="M361 592q-28 0 -60.5 20t-53.5 20q-37 0 -57 -39h-18q3 55 31.5 79.5t65.5 24.5q27 0 60 -20t54 -20q37 0 56 38h19q-3 -54 -31.5 -78.5t-65.5 -24.5zM612 29v-29h-245v29q36 5 49.5 18t13.5 42v227q0 116 -100 116q-84 0 -115 -70v-263q0 -39 13 -52t52 -18v-29h-247v29
q49 4 65 17.5t16 52.5v291q0 34 -45 34q-11 0 -41 -3v29l147 44h30v-56q0 -22 -9 -64l5 -2q21 64 66.5 99t110.5 35q71 0 112 -41.5t41 -131.5v-233q0 -40 16 -53t65 -18z" />
    <glyph glyph-name="ograve" unicode="&#xf2;" horiz-adv-x="578" 
d="M272 582l-138 139v23h92l79 -162h-33zM289 -12q-109 0 -179.5 73t-70.5 186q0 112 70.5 185.5t179.5 73.5t179.5 -73.5t70.5 -185.5q0 -113 -70.5 -186t-179.5 -73zM289 34q133 0 133 213t-133 213t-133 -213t133 -213z" />
    <glyph glyph-name="oacute" unicode="&#xf3;" horiz-adv-x="578" 
d="M305 582h-33l75 162h92v-23zM289 -12q-109 0 -179.5 73t-70.5 186q0 112 70.5 185.5t179.5 73.5t179.5 -73.5t70.5 -185.5q0 -113 -70.5 -186t-179.5 -73zM289 34q133 0 133 213t-133 213t-133 -213t133 -213z" />
    <glyph glyph-name="ocircumflex" unicode="&#xf4;" horiz-adv-x="578" 
d="M162 582l109 158h35l109 -158h-36l-90 85l-91 -85h-36zM289 -12q-109 0 -179.5 73t-70.5 186q0 112 70.5 185.5t179.5 73.5t179.5 -73.5t70.5 -185.5q0 -113 -70.5 -186t-179.5 -73zM289 34q133 0 133 213t-133 213t-133 -213t133 -213z" />
    <glyph glyph-name="otilde" unicode="&#xf5;" horiz-adv-x="578" 
d="M334 592q-28 0 -60.5 20t-53.5 20q-37 0 -57 -39h-18q3 55 31.5 79.5t65.5 24.5q28 0 60 -20t54 -20q37 0 56 38h19q-3 -54 -31.5 -78.5t-65.5 -24.5zM289 -12q-109 0 -179.5 73t-70.5 186q0 112 70.5 185.5t179.5 73.5t179.5 -73.5t70.5 -185.5q0 -113 -70.5 -186
t-179.5 -73zM289 34q133 0 133 213t-133 213t-133 -213t133 -213z" />
    <glyph glyph-name="odieresis" unicode="&#xf6;" horiz-adv-x="578" 
d="M191 583q-25 0 -42.5 17.5t-17.5 43.5t17.5 43t42.5 17q26 0 43.5 -17t17.5 -43t-17.5 -43.5t-43.5 -17.5zM386 583q-26 0 -43.5 17.5t-17.5 43.5t17.5 43t43.5 17t43 -17t17 -43t-17 -43.5t-43 -17.5zM289 -12q-109 0 -179.5 73t-70.5 186q0 112 70.5 185.5t179.5 73.5
t179.5 -73.5t70.5 -185.5q0 -113 -70.5 -186t-179.5 -73zM289 34q133 0 133 213t-133 213t-133 -213t133 -213z" />
    <glyph glyph-name="divide" unicode="&#xf7;" 
d="M290 403q-22 0 -39 16.5t-17 39.5t17 39.5t39 16.5t39 -16.5t17 -39.5t-17 -39.5t-39 -16.5zM90 285v43h399v-43h-399zM290 98q-22 0 -39 17t-17 39t17 39t39 17t39 -17t17 -39t-17 -39t-39 -17z" />
    <glyph glyph-name="oslash" unicode="&#xf8;" horiz-adv-x="578" 
d="M453 447q86 -73 86 -200q0 -113 -70.5 -186t-179.5 -73q-79 0 -141 41l-33 -45h-40l47 65q-83 73 -83 198q0 112 70.5 185.5t179.5 73.5q77 0 138 -39l36 50h41zM156 247q0 -79 18 -128l212 292q-33 49 -97 49q-133 0 -133 -213zM289 34q133 0 133 213q0 79 -19 131
l-213 -292q33 -52 99 -52z" />
    <glyph glyph-name="ugrave" unicode="&#xf9;" horiz-adv-x="598" 
d="M257 582l-138 139v23h92l79 -162h-33zM574 29v-29h-168v38q0 43 12 79l-6 2q-18 -61 -64.5 -96t-101.5 -35q-69 0 -111 41.5t-42 119.5v240q0 32 -16 40.5t-63 8.5v30l157 26h23v-322q0 -109 98 -109q34 0 64 19t42 50v257q0 32 -15.5 40t-63.5 8v31l157 26h23v-408
q0 -29 16 -40.5t59 -16.5z" />
    <glyph glyph-name="uacute" unicode="&#xfa;" horiz-adv-x="598" 
d="M290 582h-33l75 162h92v-23zM574 29v-29h-168v38q0 43 12 79l-6 2q-18 -61 -64.5 -96t-101.5 -35q-69 0 -111 41.5t-42 119.5v240q0 32 -16 40.5t-63 8.5v30l157 26h23v-322q0 -109 98 -109q34 0 64 19t42 50v257q0 32 -15.5 40t-63.5 8v31l157 26h23v-408
q0 -29 16 -40.5t59 -16.5z" />
    <glyph glyph-name="ucircumflex" unicode="&#xfb;" horiz-adv-x="598" 
d="M147 582l109 158h35l109 -158h-36l-90 85l-91 -85h-36zM574 29v-29h-168v38q0 43 12 79l-6 2q-18 -61 -64.5 -96t-101.5 -35q-69 0 -111 41.5t-42 119.5v240q0 32 -16 40.5t-63 8.5v30l157 26h23v-322q0 -109 98 -109q34 0 64 19t42 50v257q0 32 -15.5 40t-63.5 8v31
l157 26h23v-408q0 -29 16 -40.5t59 -16.5z" />
    <glyph glyph-name="udieresis" unicode="&#xfc;" horiz-adv-x="598" 
d="M176 583q-25 0 -42.5 17.5t-17.5 43.5t17.5 43t42.5 17q26 0 43.5 -17t17.5 -43t-17.5 -43.5t-43.5 -17.5zM371 583q-26 0 -43.5 17.5t-17.5 43.5t17.5 43t43.5 17t43 -17t17 -43t-17 -43.5t-43 -17.5zM574 29v-29h-168v38q0 43 12 79l-6 2q-18 -61 -64.5 -96t-101.5 -35
q-69 0 -111 41.5t-42 119.5v240q0 32 -16 40.5t-63 8.5v30l157 26h23v-322q0 -109 98 -109q34 0 64 19t42 50v257q0 32 -15.5 40t-63.5 8v31l157 26h23v-408q0 -29 16 -40.5t59 -16.5z" />
    <glyph glyph-name="yacute" unicode="&#xfd;" horiz-adv-x="548" 
d="M320 582h-33l75 162h92v-23zM83 -237q-44 0 -77 15v113h25q34 -25 88 -25q85 0 127 71l12 23l-193 449q-15 36 -25.5 45.5t-33.5 9.5v30h253v-30q-78 0 -78 -46q0 -14 8 -33l94 -229q17 -41 17 -82l5 -1q4 27 18 65l93 238q9 23 9 37q0 51 -77 51v30h195v-30
q-36 0 -59 -55l-205 -492q-37 -88 -86 -121t-110 -33z" />
    <glyph glyph-name="thorn" unicode="&#xfe;" horiz-adv-x="590" 
d="M24 -225v29q50 5 65.5 18t15.5 52v772q0 28 -9.5 39t-34.5 11q-15 0 -35 -3v27l151 40h29v-289q0 -45 -19 -94l5 -1q21 62 66.5 96t103.5 34q88 0 141 -62t53 -167q0 -137 -74.5 -213t-176.5 -76q-53 0 -99 26v-139q0 -41 20.5 -53.5t82.5 -17.5v-29h-285zM304 33
q64 0 104 55t40 151q0 89 -31.5 142t-99.5 53q-37 0 -66.5 -18.5t-44.5 -48.5v-293q41 -41 98 -41z" />
    <glyph glyph-name="ydieresis" unicode="&#xff;" horiz-adv-x="548" 
d="M206 583q-25 0 -42.5 17.5t-17.5 43.5t17.5 43t42.5 17q26 0 43.5 -17t17.5 -43t-17.5 -43.5t-43.5 -17.5zM401 583q-26 0 -43.5 17.5t-17.5 43.5t17.5 43t43.5 17t43 -17t17 -43t-17 -43.5t-43 -17.5zM83 -237q-44 0 -77 15v113h25q34 -25 88 -25q85 0 127 71l12 23
l-193 449q-15 36 -25.5 45.5t-33.5 9.5v30h253v-30q-78 0 -78 -46q0 -14 8 -33l94 -229q17 -41 17 -82l5 -1q4 27 18 65l93 238q9 23 9 37q0 51 -77 51v30h195v-30q-36 0 -59 -55l-205 -492q-37 -88 -86 -121t-110 -33z" />
    <glyph glyph-name="Amacron" unicode="&#x100;" horiz-adv-x="740" 
d="M531 840v-55h-329v55h329zM638 124q19 -49 41 -69.5t51 -24.5v-30h-287v31q62 2 78 21t-3 75l-45 126h-260l-44 -120q-19 -59 -4 -79.5t71 -22.5v-31h-227v30q41 4 61.5 25.5t41.5 77.5l204 550l101 39zM227 293h231l-53 147q-59 161 -59 194h-5q-1 -32 -61 -195z" />
    <glyph glyph-name="amacron" unicode="&#x101;" horiz-adv-x="531" 
d="M380 662v-45h-262v45h262zM498 83l20 -13q-25 -80 -103 -80q-40 0 -64.5 23t-25.5 68h-7q-10 -39 -46.5 -66t-89.5 -27q-64 0 -101.5 33t-37.5 95q0 118 178 153l100 20v29q0 113 -108 113q-95 0 -128 -80l-30 10q14 63 61.5 104t131.5 41q82 0 128 -46.5t46 -139.5v-210
q0 -50 38 -50q25 0 38 23zM230 49q67 0 91 77v126l-51 -9q-118 -24 -118 -110q0 -39 20.5 -61.5t57.5 -22.5z" />
    <glyph glyph-name="Abreve" unicode="&#x102;" horiz-adv-x="740" 
d="M367 759q-60 0 -97.5 37t-37.5 110h29q3 -45 32 -67t74 -22t74 22t32 67h29q0 -73 -37.5 -110t-97.5 -37zM638 124q19 -49 41 -69.5t51 -24.5v-30h-287v31q62 2 78 21t-3 75l-45 126h-260l-44 -120q-19 -59 -4 -79.5t71 -22.5v-31h-227v30q41 4 61.5 25.5t41.5 77.5
l204 550l101 39zM227 293h231l-53 147q-59 161 -59 194h-5q-1 -32 -61 -195z" />
    <glyph glyph-name="abreve" unicode="&#x103;" horiz-adv-x="531" 
d="M250 574q-53 0 -85 39t-32 117h29q2 -48 26 -72t62 -24q37 0 61.5 24.5t26.5 71.5h29q0 -78 -32 -117t-85 -39zM498 83l20 -13q-25 -80 -103 -80q-40 0 -64.5 23t-25.5 68h-7q-10 -39 -46.5 -66t-89.5 -27q-64 0 -101.5 33t-37.5 95q0 118 178 153l100 20v29
q0 113 -108 113q-95 0 -128 -80l-30 10q14 63 61.5 104t131.5 41q82 0 128 -46.5t46 -139.5v-210q0 -50 38 -50q25 0 38 23zM230 49q67 0 91 77v126l-51 -9q-118 -24 -118 -110q0 -39 20.5 -61.5t57.5 -22.5z" />
    <glyph glyph-name="Aogonek" unicode="&#x104;" horiz-adv-x="740" 
d="M444 0q-45 -14 -70.5 -46t-25.5 -67q0 -27 14.5 -43t41.5 -16q42 0 58 41l21 -10q-10 -44 -38.5 -70t-66.5 -26q-44 0 -70 27t-26 77q0 57 45 105t116 57v2q62 2 78 21t-3 75l-45 126h-260l-44 -120q-19 -59 -4 -79.5t71 -22.5v-31h-227v30q41 4 61.5 25.5t41.5 77.5
l204 550l101 39l221 -598q19 -49 41 -69.5t51 -24.5v-30h-286zM227 293h231l-53 147q-59 161 -59 194h-5q-1 -32 -61 -195z" />
    <glyph glyph-name="aogonek" unicode="&#x105;" horiz-adv-x="531" 
d="M411 -10q-34 -17 -53 -45.5t-19 -57.5q0 -27 14.5 -43t41.5 -16q42 0 58 41l21 -10q-10 -44 -38.5 -70t-66.5 -26q-44 0 -70 27t-26 77q0 40 23.5 77.5t64.5 60.5q-34 22 -36 76h-7q-10 -39 -46.5 -66t-89.5 -27q-64 0 -101.5 33t-37.5 95q0 118 178 153l100 20v29
q0 113 -108 113q-95 0 -128 -80l-30 10q14 63 61.5 104t131.5 41q82 0 128 -46.5t46 -139.5v-210q0 -50 38 -50q25 0 38 23l20 -13q-25 -80 -103 -80h-4zM230 49q67 0 91 77v126l-51 -9q-118 -24 -118 -110q0 -39 20.5 -61.5t57.5 -22.5z" />
    <glyph glyph-name="Cacute" unicode="&#x106;" horiz-adv-x="688" 
d="M430 751h-49l90 139h90v-26zM380 -17q-147 0 -239.5 99.5t-92.5 257.5q0 173 98.5 275t264.5 102q135 0 215 -46v-201h-36q-42 184 -209 184q-106 0 -165.5 -69.5t-59.5 -193.5q0 -136 73 -217t195 -81q136 0 199 117l31 -14q-28 -101 -99.5 -157t-174.5 -56z" />
    <glyph glyph-name="cacute" unicode="&#x107;" horiz-adv-x="487" 
d="M298 582h-33l75 162h92v-23zM266 -12q-102 0 -164.5 68t-62.5 180q0 114 66 192t181 78q83 0 150 -30v-142h-34q-30 114 -136 114q-66 0 -102 -43t-36 -120q0 -90 49 -144.5t130 -54.5q85 0 124 65l26 -12q-16 -66 -64.5 -108.5t-126.5 -42.5z" />
    <glyph glyph-name="Ccircumflex" unicode="&#x108;" horiz-adv-x="688" 
d="M431 890l143 -139h-51l-117 74l-117 -74h-51l143 139h50zM380 -17q-147 0 -239.5 99.5t-92.5 257.5q0 173 98.5 275t264.5 102q135 0 215 -46v-201h-36q-42 184 -209 184q-106 0 -165.5 -69.5t-59.5 -193.5q0 -136 73 -217t195 -81q136 0 199 117l31 -14
q-28 -101 -99.5 -157t-174.5 -56z" />
    <glyph glyph-name="ccircumflex" unicode="&#x109;" horiz-adv-x="487" 
d="M155 582l109 158h35l109 -158h-36l-90 85l-91 -85h-36zM266 -12q-102 0 -164.5 68t-62.5 180q0 114 66 192t181 78q83 0 150 -30v-142h-34q-30 114 -136 114q-66 0 -102 -43t-36 -120q0 -90 49 -144.5t130 -54.5q85 0 124 65l26 -12q-16 -66 -64.5 -108.5t-126.5 -42.5z
" />
    <glyph glyph-name="Cdotaccent" unicode="&#x10a;" horiz-adv-x="688" 
d="M406 766q-26 0 -44.5 18.5t-18.5 44.5t18.5 44.5t44.5 18.5t44.5 -18.5t18.5 -44.5t-18.5 -44.5t-44.5 -18.5zM380 -17q-147 0 -239.5 99.5t-92.5 257.5q0 173 98.5 275t264.5 102q135 0 215 -46v-201h-36q-42 184 -209 184q-106 0 -165.5 -69.5t-59.5 -193.5
q0 -136 73 -217t195 -81q136 0 199 117l31 -14q-28 -101 -99.5 -157t-174.5 -56z" />
    <glyph glyph-name="cdotaccent" unicode="&#x10b;" horiz-adv-x="487" 
d="M282 565q-31 0 -51.5 21t-20.5 51t20.5 50.5t51.5 20.5q30 0 50.5 -20.5t20.5 -50.5t-20.5 -51t-50.5 -21zM266 -12q-102 0 -164.5 68t-62.5 180q0 114 66 192t181 78q83 0 150 -30v-142h-34q-30 114 -136 114q-66 0 -102 -43t-36 -120q0 -90 49 -144.5t130 -54.5
q85 0 124 65l26 -12q-16 -66 -64.5 -108.5t-126.5 -42.5z" />
    <glyph glyph-name="Ccaron" unicode="&#x10c;" horiz-adv-x="688" 
d="M431 751h-50l-143 139h51l117 -75l117 75h51zM380 -17q-147 0 -239.5 99.5t-92.5 257.5q0 173 98.5 275t264.5 102q135 0 215 -46v-201h-36q-42 184 -209 184q-106 0 -165.5 -69.5t-59.5 -193.5q0 -136 73 -217t195 -81q136 0 199 117l31 -14q-28 -101 -99.5 -157
t-174.5 -56z" />
    <glyph glyph-name="ccaron" unicode="&#x10d;" horiz-adv-x="487" 
d="M264 582l-109 158h36l91 -86l90 86h36l-109 -158h-35zM266 -12q-102 0 -164.5 68t-62.5 180q0 114 66 192t181 78q83 0 150 -30v-142h-34q-30 114 -136 114q-66 0 -102 -43t-36 -120q0 -90 49 -144.5t130 -54.5q85 0 124 65l26 -12q-16 -66 -64.5 -108.5t-126.5 -42.5z
" />
    <glyph glyph-name="Dcaron" unicode="&#x10e;" horiz-adv-x="777" 
d="M399 751h-50l-143 139h51l117 -75l117 75h51zM43 0v30q58 3 77.5 25.5t19.5 85.5v418q0 64 -19.5 86t-77.5 25v30h299q183 0 282.5 -92.5t99.5 -257.5q0 -166 -96 -258t-280 -92h-305zM313 46h40q122 0 185 79t63 225q0 304 -269 304h-81v-546q0 -31 14 -46.5t48 -15.5z
" />
    <glyph glyph-name="dcaron" unicode="&#x10f;" horiz-adv-x="663" 
d="M560 29v-29h-169v37q0 42 13 81l-5 3q-44 -133 -168 -133q-88 0 -142.5 65.5t-54.5 168.5q0 127 73.5 205.5t185.5 78.5q55 0 90 -23v161q0 26 -10.5 37.5t-35.5 11.5q-23 0 -57 -7v27l175 47h30v-674q0 -29 16 -40.5t59 -16.5zM528 581l-2 20q60 9 60 41q0 13 -7.5 17.5
t-26.5 9.5q-38 11 -38 44q0 20 13 33t35 13q29 0 47.5 -21t18.5 -60q0 -42 -29.5 -67.5t-70.5 -29.5zM383 130v298q-27 36 -90 36q-69 0 -110 -54t-41 -149q0 -88 36.5 -139t99.5 -51q72 0 105 59z" />
    <glyph glyph-name="Dcroat" unicode="&#x110;" horiz-adv-x="777" 
d="M342 700q183 0 282.5 -92.5t99.5 -257.5q0 -166 -96 -258t-280 -92h-305v30q58 3 77.5 25.5t19.5 85.5v202h-86v31h86v185q0 64 -19.5 86t-77.5 25v30h299zM353 46q122 0 185 79t63 225q0 304 -269 304h-81v-280h175v-31h-175v-235q0 -31 14 -46.5t48 -15.5h40z" />
    <glyph glyph-name="dcroat" unicode="&#x111;" horiz-adv-x="583" 
d="M485 86q0 -29 16 -40.5t59 -16.5v-29h-169v37q0 42 13 81l-5 3q-44 -133 -168 -133q-88 0 -142.5 65.5t-54.5 168.5q0 127 73.5 205.5t185.5 78.5q55 0 90 -23v109h-203v31h203v21q0 26 -10.5 37.5t-35.5 11.5q-23 0 -57 -7v27l175 47h30v-137h67v-31h-67v-506zM383 130
v298q-27 36 -90 36q-69 0 -110 -54t-41 -149q0 -88 36.5 -139t99.5 -51q72 0 105 59z" />
    <glyph glyph-name="Emacron" unicode="&#x112;" horiz-adv-x="681" 
d="M216 785h329v55h-329v-55zM600 223h35l-23 -223h-569v30q58 3 77.5 25.5t19.5 85.5v418q0 64 -19.5 86t-77.5 25v30h555l19 -203h-35q-24 93 -70 128.5t-144 35.5h-117v-273h71q64 0 88 24.5t33 94.5h30v-280h-30q-10 72 -34 96.5t-87 24.5h-71v-248q0 -30 14 -45.5
t48 -15.5h61q105 0 150.5 38.5t75.5 145.5z" />
    <glyph glyph-name="emacron" unicode="&#x113;" horiz-adv-x="498" 
d="M393 662v-45h-262v45h262zM301 86q92 0 130 64l27 -14q-16 -61 -66.5 -104.5t-128.5 -43.5q-104 0 -164 69t-60 181q0 118 60 193t164 75q93 0 144 -58.5t51 -159.5h-331q5 -95 50.5 -148.5t123.5 -53.5zM243 463q-53 0 -83 -36t-34 -101h213q0 137 -96 137z" />
    <glyph glyph-name="Ebreve" unicode="&#x114;" horiz-adv-x="681" 
d="M487 906h29q0 -73 -37.5 -110t-97.5 -37t-97.5 37t-37.5 110h29q3 -45 32 -67t74 -22t74 22t32 67zM600 223h35l-23 -223h-569v30q58 3 77.5 25.5t19.5 85.5v418q0 64 -19.5 86t-77.5 25v30h555l19 -203h-35q-24 93 -70 128.5t-144 35.5h-117v-273h71q64 0 88 24.5
t33 94.5h30v-280h-30q-10 72 -34 96.5t-87 24.5h-71v-248q0 -30 14 -45.5t48 -15.5h61q105 0 150.5 38.5t75.5 145.5z" />
    <glyph glyph-name="ebreve" unicode="&#x115;" horiz-adv-x="498" 
d="M262 574q-53 0 -85 39t-32 117h29q2 -48 26 -72t62 -24q37 0 61.5 24.5t26.5 71.5h29q0 -78 -32 -117t-85 -39zM301 86q92 0 130 64l27 -14q-16 -61 -66.5 -104.5t-128.5 -43.5q-104 0 -164 69t-60 181q0 118 60 193t164 75q93 0 144 -58.5t51 -159.5h-331
q5 -95 50.5 -148.5t123.5 -53.5zM243 463q-53 0 -83 -36t-34 -101h213q0 137 -96 137z" />
    <glyph glyph-name="Edotaccent" unicode="&#x116;" horiz-adv-x="681" 
d="M381 766q-26 0 -44.5 18.5t-18.5 44.5t18.5 44.5t44.5 18.5t44.5 -18.5t18.5 -44.5t-18.5 -44.5t-44.5 -18.5zM600 223h35l-23 -223h-569v30q58 3 77.5 25.5t19.5 85.5v418q0 64 -19.5 86t-77.5 25v30h555l19 -203h-35q-24 93 -70 128.5t-144 35.5h-117v-273h71
q64 0 88 24.5t33 94.5h30v-280h-30q-10 72 -34 96.5t-87 24.5h-71v-248q0 -30 14 -45.5t48 -15.5h61q105 0 150.5 38.5t75.5 145.5z" />
    <glyph glyph-name="edotaccent" unicode="&#x117;" horiz-adv-x="498" 
d="M262 565q-31 0 -51.5 21t-20.5 51t20.5 50.5t51.5 20.5q30 0 50.5 -20.5t20.5 -50.5t-20.5 -51t-50.5 -21zM301 86q92 0 130 64l27 -14q-16 -61 -66.5 -104.5t-128.5 -43.5q-104 0 -164 69t-60 181q0 118 60 193t164 75q93 0 144 -58.5t51 -159.5h-331q5 -95 50.5 -148.5
t123.5 -53.5zM243 463q-53 0 -83 -36t-34 -101h213q0 137 -96 137z" />
    <glyph glyph-name="Eogonek" unicode="&#x118;" horiz-adv-x="681" 
d="M534 0q-45 -14 -70.5 -46t-25.5 -67q0 -27 14.5 -43t41.5 -16q42 0 58 41l21 -10q-10 -44 -38.5 -70t-66.5 -26q-44 0 -70 27t-26 77q0 38 21.5 73.5t58.5 59.5h-409v30q58 3 77.5 25.5t19.5 85.5v418q0 64 -19.5 86t-77.5 25v30h555l19 -203h-35q-24 93 -70 128.5
t-144 35.5h-117v-273h71q64 0 88 24.5t33 94.5h30v-280h-30q-10 72 -34 96.5t-87 24.5h-71v-248q0 -30 14 -45.5t48 -15.5h61q105 0 150.5 38.5t75.5 145.5h35l-23 -223h-78z" />
    <glyph glyph-name="eogonek" unicode="&#x119;" horiz-adv-x="498" 
d="M301 86q92 0 130 64l27 -14q-12 -47 -46 -85t-86 -54q-41 -16 -64 -46.5t-23 -63.5q0 -27 14.5 -43t41.5 -16q42 0 58 41l21 -10q-10 -44 -38.5 -70t-66.5 -26q-44 0 -70 27t-26 77q0 71 64 122q-92 9 -145 77t-53 172q0 118 60 193t164 75q93 0 144 -58.5t51 -159.5
h-331q5 -95 50.5 -148.5t123.5 -53.5zM243 463q-53 0 -83 -36t-34 -101h213q0 137 -96 137z" />
    <glyph glyph-name="Ecaron" unicode="&#x11a;" horiz-adv-x="681" 
d="M406 751h-50l-143 139h51l117 -75l117 75h51zM600 223h35l-23 -223h-569v30q58 3 77.5 25.5t19.5 85.5v418q0 64 -19.5 86t-77.5 25v30h555l19 -203h-35q-24 93 -70 128.5t-144 35.5h-117v-273h71q64 0 88 24.5t33 94.5h30v-280h-30q-10 72 -34 96.5t-87 24.5h-71v-248
q0 -30 14 -45.5t48 -15.5h61q105 0 150.5 38.5t75.5 145.5z" />
    <glyph glyph-name="ecaron" unicode="&#x11b;" horiz-adv-x="498" 
d="M279 582h-35l-109 158h36l91 -86l90 86h36zM301 86q92 0 130 64l27 -14q-16 -61 -66.5 -104.5t-128.5 -43.5q-104 0 -164 69t-60 181q0 118 60 193t164 75q93 0 144 -58.5t51 -159.5h-331q5 -95 50.5 -148.5t123.5 -53.5zM243 463q-53 0 -83 -36t-34 -101h213
q0 137 -96 137z" />
    <glyph glyph-name="Gcircumflex" unicode="&#x11c;" horiz-adv-x="766" 
d="M457 890l143 -139h-51l-117 74l-117 -74h-51l143 139h50zM743 323v-29q-35 0 -49 -18t-14 -62v-149q-110 -82 -257 -82q-162 0 -268.5 104t-106.5 263q0 165 110 266t286 101q137 0 224 -40v-181h-33q-40 169 -217 169q-114 0 -179 -83t-65 -231q0 -144 66.5 -227.5
t181.5 -83.5q50 0 92.5 18.5t59.5 47.5v107q-1 41 -28.5 59t-91.5 20l-23 1v30h312z" />
    <glyph glyph-name="gcircumflex" unicode="&#x11d;" horiz-adv-x="556" 
d="M263 667l-91 -85h-36l109 158h35l109 -158h-36zM486 438q-43 0 -92 23l-4 -6q79 -27 79 -120q0 -75 -57.5 -121t-148.5 -46q-39 0 -77 10q-53 -6 -53 -47q0 -42 73 -47l161 -9q157 -8 157 -124q0 -77 -68 -132.5t-207 -55.5q-100 0 -159 33.5t-59 84.5q0 77 104 104v6
q-37 11 -57.5 37t-20.5 60q0 32 22 59.5t64 41.5v7q-40 21 -63 57.5t-23 82.5q0 75 58 122.5t148 47.5q45 0 83 -12h178v-56h-38zM263 204q46 0 73 32.5t27 99.5t-27 100.5t-73 33.5t-73 -33.5t-27 -100.5t27 -99.5t73 -32.5zM346 -24l-169 8q-6 0 -9 1q-48 -24 -48 -74
q0 -46 47 -72.5t131 -26.5q75 0 116 24t41 65q0 72 -109 75z" />
    <glyph glyph-name="Gbreve" unicode="&#x11e;" horiz-adv-x="766" 
d="M538 906h29q0 -73 -37.5 -110t-97.5 -37t-97.5 37t-37.5 110h29q3 -45 32 -67t74 -22t74 22t32 67zM743 323v-29q-35 0 -49 -18t-14 -62v-149q-110 -82 -257 -82q-162 0 -268.5 104t-106.5 263q0 165 110 266t286 101q137 0 224 -40v-181h-33q-40 169 -217 169
q-114 0 -179 -83t-65 -231q0 -144 66.5 -227.5t181.5 -83.5q50 0 92.5 18.5t59.5 47.5v107q-1 41 -28.5 59t-91.5 20l-23 1v30h312z" />
    <glyph glyph-name="gbreve" unicode="&#x11f;" horiz-adv-x="556" 
d="M262 574q-53 0 -85 39t-32 117h29q2 -48 26 -72t62 -24q37 0 61.5 24.5t26.5 71.5h29q0 -78 -32 -117t-85 -39zM486 438q-43 0 -92 23l-4 -6q79 -27 79 -120q0 -75 -57.5 -121t-148.5 -46q-39 0 -77 10q-53 -6 -53 -47q0 -42 73 -47l161 -9q157 -8 157 -124
q0 -77 -68 -132.5t-207 -55.5q-100 0 -159 33.5t-59 84.5q0 77 104 104v6q-37 11 -57.5 37t-20.5 60q0 32 22 59.5t64 41.5v7q-40 21 -63 57.5t-23 82.5q0 75 58 122.5t148 47.5q45 0 83 -12h178v-56h-38zM263 204q46 0 73 32.5t27 99.5t-27 100.5t-73 33.5t-73 -33.5
t-27 -100.5t27 -99.5t73 -32.5zM346 -24l-169 8q-6 0 -9 1q-48 -24 -48 -74q0 -46 47 -72.5t131 -26.5q75 0 116 24t41 65q0 72 -109 75z" />
    <glyph glyph-name="Gdotaccent" unicode="&#x120;" horiz-adv-x="766" 
d="M432 766q-26 0 -44.5 18.5t-18.5 44.5t18.5 44.5t44.5 18.5t44.5 -18.5t18.5 -44.5t-18.5 -44.5t-44.5 -18.5zM743 323v-29q-35 0 -49 -18t-14 -62v-149q-110 -82 -257 -82q-162 0 -268.5 104t-106.5 263q0 165 110 266t286 101q137 0 224 -40v-181h-33q-40 169 -217 169
q-114 0 -179 -83t-65 -231q0 -144 66.5 -227.5t181.5 -83.5q50 0 92.5 18.5t59.5 47.5v107q-1 41 -28.5 59t-91.5 20l-23 1v30h312z" />
    <glyph glyph-name="gdotaccent" unicode="&#x121;" horiz-adv-x="556" 
d="M263 565q-31 0 -51.5 21t-20.5 51t20.5 50.5t51.5 20.5q30 0 50.5 -20.5t20.5 -50.5t-20.5 -51t-50.5 -21zM486 438q-43 0 -92 23l-4 -6q79 -27 79 -120q0 -75 -57.5 -121t-148.5 -46q-39 0 -77 10q-53 -6 -53 -47q0 -42 73 -47l161 -9q157 -8 157 -124q0 -77 -68 -132.5
t-207 -55.5q-100 0 -159 33.5t-59 84.5q0 77 104 104v6q-37 11 -57.5 37t-20.5 60q0 32 22 59.5t64 41.5v7q-40 21 -63 57.5t-23 82.5q0 75 58 122.5t148 47.5q45 0 83 -12h178v-56h-38zM263 204q46 0 73 32.5t27 99.5t-27 100.5t-73 33.5t-73 -33.5t-27 -100.5t27 -99.5
t73 -32.5zM346 -24l-169 8q-6 0 -9 1q-48 -24 -48 -74q0 -46 47 -72.5t131 -26.5q75 0 116 24t41 65q0 72 -109 75z" />
    <glyph glyph-name="uni0122" unicode="&#x122;" horiz-adv-x="766" 
d="M743 323v-29q-35 0 -49 -18t-14 -62v-149q-110 -82 -257 -82q-162 0 -268.5 104t-106.5 263q0 165 110 266t286 101q137 0 224 -40v-181h-33q-40 169 -217 169q-114 0 -179 -83t-65 -231q0 -144 66.5 -227.5t181.5 -83.5q50 0 92.5 18.5t59.5 47.5v107q-1 41 -28.5 59
t-91.5 20l-23 1v30h312zM359 -231l-2 19q58 9 58 40q0 11 -7 16.5t-24 12.5q-34 13 -34 49q0 21 14.5 34.5t37.5 13.5q26 0 43.5 -21t17.5 -53q0 -44 -29 -75t-75 -36z" />
    <glyph glyph-name="uni0123" unicode="&#x123;" horiz-adv-x="556" 
d="M261 555q-28 0 -46 21t-18 54q0 45 28.5 74t75.5 32l3 -25q-52 -6 -52 -29q0 -17 35 -30q30 -14 30 -48q0 -21 -15.5 -35t-40.5 -14zM486 438q-43 0 -92 23l-4 -6q79 -27 79 -120q0 -75 -57.5 -121t-148.5 -46q-39 0 -77 10q-53 -6 -53 -47q0 -42 73 -47l161 -9
q157 -8 157 -124q0 -77 -68 -132.5t-207 -55.5q-100 0 -159 33.5t-59 84.5q0 77 104 104v6q-37 11 -57.5 37t-20.5 60q0 32 22 59.5t64 41.5v7q-40 21 -63 57.5t-23 82.5q0 75 58 122.5t148 47.5q45 0 83 -12h178v-56h-38zM263 204q46 0 73 32.5t27 99.5t-27 100.5t-73 33.5
t-73 -33.5t-27 -100.5t27 -99.5t73 -32.5zM346 -24l-169 8q-6 0 -9 1q-48 -24 -48 -74q0 -46 47 -72.5t131 -26.5q75 0 116 24t41 65q0 72 -109 75z" />
    <glyph glyph-name="Hcircumflex" unicode="&#x124;" horiz-adv-x="840" 
d="M444 890l143 -139h-51l-117 74l-117 -74h-51l143 139h50zM700 559v-418q0 -64 19.5 -85t77.5 -26v-30h-303v30q58 5 76.5 26t18.5 85v200h-338v-200q0 -65 19 -85.5t76 -25.5v-30h-303v30q59 5 78 26t19 85v418q0 64 -19.5 85t-77.5 26v30h303v-30q-58 -5 -76.5 -26
t-18.5 -85v-173h338v173q0 65 -19 85.5t-76 25.5v30h303v-30q-59 -5 -78 -26t-19 -85z" />
    <glyph glyph-name="hcircumflex" unicode="&#x125;" horiz-adv-x="622" 
d="M160 920l143 -139h-51l-117 74l-117 -74h-51l143 139h50zM24 0v29q50 5 65.5 18t15.5 52v545q0 31 -9 41.5t-36 10.5q-14 0 -34 -3v27l151 40h29v-241q0 -84 -19 -144l5 -2q20 63 65.5 98t110.5 35q71 0 112.5 -42t41.5 -131v-233q0 -40 15.5 -52.5t65.5 -18.5v-29h-245
v29q37 7 50 19.5t13 40.5v229q0 57 -27 85.5t-73 28.5q-80 0 -115 -70v-263q0 -38 13 -51t52 -19v-29h-247z" />
    <glyph glyph-name="Hbar" unicode="&#x126;" horiz-adv-x="840" 
d="M797 670q-59 -5 -78 -26t-19 -85v-34h69v-33h-69v-351q0 -64 19.5 -85t77.5 -26v-30h-303v30q58 5 76.5 26t18.5 85v200h-338v-200q0 -65 19 -85.5t76 -25.5v-30h-303v30q59 5 78 26t19 85v351h-72v33h72v34q0 64 -19.5 85t-77.5 26v30h303v-30q-58 -5 -76.5 -26
t-18.5 -85v-34h338v34q0 65 -19 85.5t-76 25.5v30h303v-30zM589 386v106h-338v-106h338z" />
    <glyph glyph-name="hbar" unicode="&#x127;" horiz-adv-x="622" 
d="M522 100q0 -40 15.5 -52.5t65.5 -18.5v-29h-245v29q37 7 50 19.5t13 40.5v229q0 57 -27 85.5t-73 28.5q-80 0 -115 -70v-263q0 -38 13 -51t52 -19v-29h-247v29q50 5 65.5 18t15.5 52v493h-78v31h78v21q0 31 -9 41.5t-36 10.5q-14 0 -34 -3v27l151 40h29v-137h193v-31
h-193v-73q0 -84 -19 -144l5 -2q20 63 65.5 98t110.5 35q71 0 112.5 -42t41.5 -131v-233z" />
    <glyph glyph-name="Itilde" unicode="&#x128;" horiz-adv-x="391" 
d="M255 763q-29 0 -63 19.5t-57 19.5q-43 0 -66 -39h-26q3 57 34 83t71 26q30 0 63 -19.5t57 -19.5q44 0 66 40h26q-3 -58 -34 -84t-71 -26zM251 559v-418q0 -63 20 -84.5t77 -26.5v-30h-305v30q59 5 78 26.5t19 84.5v418q0 63 -19.5 84.5t-77.5 26.5v30h305v-30
q-61 -6 -79 -26t-18 -85z" />
    <glyph glyph-name="itilde" unicode="&#x129;" horiz-adv-x="318" 
d="M204 592q-28 0 -60.5 20t-53.5 20q-37 0 -57 -39h-18q3 55 31.5 79.5t65.5 24.5q28 0 60 -20t54 -20q37 0 56 38h19q-3 -54 -31.5 -78.5t-65.5 -24.5zM295 29v-29h-263v29q49 4 65 17.5t16 52.5v277q0 26 -11 37t-36 11q-8 0 -38 -2v29l154 43h32v-394q0 -40 16 -53
t65 -18z" />
    <glyph glyph-name="Imacron" unicode="&#x12a;" horiz-adv-x="391" 
d="M31 785h329v55h-329v-55zM251 559v-418q0 -63 20 -84.5t77 -26.5v-30h-305v30q59 5 78 26.5t19 84.5v418q0 63 -19.5 84.5t-77.5 26.5v30h305v-30q-61 -6 -79 -26t-18 -85z" />
    <glyph glyph-name="imacron" unicode="&#x12b;" horiz-adv-x="318" 
d="M27 617v45h262v-45h-262zM295 29v-29h-263v29q49 4 65 17.5t16 52.5v277q0 26 -11 37t-36 11q-8 0 -38 -2v29l154 43h32v-394q0 -40 16 -53t65 -18z" />
    <glyph glyph-name="Ibreve" unicode="&#x12c;" horiz-adv-x="391" 
d="M302 906h29q0 -73 -37.5 -110t-97.5 -37t-97.5 37t-37.5 110h29q3 -45 32 -67t74 -22t74 22t32 67zM251 559v-418q0 -63 20 -84.5t77 -26.5v-30h-305v30q59 5 78 26.5t19 84.5v418q0 63 -19.5 84.5t-77.5 26.5v30h305v-30q-61 -6 -79 -26t-18 -85z" />
    <glyph glyph-name="ibreve" unicode="&#x12d;" horiz-adv-x="318" 
d="M246 730h29q0 -78 -32 -117t-85 -39t-85 39t-32 117h29q2 -48 26 -72t62 -24q37 0 61.5 24.5t26.5 71.5zM295 29v-29h-263v29q49 4 65 17.5t16 52.5v277q0 26 -11 37t-36 11q-8 0 -38 -2v29l154 43h32v-394q0 -40 16 -53t65 -18z" />
    <glyph glyph-name="Iogonek" unicode="&#x12e;" horiz-adv-x="391" 
d="M348 670q-61 -6 -79 -26t-18 -85v-418q0 -63 20 -84.5t77 -26.5v-30h-80q-45 -14 -70.5 -46t-25.5 -67q0 -27 14.5 -43t41.5 -16q42 0 58 41l21 -10q-10 -44 -38.5 -70t-66.5 -26q-44 0 -70 27t-26 77q0 38 21.5 73.5t58.5 59.5h-143v30q59 5 78 26.5t19 84.5v418
q0 63 -19.5 84.5t-77.5 26.5v30h305v-30z" />
    <glyph glyph-name="iogonek" unicode="&#x12f;" horiz-adv-x="318" 
d="M159 565q-31 0 -51.5 21t-20.5 51t20.5 50.5t51.5 20.5q30 0 50.5 -20.5t20.5 -50.5t-20.5 -51t-50.5 -21zM219 0q-45 -14 -70.5 -46t-25.5 -67q0 -27 14.5 -43t41.5 -16q42 0 58 41l21 -10q-10 -44 -38.5 -70t-66.5 -26q-44 0 -70 27t-26 77q0 38 21.5 73.5t58.5 59.5
h-105v29q49 4 65 17.5t16 52.5v277q0 26 -11 37t-36 11q-8 0 -38 -2v29l154 43h32v-394q0 -40 16 -53t65 -18v-29h-76z" />
    <glyph glyph-name="Idotaccent" unicode="&#x130;" horiz-adv-x="391" 
d="M196 766q-26 0 -44.5 18.5t-18.5 44.5t18.5 44.5t44.5 18.5t44.5 -18.5t18.5 -44.5t-18.5 -44.5t-44.5 -18.5zM251 559v-418q0 -63 20 -84.5t77 -26.5v-30h-305v30q59 5 78 26.5t19 84.5v418q0 63 -19.5 84.5t-77.5 26.5v30h305v-30q-61 -6 -79 -26t-18 -85z" />
    <glyph glyph-name="dotlessi" unicode="&#x131;" horiz-adv-x="318" 
d="M295 29v-29h-263v29q49 4 65 17.5t16 52.5v277q0 26 -11 37t-36 11q-8 0 -38 -2v29l154 43h32v-394q0 -40 16 -53t65 -18z" />
    <glyph glyph-name="IJ" unicode="&#x132;" horiz-adv-x="746" 
d="M251 559v-418q0 -63 20 -84.5t77 -26.5v-30h-305v30q59 5 78 26.5t19 84.5v418q0 63 -19.5 84.5t-77.5 26.5v30h305v-30q-61 -6 -79 -26t-18 -85zM480 -170q-60 0 -101 32l14 34q27 -14 56 -14q40 0 59.5 28t19.5 67v582q0 63 -20 84.5t-77 26.5v30h306v-30
q-61 -5 -79 -25.5t-18 -85.5v-551q0 -97 -45 -137.5t-115 -40.5z" />
    <glyph glyph-name="ij" unicode="&#x133;" horiz-adv-x="617" 
d="M158 565q-31 0 -51.5 21t-20.5 51t20.5 50.5t51.5 20.5t51.5 -20.5t20.5 -50.5t-20.5 -51t-51.5 -21zM472 565q-31 0 -51.5 21t-20.5 51t20.5 50.5t51.5 20.5t51.5 -20.5t20.5 -50.5t-20.5 -51t-51.5 -21zM295 29v-29h-263v29q49 4 65 17.5t16 52.5v277q0 26 -11 37
t-36 11q-8 0 -38 -2v29l154 43h32v-394q0 -40 16 -53t65 -18zM387 -237q-54 0 -88 22l9 32q24 -10 49 -10q70 0 70 83v486q0 26 -10.5 37t-36.5 11q-6 0 -38 -2v29l154 43h32v-579q0 -81 -40 -116.5t-101 -35.5z" />
    <glyph glyph-name="Jcircumflex" unicode="&#x134;" horiz-adv-x="355" 
d="M222 890l143 -139h-51l-117 74l-117 -74h-51l143 139h50zM89 -170q-60 0 -101 32l14 34q27 -14 56 -14q40 0 59.5 28t19.5 67v582q0 63 -20 84.5t-77 26.5v30h306v-30q-61 -5 -79 -25.5t-18 -85.5v-551q0 -97 -45 -137.5t-115 -40.5z" />
    <glyph glyph-name="jcircumflex" unicode="&#x135;" horiz-adv-x="299" 
d="M28 582l109 158h35l109 -158h-36l-90 85l-91 -85h-36zM69 -237q-54 0 -88 22l9 32q24 -10 49 -10q70 0 70 83v486q0 26 -10.5 37t-36.5 11q-6 0 -38 -2v29l154 43h32v-579q0 -81 -40 -116.5t-101 -35.5z" />
    <glyph glyph-name="uni0136" unicode="&#x136;" horiz-adv-x="783" 
d="M251 141q0 -63 20 -84.5t77 -26.5v-30h-305v30q59 5 78 26.5t19 84.5v418q0 63 -19.5 84.5t-77.5 26.5v30h305v-30q-61 -6 -79 -26t-18 -85v-418zM640 95q55 -63 133 -66v-29h-207l-298 353l229 224q44 43 44 64q0 15 -15.5 22t-56.5 7v30h263v-30q-51 -2 -86 -21
t-71 -55l-198 -198zM371 -231l-2 19q58 9 58 40q0 11 -7 16.5t-24 12.5q-34 13 -34 49q0 21 14.5 34.5t37.5 13.5q26 0 43.5 -21t17.5 -53q0 -44 -29 -75t-75 -36z" />
    <glyph glyph-name="uni0137" unicode="&#x137;" horiz-adv-x="607" 
d="M24 0v29q51 6 66 18.5t15 51.5v545q0 30 -9 41t-34 11q-16 0 -36 -3v27l151 40h29v-661q0 -38 13 -51t52 -19v-29h-247zM441 0l-220 259l146 117q45 38 45 61q0 16 -12 21.5t-40 5.5v30h207v-30q-52 -7 -122 -66l-118 -97l1 -5l166 -192q28 -33 49.5 -50t53.5 -25v-29
h-156zM263 -231l-2 19q58 9 58 40q0 11 -7 16.5t-24 12.5q-34 13 -34 49q0 21 14.5 34.5t37.5 13.5q26 0 43.5 -21t17.5 -53q0 -44 -29 -75t-75 -36z" />
    <glyph glyph-name="kgreenlandic" unicode="&#x138;" horiz-adv-x="612" 
d="M211 99q0 -38 13 -51t52 -19v-29h-247v29q50 5 65.5 18t15.5 52v278q0 31 -9 42t-34 11q-17 0 -36 -3v27l151 40h29v-395zM499 104q28 -33 49.5 -50t53.5 -25v-29h-156l-220 259l140 116q46 38 46 60q0 17 -11 23t-36 6v30h207v-30q-52 -7 -122 -66l-118 -97l1 -5z" />
    <glyph glyph-name="Lacute" unicode="&#x139;" horiz-adv-x="641" 
d="M221 751h-49l90 139h90v-26zM579 242h31l-25 -242h-542v30q59 5 78 26.5t19 84.5v418q0 63 -19.5 84.5t-77.5 26.5v30h308v-30q-62 -6 -81 -25.5t-19 -82.5v-463q0 -30 14 -45.5t48 -15.5h62q83 0 125 43.5t79 160.5z" />
    <glyph glyph-name="lacute" unicode="&#x13a;" horiz-adv-x="311" 
d="M176 781h-49l90 139h90v-26zM287 29v-29h-263v29q50 5 65.5 18t15.5 52v545q0 29 -9 40.5t-32 11.5q-14 0 -38 -3v27l151 40h29v-660q0 -40 15.5 -52.5t65.5 -18.5z" />
    <glyph glyph-name="uni013B" unicode="&#x13b;" horiz-adv-x="641" 
d="M579 242h31l-25 -242h-542v30q59 5 78 26.5t19 84.5v418q0 63 -19.5 84.5t-77.5 26.5v30h308v-30q-62 -6 -81 -25.5t-19 -82.5v-463q0 -30 14 -45.5t48 -15.5h62q83 0 125 43.5t79 160.5zM277 -231l-2 19q58 9 58 40q0 11 -7 16.5t-24 12.5q-34 13 -34 49q0 21 14.5 34.5
t37.5 13.5q26 0 43.5 -21t17.5 -53q0 -44 -29 -75t-75 -36z" />
    <glyph glyph-name="uni013C" unicode="&#x13c;" horiz-adv-x="311" 
d="M287 29v-29h-263v29q50 5 65.5 18t15.5 52v545q0 29 -9 40.5t-32 11.5q-14 0 -38 -3v27l151 40h29v-660q0 -40 15.5 -52.5t65.5 -18.5zM111 -231l-2 19q58 9 58 40q0 11 -7 16.5t-24 12.5q-34 13 -34 49q0 21 14.5 34.5t37.5 13.5q26 0 43.5 -21t17.5 -53q0 -44 -29 -75
t-75 -36z" />
    <glyph glyph-name="Lcaron" unicode="&#x13d;" horiz-adv-x="641" 
d="M395 541l-2 20q60 9 60 41q0 13 -7.5 17.5t-26.5 9.5q-38 11 -38 44q0 20 13 33t35 13q29 0 47.5 -21t18.5 -60q0 -42 -29.5 -67.5t-70.5 -29.5zM579 242h31l-25 -242h-542v30q59 5 78 26.5t19 84.5v418q0 63 -19.5 84.5t-77.5 26.5v30h308v-30q-62 -6 -81 -25.5
t-19 -82.5v-463q0 -30 14 -45.5t48 -15.5h62q83 0 125 43.5t79 160.5z" />
    <glyph glyph-name="lcaron" unicode="&#x13e;" horiz-adv-x="391" 
d="M287 29v-29h-263v29q50 5 65.5 18t15.5 52v545q0 29 -9 40.5t-32 11.5q-14 0 -38 -3v27l151 40h29v-660q0 -40 15.5 -52.5t65.5 -18.5zM250 581l-2 20q60 9 60 41q0 13 -7.5 17.5t-26.5 9.5q-38 11 -38 44q0 20 13 33t35 13q29 0 47.5 -21t18.5 -60q0 -42 -29.5 -67.5
t-70.5 -29.5z" />
    <glyph glyph-name="Ldot" unicode="&#x13f;" horiz-adv-x="641" 
d="M579 242h31l-25 -242h-542v30q59 5 78 26.5t19 84.5v418q0 63 -19.5 84.5t-77.5 26.5v30h308v-30q-62 -6 -81 -25.5t-19 -82.5v-463q0 -30 14 -45.5t48 -15.5h62q83 0 125 43.5t79 160.5zM450 321q-32 0 -55 22.5t-23 54.5t23 55t55 23t54.5 -23t22.5 -55t-22.5 -54.5
t-54.5 -22.5z" />
    <glyph glyph-name="ldot" unicode="&#x140;" horiz-adv-x="382" 
d="M287 29v-29h-263v29q50 5 65.5 18t15.5 52v545q0 29 -9 40.5t-32 11.5q-14 0 -38 -3v27l151 40h29v-660q0 -40 15.5 -52.5t65.5 -18.5zM346 328q-32 0 -54 22t-22 54t22 54t54 22t54 -22t22 -54t-22 -54t-54 -22z" />
    <glyph glyph-name="Lslash" unicode="&#x141;" horiz-adv-x="641" 
d="M579 242h31l-25 -242h-542v30q59 5 78 26.5t19 84.5v195l-91 -47v41l91 47v182q0 63 -19.5 84.5t-77.5 26.5v30h308v-30q-62 -6 -81 -25.5t-19 -82.5v-127l212 110v-42l-212 -110v-294q0 -30 14 -45.5t48 -15.5h62q83 0 125 43.5t79 160.5z" />
    <glyph glyph-name="lslash" unicode="&#x142;" horiz-adv-x="311" 
d="M206 100q0 -40 15.5 -52.5t65.5 -18.5v-29h-263v29q50 5 65.5 18t15.5 52v238l-76 -45v37l76 45v270q0 29 -9 40.5t-32 11.5q-14 0 -38 -3v27l151 40h29v-326l79 47v-37l-79 -47v-297z" />
    <glyph glyph-name="Nacute" unicode="&#x143;" horiz-adv-x="799" 
d="M442 751h-49l90 139h90v-26zM643 -5l-409 525q-33 44 -47 80l-4 -1q7 -40 7 -101v-378q1 -51 20 -66.5t82 -23.5v-30h-249v30q59 5 78 26.5t19 84.5v493q-20 20 -37 25.5t-59 10.5v29h202l322 -419q47 -62 68 -113l6 2q-5 45 -5 115v281q0 62 -18.5 80t-82.5 25v30h248
v-30q-61 -5 -78.5 -25.5t-17.5 -85.5v-564h-45z" />
    <glyph glyph-name="nacute" unicode="&#x144;" horiz-adv-x="631" 
d="M332 582h-33l75 162h92v-23zM612 29v-29h-245v29q36 5 49.5 18t13.5 42v227q0 116 -100 116q-84 0 -115 -70v-263q0 -39 13 -52t52 -18v-29h-247v29q49 4 65 17.5t16 52.5v291q0 34 -45 34q-11 0 -41 -3v29l147 44h30v-56q0 -22 -9 -64l5 -2q21 64 66.5 99t110.5 35
q71 0 112 -41.5t41 -131.5v-233q0 -40 16 -53t65 -18z" />
    <glyph glyph-name="uni0145" unicode="&#x145;" horiz-adv-x="799" 
d="M643 -5l-409 525q-33 44 -47 80l-4 -1q7 -40 7 -101v-378q1 -51 20 -66.5t82 -23.5v-30h-249v30q59 5 78 26.5t19 84.5v493q-20 20 -37 25.5t-59 10.5v29h202l322 -419q47 -62 68 -113l6 2q-5 45 -5 115v281q0 62 -18.5 80t-82.5 25v30h248v-30q-61 -5 -78.5 -25.5
t-17.5 -85.5v-564h-45zM383 -231l-2 19q58 9 58 40q0 11 -7 16.5t-24 12.5q-34 13 -34 49q0 21 14.5 34.5t37.5 13.5q26 0 43.5 -21t17.5 -53q0 -44 -29 -75t-75 -36z" />
    <glyph glyph-name="uni0146" unicode="&#x146;" horiz-adv-x="631" 
d="M612 29v-29h-245v29q36 5 49.5 18t13.5 42v227q0 116 -100 116q-84 0 -115 -70v-263q0 -39 13 -52t52 -18v-29h-247v29q49 4 65 17.5t16 52.5v291q0 34 -45 34q-11 0 -41 -3v29l147 44h30v-56q0 -22 -9 -64l5 -2q21 64 66.5 99t110.5 35q71 0 112 -41.5t41 -131.5v-233
q0 -40 16 -53t65 -18zM275 -231l-2 19q58 9 58 40q0 11 -7 16.5t-24 12.5q-34 13 -34 49q0 21 14.5 34.5t37.5 13.5q26 0 43.5 -21t17.5 -53q0 -44 -29 -75t-75 -36z" />
    <glyph glyph-name="Ncaron" unicode="&#x147;" horiz-adv-x="799" 
d="M443 751h-50l-143 139h51l117 -75l117 75h51zM643 -5l-409 525q-33 44 -47 80l-4 -1q7 -40 7 -101v-378q1 -51 20 -66.5t82 -23.5v-30h-249v30q59 5 78 26.5t19 84.5v493q-20 20 -37 25.5t-59 10.5v29h202l322 -419q47 -62 68 -113l6 2q-5 45 -5 115v281q0 62 -18.5 80
t-82.5 25v30h248v-30q-61 -5 -78.5 -25.5t-17.5 -85.5v-564h-45z" />
    <glyph glyph-name="ncaron" unicode="&#x148;" horiz-adv-x="631" 
d="M298 582l-109 158h36l91 -86l90 86h36l-109 -158h-35zM612 29v-29h-245v29q36 5 49.5 18t13.5 42v227q0 116 -100 116q-84 0 -115 -70v-263q0 -39 13 -52t52 -18v-29h-247v29q49 4 65 17.5t16 52.5v291q0 34 -45 34q-11 0 -41 -3v29l147 44h30v-56q0 -22 -9 -64l5 -2
q21 64 66.5 99t110.5 35q71 0 112 -41.5t41 -131.5v-233q0 -40 16 -53t65 -18z" />
    <glyph glyph-name="napostrophe" unicode="&#x149;" horiz-adv-x="631" 
d="M33 541l-2 20q60 9 60 41q0 13 -7.5 17.5t-26.5 9.5q-38 11 -38 44q0 20 13 33t35 13q29 0 47.5 -21t18.5 -60q0 -42 -29.5 -67.5t-70.5 -29.5zM612 29v-29h-245v29q36 5 49.5 18t13.5 42v227q0 116 -100 116q-84 0 -115 -70v-263q0 -39 13 -52t52 -18v-29h-247v29
q49 4 65 17.5t16 52.5v291q0 34 -45 34q-11 0 -41 -3v29l147 44h30v-56q0 -22 -9 -64l5 -2q21 64 66.5 99t110.5 35q71 0 112 -41.5t41 -131.5v-233q0 -40 16 -53t65 -18z" />
    <glyph glyph-name="Eng" unicode="&#x14a;" horiz-adv-x="799" 
d="M536 700h248v-30q-61 -6 -78.5 -26t-17.5 -85v-634q0 -86 -38.5 -123.5t-91.5 -37.5q-59 0 -102 38l17 27q28 -21 62 -21q23 0 37 15t14 45v197l-396 510v-455q1 -51 20 -66.5t82 -23.5v-30h-249v30q59 5 78 26.5t19 84.5v493q-20 20 -37 25.5t-59 10.5v29h202l386 -505
h5v371q0 61 -18.5 79t-82.5 26v30z" />
    <glyph glyph-name="eng" unicode="&#x14b;" horiz-adv-x="550" 
d="M401 -236q-57 0 -102 38l17 27q28 -21 63 -21q23 0 37 15t14 45v448q0 116 -100 116q-84 0 -115 -70v-263q0 -38 13 -51t52 -19v-29h-247v29q50 5 65.5 18t15.5 52v286q0 37 -47 39q-18 0 -39 -3v29l147 44h30v-56q0 -28 -9 -64l5 -2q21 64 66.5 99t110.5 35
q71 0 112 -41.5t41 -131.5v-408q0 -86 -38.5 -123.5t-91.5 -37.5z" />
    <glyph glyph-name="Omacron" unicode="&#x14c;" horiz-adv-x="838" 
d="M254 785h329v55h-329v-55zM419 -17q-163 0 -267 103t-104 264t104 264t267 103t267 -103t104 -264t-104 -264t-267 -103zM419 35q111 0 175.5 84t64.5 231t-64.5 231t-175.5 84t-175.5 -84t-64.5 -231t64.5 -231t175.5 -84z" />
    <glyph glyph-name="omacron" unicode="&#x14d;" horiz-adv-x="578" 
d="M157 617v45h262v-45h-262zM289 -12q-109 0 -179.5 73t-70.5 186q0 112 70.5 185.5t179.5 73.5t179.5 -73.5t70.5 -185.5q0 -113 -70.5 -186t-179.5 -73zM289 34q133 0 133 213t-133 213t-133 -213t133 -213z" />
    <glyph glyph-name="Obreve" unicode="&#x14e;" horiz-adv-x="838" 
d="M525 906h29q0 -73 -37.5 -110t-97.5 -37t-97.5 37t-37.5 110h29q3 -45 32 -67t74 -22t74 22t32 67zM419 -17q-163 0 -267 103t-104 264t104 264t267 103t267 -103t104 -264t-104 -264t-267 -103zM419 35q111 0 175.5 84t64.5 231t-64.5 231t-175.5 84t-175.5 -84
t-64.5 -231t64.5 -231t175.5 -84z" />
    <glyph glyph-name="obreve" unicode="&#x14f;" horiz-adv-x="578" 
d="M376 730h29q0 -78 -32 -117t-85 -39t-85 39t-32 117h29q2 -48 26 -72t62 -24q37 0 61.5 24.5t26.5 71.5zM289 -12q-109 0 -179.5 73t-70.5 186q0 112 70.5 185.5t179.5 73.5t179.5 -73.5t70.5 -185.5q0 -113 -70.5 -186t-179.5 -73zM289 34q133 0 133 213t-133 213
t-133 -213t133 -213z" />
    <glyph glyph-name="Ohungarumlaut" unicode="&#x150;" horiz-adv-x="838" 
d="M382 890h92v-23l-128 -116h-34zM562 890h92v-23l-128 -116h-34zM419 -17q-163 0 -267 103t-104 264t104 264t267 103t267 -103t104 -264t-104 -264t-267 -103zM419 35q111 0 175.5 84t64.5 231t-64.5 231t-175.5 84t-175.5 -84t-64.5 -231t64.5 -231t175.5 -84z" />
    <glyph glyph-name="ohungarumlaut" unicode="&#x151;" horiz-adv-x="578" 
d="M200 582l78 158h84v-23l-130 -135h-32zM344 582l78 158h84v-23l-130 -135h-32zM289 -12q-109 0 -179.5 73t-70.5 186q0 112 70.5 185.5t179.5 73.5t179.5 -73.5t70.5 -185.5q0 -113 -70.5 -186t-179.5 -73zM289 34q133 0 133 213t-133 213t-133 -213t133 -213z" />
    <glyph glyph-name="OE" unicode="&#x152;" horiz-adv-x="972" 
d="M417 0q-166 0 -267.5 100t-101.5 250t101.5 250t267.5 100h463l28 -202h-35l-9 31q-19 69 -62 100.5t-127 31.5h-95v-273h50q54 0 79.5 21t33.5 69l5 29h29v-280h-29l-5 29q-8 50 -33 71t-80 21h-50v-249q0 -60 47 -60h53q91 0 133.5 34t67.5 117l10 33h34l-32 -223h-476
zM424 39h45v622h-45q-63 0 -112.5 -25.5t-79.5 -69.5t-45.5 -99t-15.5 -117q0 -131 65.5 -221t187.5 -90z" />
    <glyph glyph-name="oe" unicode="&#x153;" horiz-adv-x="901" 
d="M703 86q93 0 131 64l27 -14q-17 -62 -67.5 -105t-127.5 -43q-127 0 -186 98q-32 -47 -83 -72.5t-112 -25.5q-107 0 -176.5 73t-69.5 186q0 112 69.5 185.5t176.5 73.5q62 0 114 -27t83 -75q62 102 184 102q93 0 144 -59t51 -159h-332q5 -95 50.5 -148.5t123.5 -53.5z
M645 463q-52 0 -82.5 -36.5t-34.5 -100.5h213q0 137 -96 137zM285 34q129 0 129 213t-129 213t-129 -213t129 -213z" />
    <glyph glyph-name="Racute" unicode="&#x154;" horiz-adv-x="731" 
d="M387 751h-49l90 139h90v-26zM43 0v30q59 5 78 26.5t19 84.5v418q0 63 -19.5 84.5t-77.5 26.5v30h321q105 0 168.5 -40.5t63.5 -126.5q0 -82 -58 -127t-152 -47l-35 -1v-6l33 -1q67 -1 100.5 -29t72.5 -106l56 -111q36 -71 108 -76v-29h-178q-15 15 -51 91l-47 104
q-18 39 -27.5 57t-27.5 42.5t-39 34t-49 9.5h-51v-197q0 -63 20 -84.5t77 -26.5v-30h-305zM251 375h71q85 0 120 41.5t35 114.5q0 130 -149 130h-77v-286z" />
    <glyph glyph-name="racute" unicode="&#x155;" horiz-adv-x="403" 
d="M256 582h-33l75 162h92v-23zM358 506q19 0 30 -4v-114h-19q-20 10 -44 10q-46 0 -77.5 -27.5t-31.5 -88.5v-182q0 -41 20.5 -53.5t82.5 -17.5v-29h-285v29q50 5 65.5 18t15.5 52v279q0 24 -10.5 34.5t-36.5 10.5q-10 0 -40 -2v29l147 44h30v-81q0 -63 -4 -109h7l9 58
q11 71 51 107.5t90 36.5z" />
    <glyph glyph-name="uni0156" unicode="&#x156;" horiz-adv-x="731" 
d="M43 0v30q59 5 78 26.5t19 84.5v418q0 63 -19.5 84.5t-77.5 26.5v30h321q105 0 168.5 -40.5t63.5 -126.5q0 -82 -58 -127t-152 -47l-35 -1v-6l33 -1q67 -1 100.5 -29t72.5 -106l56 -111q36 -71 108 -76v-29h-178q-15 15 -51 91l-47 104q-18 39 -27.5 57t-27.5 42.5t-39 34
t-49 9.5h-51v-197q0 -63 20 -84.5t77 -26.5v-30h-305zM251 375h71q85 0 120 41.5t35 114.5q0 130 -149 130h-77v-286zM331 -231l-2 19q58 9 58 40q0 11 -7 16.5t-24 12.5q-34 13 -34 49q0 21 14.5 34.5t37.5 13.5q26 0 43.5 -21t17.5 -53q0 -44 -29 -75t-75 -36z" />
    <glyph glyph-name="uni0157" unicode="&#x157;" horiz-adv-x="403" 
d="M358 506q19 0 30 -4v-114h-19q-20 10 -44 10q-46 0 -77.5 -27.5t-31.5 -88.5v-182q0 -41 20.5 -53.5t82.5 -17.5v-29h-285v29q50 5 65.5 18t15.5 52v279q0 24 -10.5 34.5t-36.5 10.5q-10 0 -40 -2v29l147 44h30v-81q0 -63 -4 -109h7l9 58q11 71 51 107.5t90 36.5z
M122 -231l-2 19q58 9 58 40q0 11 -7 16.5t-24 12.5q-34 13 -34 49q0 21 14.5 34.5t37.5 13.5q26 0 43.5 -21t17.5 -53q0 -44 -29 -75t-75 -36z" />
    <glyph glyph-name="Rcaron" unicode="&#x158;" horiz-adv-x="731" 
d="M387 751h-50l-143 139h51l117 -75l117 75h51zM43 0v30q59 5 78 26.5t19 84.5v418q0 63 -19.5 84.5t-77.5 26.5v30h321q105 0 168.5 -40.5t63.5 -126.5q0 -82 -58 -127t-152 -47l-35 -1v-6l33 -1q67 -1 100.5 -29t72.5 -106l56 -111q36 -71 108 -76v-29h-178
q-15 15 -51 91l-47 104q-18 39 -27.5 57t-27.5 42.5t-39 34t-49 9.5h-51v-197q0 -63 20 -84.5t77 -26.5v-30h-305zM251 375h71q85 0 120 41.5t35 114.5q0 130 -149 130h-77v-286z" />
    <glyph glyph-name="rcaron" unicode="&#x159;" horiz-adv-x="403" 
d="M221 582l-109 158h36l91 -86l90 86h36l-109 -158h-35zM358 506q19 0 30 -4v-114h-19q-20 10 -44 10q-46 0 -77.5 -27.5t-31.5 -88.5v-182q0 -41 20.5 -53.5t82.5 -17.5v-29h-285v29q50 5 65.5 18t15.5 52v279q0 24 -10.5 34.5t-36.5 10.5q-10 0 -40 -2v29l147 44h30v-81
q0 -63 -4 -109h7l9 58q11 71 51 107.5t90 36.5z" />
    <glyph glyph-name="Sacute" unicode="&#x15a;" horiz-adv-x="572" 
d="M331 751h-49l90 139h90v-26zM278 -17q-132 0 -230 64v193h37q36 -206 212 -206q136 0 136 117q0 45 -23 71.5t-80 52.5l-132 60q-142 61 -142 183q0 89 65 144t185 55q109 0 199 -44v-178h-35q-39 172 -189 172q-64 0 -98 -27t-34 -76q0 -75 106 -119l133 -59
q71 -32 106.5 -76t35.5 -112q0 -95 -67.5 -155t-184.5 -60z" />
    <glyph glyph-name="sacute" unicode="&#x15b;" horiz-adv-x="438" 
d="M245 582h-33l75 162h92v-23zM207 -12q-100 0 -165 51v122h37q14 -62 53 -94t92 -32q42 0 67.5 20t25.5 55q0 29 -15 47t-49 29l-92 32q-116 38 -116 138q0 68 52 109t134 41q79 0 147 -32v-112h-36q-11 44 -44.5 72t-82.5 28q-39 0 -62.5 -18t-23.5 -47q0 -55 61 -77
l106 -38q104 -38 104 -136q0 -72 -53 -115t-140 -43z" />
    <glyph glyph-name="Scircumflex" unicode="&#x15c;" horiz-adv-x="572" 
d="M331 890l143 -139h-51l-117 74l-117 -74h-51l143 139h50zM278 -17q-132 0 -230 64v193h37q36 -206 212 -206q136 0 136 117q0 45 -23 71.5t-80 52.5l-132 60q-142 61 -142 183q0 89 65 144t185 55q109 0 199 -44v-178h-35q-39 172 -189 172q-64 0 -98 -27t-34 -76
q0 -75 106 -119l133 -59q71 -32 106.5 -76t35.5 -112q0 -95 -67.5 -155t-184.5 -60z" />
    <glyph glyph-name="scircumflex" unicode="&#x15d;" horiz-adv-x="438" 
d="M102 582l109 158h35l109 -158h-36l-90 85l-91 -85h-36zM207 -12q-100 0 -165 51v122h37q14 -62 53 -94t92 -32q42 0 67.5 20t25.5 55q0 29 -15 47t-49 29l-92 32q-116 38 -116 138q0 68 52 109t134 41q79 0 147 -32v-112h-36q-11 44 -44.5 72t-82.5 28q-39 0 -62.5 -18
t-23.5 -47q0 -55 61 -77l106 -38q104 -38 104 -136q0 -72 -53 -115t-140 -43z" />
    <glyph glyph-name="Scedilla" unicode="&#x15e;" horiz-adv-x="572" 
d="M530 198q0 -93 -65 -152.5t-178 -62.5l-33 -56q12 9 35 9q34 0 56.5 -22.5t22.5 -59.5q0 -39 -26.5 -65t-68.5 -26q-34 0 -58 17.5t-32 47.5l17 6q16 -35 54 -35q24 0 40 15.5t16 41.5q0 23 -11.5 37.5t-33.5 14.5q-20 0 -39 -17l-14 9l47 83q-124 7 -211 64v193h37
q36 -206 212 -206q136 0 136 117q0 45 -23 71.5t-80 52.5l-132 60q-142 61 -142 183q0 89 65 144t185 55q109 0 199 -44v-178h-35q-39 172 -189 172q-64 0 -98 -27t-34 -76q0 -75 106 -119l133 -59q71 -32 106.5 -76t35.5 -112z" />
    <glyph glyph-name="scedilla" unicode="&#x15f;" horiz-adv-x="438" 
d="M400 146q0 -68 -47 -110t-125 -47l-37 -62q12 9 35 9q34 0 56.5 -22.5t22.5 -59.5q0 -39 -26.5 -65t-68.5 -26q-34 0 -58 17.5t-32 47.5l17 6q16 -35 54 -35q24 0 40 15.5t16 41.5q0 23 -11.5 37.5t-33.5 14.5q-20 0 -39 -17l-14 9l50 88q-95 2 -157 51v122h37
q14 -62 53 -94t92 -32q42 0 67.5 20t25.5 55q0 29 -15 47t-49 29l-92 32q-116 38 -116 138q0 68 52 109t134 41q79 0 147 -32v-112h-36q-11 44 -44.5 72t-82.5 28q-39 0 -62.5 -18t-23.5 -47q0 -55 61 -77l106 -38q104 -38 104 -136z" />
    <glyph glyph-name="Scaron" unicode="&#x160;" horiz-adv-x="572" 
d="M331 751h-50l-143 139h51l117 -75l117 75h51zM278 -17q-132 0 -230 64v193h37q36 -206 212 -206q136 0 136 117q0 45 -23 71.5t-80 52.5l-132 60q-142 61 -142 183q0 89 65 144t185 55q109 0 199 -44v-178h-35q-39 172 -189 172q-64 0 -98 -27t-34 -76q0 -75 106 -119
l133 -59q71 -32 106.5 -76t35.5 -112q0 -95 -67.5 -155t-184.5 -60z" />
    <glyph glyph-name="scaron" unicode="&#x161;" horiz-adv-x="438" 
d="M211 582l-109 158h36l91 -86l90 86h36l-109 -158h-35zM207 -12q-100 0 -165 51v122h37q14 -62 53 -94t92 -32q42 0 67.5 20t25.5 55q0 29 -15 47t-49 29l-92 32q-116 38 -116 138q0 68 52 109t134 41q79 0 147 -32v-112h-36q-11 44 -44.5 72t-82.5 28q-39 0 -62.5 -18
t-23.5 -47q0 -55 61 -77l106 -38q104 -38 104 -136q0 -72 -53 -115t-140 -43z" />
    <glyph glyph-name="uni0162" unicode="&#x162;" horiz-adv-x="632" 
d="M585 720h28v-239h-34q-11 95 -39.5 134t-92.5 39h-75v-513q0 -67 24 -87t102 -24v-30h-172l-43 -73q12 9 35 9q34 0 56.5 -22.5t22.5 -59.5q0 -39 -26.5 -65t-68.5 -26q-34 0 -58 17.5t-32 47.5l17 6q16 -35 54 -35q24 0 40 15.5t16 41.5q0 23 -11.5 37.5t-33.5 14.5
q-20 0 -39 -17l-14 9l56 100h-162v30q79 4 102.5 24.5t23.5 86.5v513h-74q-66 0 -94.5 -39.5t-38.5 -133.5h-35v239h29q11 -20 49 -20h439q38 0 49 20z" />
    <glyph glyph-name="uni0163" unicode="&#x163;" horiz-adv-x="363" 
d="M211 -12h-1l-36 -61q12 9 35 9q34 0 56.5 -22.5t22.5 -59.5q0 -39 -26.5 -65t-68.5 -26q-34 0 -58 17.5t-32 47.5l17 6q16 -35 54 -35q24 0 40 15.5t16 41.5q0 23 -11.5 37.5t-33.5 14.5q-20 0 -39 -17l-14 9l51 90q-91 16 -91 128v324h-86v26q100 35 161 149h26v-123
h134v-52h-134v-289q0 -49 22 -71.5t55 -22.5q32 0 66 25l18 -24q-64 -72 -143 -72z" />
    <glyph glyph-name="Tcaron" unicode="&#x164;" horiz-adv-x="632" 
d="M344 751h-50l-143 139h51l117 -75l117 75h51zM585 720h28v-239h-34q-11 95 -39.5 134t-92.5 39h-75v-513q0 -67 24 -87t102 -24v-30h-363v30q79 4 102.5 24.5t23.5 86.5v513h-74q-66 0 -94.5 -39.5t-38.5 -133.5h-35v239h29q11 -20 49 -20h439q38 0 49 20z" />
    <glyph glyph-name="tcaron" unicode="&#x165;" horiz-adv-x="363" 
d="M244 541l-2 20q60 9 60 41q0 13 -7.5 17.5t-26.5 9.5q-38 11 -38 44q0 20 13 33t35 13q29 0 47.5 -21t18.5 -60q0 -42 -29.5 -67.5t-70.5 -29.5zM211 -12q-119 0 -119 130v324h-86v26q100 35 161 149h26v-123h134v-52h-134v-289q0 -49 22 -71.5t55 -22.5q32 0 66 25
l18 -24q-64 -72 -143 -72z" />
    <glyph glyph-name="Tbar" unicode="&#x166;" horiz-adv-x="632" 
d="M585 720h28v-239h-34q-11 95 -39.5 134t-92.5 39h-75v-287h133v-31h-133v-195q0 -67 24 -87t102 -24v-30h-363v30q79 4 102.5 24.5t23.5 86.5v195h-128v31h128v287h-74q-66 0 -94.5 -39.5t-38.5 -133.5h-35v239h29q11 -20 49 -20h439q38 0 49 20z" />
    <glyph glyph-name="tbar" unicode="&#x167;" horiz-adv-x="363" 
d="M336 84l18 -24q-64 -72 -143 -72q-119 0 -119 130v179h-75v32h75v113h-86v26q100 35 161 149h26v-123h134v-52h-134v-113h123v-32h-123v-144q0 -49 22 -71.5t55 -22.5q32 0 66 25z" />
    <glyph glyph-name="Utilde" unicode="&#x168;" horiz-adv-x="762" 
d="M470 763q-29 0 -62.5 19.5t-57.5 19.5q-43 0 -66 -39h-26q3 57 34 83t71 26q29 0 63 -19.5t57 -19.5q43 0 66 40h26q-3 -58 -34 -84t-71 -26zM387 -17q-134 0 -207.5 73.5t-73.5 208.5v294q0 63 -19.5 84.5t-77.5 26.5v30h313v-30q-61 -5 -79 -25.5t-18 -85.5v-295
q0 -103 49 -156.5t141 -53.5q183 0 183 218v287q0 63 -19.5 84.5t-77.5 26.5v30h252v-30q-60 -5 -78.5 -24.5t-18.5 -80.5v-300q0 -132 -71 -207t-198 -75z" />
    <glyph glyph-name="utilde" unicode="&#x169;" horiz-adv-x="598" 
d="M319 592q-28 0 -60.5 20t-53.5 20q-37 0 -57 -39h-18q3 55 31.5 79.5t65.5 24.5q27 0 60 -20t54 -20q37 0 56 38h19q-3 -54 -31.5 -78.5t-65.5 -24.5zM574 29v-29h-168v38q0 43 12 79l-6 2q-18 -61 -64.5 -96t-101.5 -35q-69 0 -111 41.5t-42 119.5v240q0 32 -16 40.5
t-63 8.5v30l157 26h23v-322q0 -109 98 -109q34 0 64 19t42 50v257q0 32 -15.5 40t-63.5 8v31l157 26h23v-408q0 -29 16 -40.5t59 -16.5z" />
    <glyph glyph-name="Umacron" unicode="&#x16a;" horiz-adv-x="762" 
d="M247 785h329v55h-329v-55zM387 -17q-134 0 -207.5 73.5t-73.5 208.5v294q0 63 -19.5 84.5t-77.5 26.5v30h313v-30q-61 -5 -79 -25.5t-18 -85.5v-295q0 -103 49 -156.5t141 -53.5q183 0 183 218v287q0 63 -19.5 84.5t-77.5 26.5v30h252v-30q-60 -5 -78.5 -24.5
t-18.5 -80.5v-300q0 -132 -71 -207t-198 -75z" />
    <glyph glyph-name="umacron" unicode="&#x16b;" horiz-adv-x="598" 
d="M142 617v45h262v-45h-262zM574 29v-29h-168v38q0 43 12 79l-6 2q-18 -61 -64.5 -96t-101.5 -35q-69 0 -111 41.5t-42 119.5v240q0 32 -16 40.5t-63 8.5v30l157 26h23v-322q0 -109 98 -109q34 0 64 19t42 50v257q0 32 -15.5 40t-63.5 8v31l157 26h23v-408q0 -29 16 -40.5
t59 -16.5z" />
    <glyph glyph-name="Ubreve" unicode="&#x16c;" horiz-adv-x="762" 
d="M518 906h29q0 -73 -37.5 -110t-97.5 -37t-97.5 37t-37.5 110h29q3 -45 32 -67t74 -22t74 22t32 67zM387 -17q-134 0 -207.5 73.5t-73.5 208.5v294q0 63 -19.5 84.5t-77.5 26.5v30h313v-30q-61 -5 -79 -25.5t-18 -85.5v-295q0 -103 49 -156.5t141 -53.5q183 0 183 218v287
q0 63 -19.5 84.5t-77.5 26.5v30h252v-30q-60 -5 -78.5 -24.5t-18.5 -80.5v-300q0 -132 -71 -207t-198 -75z" />
    <glyph glyph-name="ubreve" unicode="&#x16d;" horiz-adv-x="598" 
d="M362 730h29q0 -78 -32 -117t-85 -39t-85 39t-32 117h29q2 -48 26 -72t62 -24q37 0 61.5 24.5t26.5 71.5zM574 29v-29h-168v38q0 43 12 79l-6 2q-18 -61 -64.5 -96t-101.5 -35q-69 0 -111 41.5t-42 119.5v240q0 32 -16 40.5t-63 8.5v30l157 26h23v-322q0 -109 98 -109
q34 0 64 19t42 50v257q0 32 -15.5 40t-63.5 8v31l157 26h23v-408q0 -29 16 -40.5t59 -16.5z" />
    <glyph glyph-name="Uring" unicode="&#x16e;" horiz-adv-x="762" 
d="M414 725q-41 0 -70 27.5t-29 70.5t29 70t70 27t70 -27t29 -70t-29 -70.5t-70 -27.5zM414 758q28 0 46 17.5t18 47.5t-18 47t-46 17t-46 -17t-18 -47t18 -47.5t46 -17.5zM387 -17q-134 0 -207.5 73.5t-73.5 208.5v294q0 63 -19.5 84.5t-77.5 26.5v30h313v-30
q-61 -5 -79 -25.5t-18 -85.5v-295q0 -103 49 -156.5t141 -53.5q183 0 183 218v287q0 63 -19.5 84.5t-77.5 26.5v30h252v-30q-60 -5 -78.5 -24.5t-18.5 -80.5v-300q0 -132 -71 -207t-198 -75z" />
    <glyph glyph-name="uring" unicode="&#x16f;" horiz-adv-x="598" 
d="M274 556q-42 0 -70.5 27.5t-28.5 70.5t28.5 70.5t70.5 27.5q41 0 70 -27.5t29 -70.5t-29 -70.5t-70 -27.5zM274 595q24 0 40 15.5t16 43.5t-16 43.5t-40 15.5t-40.5 -16t-16.5 -43t16.5 -43t40.5 -16zM574 29v-29h-168v38q0 43 12 79l-6 2q-18 -61 -64.5 -96t-101.5 -35
q-69 0 -111 41.5t-42 119.5v240q0 32 -16 40.5t-63 8.5v30l157 26h23v-322q0 -109 98 -109q34 0 64 19t42 50v257q0 32 -15.5 40t-63.5 8v31l157 26h23v-408q0 -29 16 -40.5t59 -16.5z" />
    <glyph glyph-name="Uhungarumlaut" unicode="&#x170;" horiz-adv-x="762" 
d="M375 890h92v-23l-128 -116h-34zM555 890h92v-23l-128 -116h-34zM387 -17q-134 0 -207.5 73.5t-73.5 208.5v294q0 63 -19.5 84.5t-77.5 26.5v30h313v-30q-61 -5 -79 -25.5t-18 -85.5v-295q0 -103 49 -156.5t141 -53.5q183 0 183 218v287q0 63 -19.5 84.5t-77.5 26.5v30
h252v-30q-60 -5 -78.5 -24.5t-18.5 -80.5v-300q0 -132 -71 -207t-198 -75z" />
    <glyph glyph-name="uhungarumlaut" unicode="&#x171;" horiz-adv-x="598" 
d="M186 582l78 158h84v-23l-130 -135h-32zM330 582l78 158h84v-23l-130 -135h-32zM574 29v-29h-168v38q0 43 12 79l-6 2q-18 -61 -64.5 -96t-101.5 -35q-69 0 -111 41.5t-42 119.5v240q0 32 -16 40.5t-63 8.5v30l157 26h23v-322q0 -109 98 -109q34 0 64 19t42 50v257
q0 32 -15.5 40t-63.5 8v31l157 26h23v-408q0 -29 16 -40.5t59 -16.5z" />
    <glyph glyph-name="Uogonek" unicode="&#x172;" horiz-adv-x="762" 
d="M501 700h252v-30q-60 -5 -78.5 -24.5t-18.5 -80.5v-300q0 -104 -45 -173.5t-128 -95.5q-38 -16 -59.5 -46t-21.5 -61q0 -27 14.5 -43t41.5 -16q42 0 58 41l21 -10q-10 -44 -38.5 -70t-66.5 -26q-44 0 -70 27t-26 77q0 65 55 114h-4q-134 0 -207.5 73.5t-73.5 208.5v294
q0 63 -19.5 84.5t-77.5 26.5v30h313v-30q-61 -5 -79 -25.5t-18 -85.5v-295q0 -103 49 -156.5t141 -53.5q183 0 183 218v287q0 63 -19.5 84.5t-77.5 26.5v30z" />
    <glyph glyph-name="uogonek" unicode="&#x173;" horiz-adv-x="598" 
d="M443 0q-45 -14 -70.5 -46t-25.5 -67q0 -27 14.5 -43t41.5 -16q42 0 58 41l21 -10q-10 -44 -38.5 -70t-66.5 -26q-44 0 -70 27t-26 77q0 49 34.5 92.5t90.5 61.5v17q0 43 12 79l-6 2q-18 -61 -64.5 -96t-101.5 -35q-69 0 -111 41.5t-42 119.5v240q0 32 -16 40.5t-63 8.5
v30l157 26h23v-322q0 -109 98 -109q34 0 64 19t42 50v257q0 32 -15.5 40t-63.5 8v31l157 26h23v-408q0 -29 16 -40.5t59 -16.5v-29h-131z" />
    <glyph glyph-name="Wcircumflex" unicode="&#x174;" horiz-adv-x="1065" 
d="M559 890l143 -139h-51l-117 74l-117 -74h-51l143 139h50zM326 -5l-218 590q-17 46 -39.5 65t-59.5 21v29h293v-30q-47 -4 -63 -13t-16 -36q0 -17 11 -50l120 -358q15 -48 18 -91h5q3 44 19 92l108 324l-23 64q-15 43 -30 54t-57 15v29h288v-30q-50 -4 -67.5 -13.5
t-17.5 -34.5q0 -19 8 -42l122 -358q18 -54 21 -97h5q2 39 21 97l118 348q9 30 9 47q0 29 -18.5 39t-71.5 14v30h245v-29q-40 -6 -65 -25t-41 -65l-199 -586h-50l-145 415q-15 44 -15 91h-6q-4 -46 -19 -92l-141 -414h-49z" />
    <glyph glyph-name="wcircumflex" unicode="&#x175;" horiz-adv-x="839" 
d="M302 582l109 158h35l109 -158h-36l-90 85l-91 -85h-36zM423 333q-4 -24 -20 -67l-112 -271h-36l-186 421q-13 30 -24.5 38.5t-39.5 9.5v30h233v-30q-29 0 -42 -8.5t-13 -27.5q0 -7 10 -37l82 -195q15 -34 16 -83h5q2 28 15 65l85 195l-19 43q-13 30 -24 38.5t-37 9.5v30
h246v-30q-41 0 -55.5 -7.5t-14.5 -28.5q0 -14 9 -39l81 -197q15 -35 15 -82h5q3 30 17 66l89 214q9 21 9 36q0 23 -15.5 30.5t-59.5 7.5v30h192v-30q-27 -1 -41.5 -12t-24.5 -39l-170 -418h-36l-118 271q-15 32 -16 67h-5z" />
    <glyph glyph-name="Ycircumflex" unicode="&#x176;" horiz-adv-x="672" 
d="M402 890l143 -139h-51l-117 74l-117 -74h-51l143 139h50zM453 700h214v-29q-26 -3 -44.5 -20t-42.5 -52l-183 -309v-149q0 -67 23.5 -87t102.5 -24v-30h-363v30q79 4 102.5 24.5t23.5 86.5v148l-175 288q-32 52 -53.5 70.5t-52.5 23.5v29h295v-30q-53 -2 -69.5 -9.5
t-16.5 -29.5q0 -20 18 -48l111 -182q29 -46 33 -72h5q3 23 30 69l110 185q16 32 16 48q0 35 -84 39v30z" />
    <glyph glyph-name="ycircumflex" unicode="&#x177;" horiz-adv-x="548" 
d="M177 582l109 158h35l109 -158h-36l-90 85l-91 -85h-36zM83 -237q-44 0 -77 15v113h25q34 -25 88 -25q85 0 127 71l12 23l-193 449q-15 36 -25.5 45.5t-33.5 9.5v30h253v-30q-78 0 -78 -46q0 -14 8 -33l94 -229q17 -41 17 -82l5 -1q4 27 18 65l93 238q9 23 9 37
q0 51 -77 51v30h195v-30q-36 0 -59 -55l-205 -492q-37 -88 -86 -121t-110 -33z" />
    <glyph glyph-name="Ydieresis" unicode="&#x178;" horiz-adv-x="672" 
d="M273 767q-24 0 -41 16.5t-17 41.5t17 42t41 17q25 0 42 -17t17 -42t-17 -41.5t-42 -16.5zM481 767q-24 0 -41 16.5t-17 41.5t17 42t41 17t41 -17t17 -42t-17 -41.5t-41 -16.5zM453 700h214v-29q-26 -3 -44.5 -20t-42.5 -52l-183 -309v-149q0 -67 23.5 -87t102.5 -24v-30
h-363v30q79 4 102.5 24.5t23.5 86.5v148l-175 288q-32 52 -53.5 70.5t-52.5 23.5v29h295v-30q-53 -2 -69.5 -9.5t-16.5 -29.5q0 -20 18 -48l111 -182q29 -46 33 -72h5q3 23 30 69l110 185q16 32 16 48q0 35 -84 39v30z" />
    <glyph glyph-name="Zacute" unicode="&#x179;" horiz-adv-x="652" 
d="M372 751h-49l90 139h90v-26zM51 0l-18 36l418 592q15 21 31 27l-2 5q-20 -6 -37 -6h-158q-98 0 -135.5 -34t-63.5 -143h-35l21 223h516l17 -35l-414 -590q-14 -21 -34 -30l2 -5q15 6 38 6h153q105 0 152 38t75 141h36l-23 -225h-539z" />
    <glyph glyph-name="zacute" unicode="&#x17a;" horiz-adv-x="491" 
d="M269 582h-33l75 162h92v-23zM42 0l-12 24l273 394q17 26 41 33l-2 5q-20 -5 -42 -5h-102q-56 0 -83 -28.5t-39 -102.5h-30v174h399l11 -24l-267 -393q-15 -24 -41 -34l1 -5q20 5 39 5h101q61 0 95.5 34.5t50.5 110.5h27l-16 -188h-404z" />
    <glyph glyph-name="Zdotaccent" unicode="&#x17b;" horiz-adv-x="652" 
d="M348 766q-26 0 -44.5 18.5t-18.5 44.5t18.5 44.5t44.5 18.5t44.5 -18.5t18.5 -44.5t-18.5 -44.5t-44.5 -18.5zM51 0l-18 36l418 592q15 21 31 27l-2 5q-20 -6 -37 -6h-158q-98 0 -135.5 -34t-63.5 -143h-35l21 223h516l17 -35l-414 -590q-14 -21 -34 -30l2 -5q15 6 38 6
h153q105 0 152 38t75 141h36l-23 -225h-539z" />
    <glyph glyph-name="zdotaccent" unicode="&#x17c;" horiz-adv-x="491" 
d="M253 565q-31 0 -51.5 21t-20.5 51t20.5 50.5t51.5 20.5q30 0 50.5 -20.5t20.5 -50.5t-20.5 -51t-50.5 -21zM42 0l-12 24l273 394q17 26 41 33l-2 5q-20 -5 -42 -5h-102q-56 0 -83 -28.5t-39 -102.5h-30v174h399l11 -24l-267 -393q-15 -24 -41 -34l1 -5q20 5 39 5h101
q61 0 95.5 34.5t50.5 110.5h27l-16 -188h-404z" />
    <glyph glyph-name="Zcaron" unicode="&#x17d;" horiz-adv-x="652" 
d="M373 751h-50l-143 139h51l117 -75l117 75h51zM51 0l-18 36l418 592q15 21 31 27l-2 5q-20 -6 -37 -6h-158q-98 0 -135.5 -34t-63.5 -143h-35l21 223h516l17 -35l-414 -590q-14 -21 -34 -30l2 -5q15 6 38 6h153q105 0 152 38t75 141h36l-23 -225h-539z" />
    <glyph glyph-name="zcaron" unicode="&#x17e;" horiz-adv-x="491" 
d="M235 582l-109 158h36l91 -86l90 86h36l-109 -158h-35zM42 0l-12 24l273 394q17 26 41 33l-2 5q-20 -5 -42 -5h-102q-56 0 -83 -28.5t-39 -102.5h-30v174h399l11 -24l-267 -393q-15 -24 -41 -34l1 -5q20 5 39 5h101q61 0 95.5 34.5t50.5 110.5h27l-16 -188h-404z" />
    <glyph glyph-name="florin" unicode="&#x192;" horiz-adv-x="540" 
d="M504 682q48 0 76 -27l-45 -80h-17q-15 24 -46 36.5t-65 12.5q-44 -21 -64 -111l-23 -103h126l-11 -38h-123l-76 -339q-25 -110 -108.5 -190t-152.5 -80q-46 0 -75 26l36 82h16q47 -46 110 -46q29 19 48 107l100 440h-100l11 38h98l5 22q16 68 66 127.5t108.5 91
t105.5 31.5z" />
    <glyph glyph-name="AEacute" unicode="&#x1fc;" horiz-adv-x="1001" 
d="M683 751h-49l90 139h90v-26zM5 0v30q46 4 67.5 24t54.5 78l265 473q12 23 12 36q0 17 -22.5 23t-91.5 6v30h639l18 -202h-34q-26 95 -68.5 129.5t-137.5 34.5h-78v-274h31q62 0 84 23.5t33 95.5h35v-280h-35q-11 73 -33.5 97t-83.5 24h-31v-248q0 -30 14 -45.5t48 -15.5
h22q94 0 134 37t73 147h35l-23 -223h-511v30q59 5 78 26.5t19 84.5v207h-217l-118 -215q-27 -52 -14.5 -73t67.5 -29v-31h-231zM323 388h195v273h-44z" />
    <glyph glyph-name="aeacute" unicode="&#x1fd;" horiz-adv-x="736" 
d="M527 721l-134 -139h-33l75 162h92v-23zM556 86q78 0 112 64l27 -14q-15 -61 -60.5 -104.5t-113.5 -43.5q-119 0 -168 109q-17 -45 -58.5 -77t-103.5 -32q-63 0 -105.5 35.5t-42.5 101.5q0 72 64 124t189 55h11q-13 70 -36 98.5t-74 28.5q-85 0 -116 -80l-29 10
q13 63 59 104t126 41q103 0 147 -75q51 75 138 75q88 0 131 -63t43 -176h-290q8 -86 47 -133.5t103 -47.5zM499 463q-45 0 -69.5 -41.5t-24.5 -115.5h173q0 76 -17 116.5t-62 40.5zM234 49q72 0 106 84q-8 25 -12 49l-15 84h-7q-79 0 -116.5 -33.5t-37.5 -89.5
q0 -39 22 -66.5t60 -27.5z" />
    <glyph glyph-name="Oslashacute" unicode="&#x1fe;" horiz-adv-x="838" 
d="M575 864l-131 -113h-49l90 139h90v-26zM646 648q68 -49 106 -126.5t38 -171.5q0 -161 -104 -264t-267 -103q-101 0 -183 42l-40 -61h-56l56 85q-70 49 -109 127t-39 174q0 161 104 264t267 103q105 0 187 -45l43 65h56zM179 350q0 -146 64 -230l323 492q-59 53 -147 53
q-111 0 -175.5 -84t-64.5 -231zM419 35q111 0 175.5 84t64.5 231q0 142 -60 225l-323 -490q58 -50 143 -50z" />
    <glyph glyph-name="oslashacute" unicode="&#x1ff;" horiz-adv-x="578" 
d="M439 721l-134 -139h-33l75 162h92v-23zM453 447q86 -73 86 -200q0 -113 -70.5 -186t-179.5 -73q-79 0 -141 41l-33 -45h-40l47 65q-83 73 -83 198q0 112 70.5 185.5t179.5 73.5q77 0 138 -39l36 50h41zM156 247q0 -79 18 -128l212 292q-33 49 -97 49q-133 0 -133 -213z
M289 34q133 0 133 213q0 79 -19 131l-213 -292q33 -52 99 -52z" />
    <glyph glyph-name="uni0218" unicode="&#x218;" horiz-adv-x="572" 
d="M278 -17q-132 0 -230 64v193h37q36 -206 212 -206q136 0 136 117q0 45 -23 71.5t-80 52.5l-132 60q-142 61 -142 183q0 89 65 144t185 55q109 0 199 -44v-178h-35q-39 172 -189 172q-64 0 -98 -27t-34 -76q0 -75 106 -119l133 -59q71 -32 106.5 -76t35.5 -112
q0 -95 -67.5 -155t-184.5 -60zM244 -231l-2 19q58 9 58 40q0 11 -7 16.5t-24 12.5q-34 13 -34 49q0 21 14.5 34.5t37.5 13.5q26 0 43.5 -21t17.5 -53q0 -44 -29 -75t-75 -36z" />
    <glyph glyph-name="uni0219" unicode="&#x219;" horiz-adv-x="438" 
d="M207 -12q-100 0 -165 51v122h37q14 -62 53 -94t92 -32q42 0 67.5 20t25.5 55q0 29 -15 47t-49 29l-92 32q-116 38 -116 138q0 68 52 109t134 41q79 0 147 -32v-112h-36q-11 44 -44.5 72t-82.5 28q-39 0 -62.5 -18t-23.5 -47q0 -55 61 -77l106 -38q104 -38 104 -136
q0 -72 -53 -115t-140 -43zM181 -231l-2 19q58 9 58 40q0 11 -7 16.5t-24 12.5q-34 13 -34 49q0 21 14.5 34.5t37.5 13.5q26 0 43.5 -21t17.5 -53q0 -44 -29 -75t-75 -36z" />
    <glyph glyph-name="uni021A" unicode="&#x21a;" horiz-adv-x="632" 
d="M585 720h28v-239h-34q-11 95 -39.5 134t-92.5 39h-75v-513q0 -67 24 -87t102 -24v-30h-363v30q79 4 102.5 24.5t23.5 86.5v513h-74q-66 0 -94.5 -39.5t-38.5 -133.5h-35v239h29q11 -20 49 -20h439q38 0 49 20zM273 -231l-2 19q58 9 58 40q0 11 -7 16.5t-24 12.5
q-34 13 -34 49q0 21 14.5 34.5t37.5 13.5q26 0 43.5 -21t17.5 -53q0 -44 -29 -75t-75 -36z" />
    <glyph glyph-name="uni021B" unicode="&#x21b;" horiz-adv-x="363" 
d="M211 -12q-119 0 -119 130v324h-86v26q100 35 161 149h26v-123h134v-52h-134v-289q0 -49 22 -71.5t55 -22.5q32 0 66 25l18 -24q-64 -72 -143 -72zM164 -231l-2 19q58 9 58 40q0 11 -7 16.5t-24 12.5q-34 13 -34 49q0 21 14.5 34.5t37.5 13.5q26 0 43.5 -21t17.5 -53
q0 -44 -29 -75t-75 -36z" />
    <glyph glyph-name="uni0237" unicode="&#x237;" horiz-adv-x="299" 
d="M69 -237q-54 0 -88 22l9 32q24 -10 49 -10q70 0 70 83v486q0 26 -10.5 37t-36.5 11q-6 0 -38 -2v29l154 43h32v-579q0 -81 -40 -116.5t-101 -35.5z" />
    <glyph glyph-name="uni02BC" unicode="&#x2bc;" horiz-adv-x="280" 
d="M79 448l-3 26q83 16 83 70q0 20 -12.5 28t-35.5 12q-22 3 -38 20t-16 46q0 27 19 45t48 18q38 0 63.5 -31.5t25.5 -83.5q0 -67 -38 -105t-96 -45z" />
    <glyph glyph-name="circumflex" unicode="&#x2c6;" horiz-adv-x="600" 
d="M50 582l109 158h35l109 -158h-36l-90 85l-91 -85h-36z" />
    <glyph glyph-name="caron" unicode="&#x2c7;" horiz-adv-x="600" 
d="M159 582l-109 158h36l91 -86l90 86h36l-109 -158h-35z" />
    <glyph glyph-name="breve" unicode="&#x2d8;" horiz-adv-x="600" 
d="M255 730h29q0 -78 -32 -117t-85 -39t-85 39t-32 117h29q2 -48 26 -72t62 -24q37 0 61.5 24.5t26.5 71.5z" />
    <glyph glyph-name="dotaccent" unicode="&#x2d9;" horiz-adv-x="600" 
d="M122 565q-31 0 -51.5 21t-20.5 51t20.5 50.5t51.5 20.5q30 0 50.5 -20.5t20.5 -50.5t-20.5 -51t-50.5 -21z" />
    <glyph glyph-name="ring" unicode="&#x2da;" horiz-adv-x="600" 
d="M149 556q-42 0 -70.5 27.5t-28.5 70.5t28.5 70.5t70.5 27.5q41 0 70 -27.5t29 -70.5t-29 -70.5t-70 -27.5zM149 595q24 0 40 15.5t16 43.5t-16 43.5t-40 15.5t-40.5 -16t-16.5 -43t16.5 -43t40.5 -16z" />
    <glyph glyph-name="ogonek" unicode="&#x2db;" horiz-adv-x="600" 
d="M146 -237q-44 0 -70 27t-26 77q0 57 45.5 105t116.5 57v-29q-45 -14 -70.5 -46t-25.5 -67q0 -27 14.5 -43t41.5 -16q42 0 58 41l21 -10q-10 -44 -38.5 -70t-66.5 -26z" />
    <glyph glyph-name="tilde" unicode="&#x2dc;" horiz-adv-x="600" 
d="M239 592q-28 0 -60.5 20t-53.5 20q-37 0 -57 -39h-18q3 55 31.5 79.5t65.5 24.5q27 0 60 -20t54 -20q37 0 56 38h19q-3 -54 -31.5 -78.5t-65.5 -24.5z" />
    <glyph glyph-name="hungarumlaut" unicode="&#x2dd;" horiz-adv-x="600" 
d="M50 582l78 158h84v-23l-130 -135h-32zM194 582l78 158h84v-23l-130 -135h-32z" />
    <glyph glyph-name="gravecomb" unicode="&#x300;" horiz-adv-x="0" 
d="M-83 582l-138 139v23h92l79 -162h-33z" />
    <glyph glyph-name="acutecomb" unicode="&#x301;" horiz-adv-x="0" 
d="M-197 582h-33l75 162h92v-23z" />
    <glyph glyph-name="uni0302" unicode="&#x302;" horiz-adv-x="0" 
d="M-303 582l109 158h35l109 -158h-36l-90 85l-91 -85h-36z" />
    <glyph glyph-name="tildecomb" unicode="&#x303;" horiz-adv-x="0" 
d="M-147 592q-28 0 -60.5 20t-53.5 20q-37 0 -57 -39h-18q3 55 31.5 79.5t65.5 24.5q27 0 60 -20t54 -20q37 0 56 38h19q-3 -54 -31.5 -78.5t-65.5 -24.5z" />
    <glyph glyph-name="uni0304" unicode="&#x304;" horiz-adv-x="0" 
d="M-312 617v45h262v-45h-262z" />
    <glyph glyph-name="uni0306" unicode="&#x306;" horiz-adv-x="0" 
d="M-79 730h29q0 -78 -32 -117t-85 -39t-85 39t-32 117h29q2 -48 26 -72t62 -24q37 0 61.5 24.5t26.5 71.5z" />
    <glyph glyph-name="uni0307" unicode="&#x307;" horiz-adv-x="0" 
d="M-121 565q-31 0 -51.5 21t-20.5 51t20.5 50.5t51.5 20.5q30 0 50.5 -20.5t20.5 -50.5t-20.5 -51t-50.5 -21z" />
    <glyph glyph-name="uni0308" unicode="&#x308;" horiz-adv-x="0" 
d="M-305 583q-25 0 -42.5 17.5t-17.5 43.5t17.5 43t42.5 17q26 0 43.5 -17t17.5 -43t-17.5 -43.5t-43.5 -17.5zM-110 583q-26 0 -43.5 17.5t-17.5 43.5t17.5 43t43.5 17t43 -17t17 -43t-17 -43.5t-43 -17.5z" />
    <glyph glyph-name="uni030A" unicode="&#x30a;" horiz-adv-x="0" 
d="M-149 556q-42 0 -70.5 27.5t-28.5 70.5t28.5 70.5t70.5 27.5q41 0 70 -27.5t29 -70.5t-29 -70.5t-70 -27.5zM-149 595q24 0 40 15.5t16 43.5t-16 43.5t-40 15.5t-40.5 -16t-16.5 -43t16.5 -43t40.5 -16z" />
    <glyph glyph-name="uni030B" unicode="&#x30b;" horiz-adv-x="0" 
d="M-356 582l78 158h84v-23l-130 -135h-32zM-212 582l78 158h84v-23l-130 -135h-32z" />
    <glyph glyph-name="uni030C" unicode="&#x30c;" horiz-adv-x="0" 
d="M-194 582l-109 158h36l91 -86l90 86h36l-109 -158h-35z" />
    <glyph glyph-name="uni0312" unicode="&#x312;" horiz-adv-x="0" 
d="M-66 736l3 -25q-52 -6 -52 -29q0 -17 35 -30q30 -14 30 -48q0 -21 -15.5 -35t-40.5 -14q-28 0 -46 21t-18 54q0 45 28.5 74t75.5 32z" />
    <glyph glyph-name="uni0326" unicode="&#x326;" horiz-adv-x="0" 
d="M-154 -231l-2 19q58 9 58 40q0 11 -7 16.5t-24 12.5q-34 13 -34 49q0 21 14.5 34.5t37.5 13.5q26 0 43.5 -21t17.5 -53q0 -44 -29 -75t-75 -36z" />
    <glyph glyph-name="uni0327" unicode="&#x327;" horiz-adv-x="0" 
d="M-50 -146q0 -39 -26.5 -65t-68.5 -26q-34 0 -58 17.5t-32 47.5l17 6q16 -35 54 -35q24 0 40 15.5t16 41.5q0 23 -11.5 37.5t-33.5 14.5q-20 0 -39 -17l-14 9l58 103h29l-45 -76q12 9 35 9q34 0 56.5 -22.5t22.5 -59.5z" />
    <glyph glyph-name="uni0328" unicode="&#x328;" horiz-adv-x="0" 
d="M-155 -237q-44 0 -70 27t-26 77q0 57 45.5 105t116.5 57v-29q-45 -14 -70.5 -46t-25.5 -67q0 -27 14.5 -43t41.5 -16q42 0 58 41l21 -10q-10 -44 -38.5 -70t-66.5 -26z" />
    <glyph glyph-name="uni0394" unicode="&#x394;" horiz-adv-x="733" 
d="M11 0l-2 3l342 702h5l368 -702l-2 -3h-711zM38 18h576l-298 572z" />
    <glyph glyph-name="uni03A9" unicode="&#x3a9;" horiz-adv-x="717" 
d="M85 0v168h29q1 -44 25.5 -63.5t83.5 -19.5h62v62q-111 29 -174 98t-63 177q0 131 90 213t221 82q130 0 220 -82t90 -213q0 -108 -63 -177t-174 -98v-62h63q59 0 83 19.5t25 63.5h29v-168h-242v181q74 19 114 87.5t40 153.5q0 52 -9.5 95.5t-30 80t-57.5 57t-88 20.5
q-98 0 -142 -71.5t-44 -181.5q0 -85 40.5 -153.5t114.5 -87.5v-181h-243z" />
    <glyph glyph-name="uni03BC" unicode="&#x3bc;" horiz-adv-x="598" 
d="M93 -150v539q0 26 -12.5 37t-39.5 11h-27v31l157 26h23v-322q0 -109 98 -109q34 0 64 19t42 50v257q0 26 -12 37t-40 11h-27v31l157 26h23v-408q0 -27 13.5 -39t49.5 -16l12 -2v-29h-168v38q0 43 12 79l-6 2q-18 -61 -64.5 -96t-101.5 -35q-78 0 -117 49v-33
q0 -66 21 -96t81 -30h5v-28h-143z" />
    <glyph glyph-name="pi" unicode="&#x3c0;" horiz-adv-x="635" 
d="M507 -13q-38 0 -65.5 22t-27.5 75v372h-164v-456h-102v456h-37q-31 0 -42.5 -18.5t-13.5 -59.5h-27v116h586v-38h-98v-363q0 -21 10.5 -30t24.5 -9q26 0 41 24l14 -14q-24 -77 -99 -77z" />
    <glyph glyph-name="uni0E3F" unicode="&#xe3f;" horiz-adv-x="625" 
d="M391 349q90 0 142 -47t52 -117q0 -79 -56.5 -132t-167.5 -53h-9v-100h-34v100h-274l-1 29l13 1q44 4 59 27t15 79v398q0 56 -15 79t-59 26l-13 1l1 30h274v80h34v-80h1q96 0 149 -44.5t53 -119.5q0 -62 -45 -105.5t-120 -45.5l-32 -1l2 -5h31zM232 633v-264h86v264h-86z
M451 501q0 63 -25 93.5t-74 36.5v-260q47 7 73 40.5t26 89.5zM286 37h32v296h-86v-238q0 -29 12 -43.5t42 -14.5zM352 37q125 3 125 147q0 65 -32.5 104.5t-92.5 43.5v-295z" />
    <glyph glyph-name="Wgrave" unicode="&#x1e80;" horiz-adv-x="1065" 
d="M510 750l-131 114v26h90l90 -140h-49zM326 -5l-218 590q-17 46 -39.5 65t-59.5 21v29h293v-30q-47 -4 -63 -13t-16 -36q0 -17 11 -50l120 -358q15 -48 18 -91h5q3 44 19 92l108 324l-23 64q-15 43 -30 54t-57 15v29h288v-30q-50 -4 -67.5 -13.5t-17.5 -34.5q0 -19 8 -42
l122 -358q18 -54 21 -97h5q2 39 21 97l118 348q9 30 9 47q0 29 -18.5 39t-71.5 14v30h245v-29q-40 -6 -65 -25t-41 -65l-199 -586h-50l-145 415q-15 44 -15 91h-6q-4 -46 -19 -92l-141 -414h-49z" />
    <glyph glyph-name="wgrave" unicode="&#x1e81;" horiz-adv-x="839" 
d="M412 582l-138 139v23h92l79 -162h-33zM423 333q-4 -24 -20 -67l-112 -271h-36l-186 421q-13 30 -24.5 38.5t-39.5 9.5v30h233v-30q-29 0 -42 -8.5t-13 -27.5q0 -7 10 -37l82 -195q15 -34 16 -83h5q2 28 15 65l85 195l-19 43q-13 30 -24 38.5t-37 9.5v30h246v-30
q-41 0 -55.5 -7.5t-14.5 -28.5q0 -14 9 -39l81 -197q15 -35 15 -82h5q3 30 17 66l89 214q9 21 9 36q0 23 -15.5 30.5t-59.5 7.5v30h192v-30q-27 -1 -41.5 -12t-24.5 -39l-170 -418h-36l-118 271q-15 32 -16 67h-5z" />
    <glyph glyph-name="Wacute" unicode="&#x1e82;" horiz-adv-x="1065" 
d="M559 751h-49l90 139h90v-26zM326 -5l-218 590q-17 46 -39.5 65t-59.5 21v29h293v-30q-47 -4 -63 -13t-16 -36q0 -17 11 -50l120 -358q15 -48 18 -91h5q3 44 19 92l108 324l-23 64q-15 43 -30 54t-57 15v29h288v-30q-50 -4 -67.5 -13.5t-17.5 -34.5q0 -19 8 -42l122 -358
q18 -54 21 -97h5q2 39 21 97l118 348q9 30 9 47q0 29 -18.5 39t-71.5 14v30h245v-29q-40 -6 -65 -25t-41 -65l-199 -586h-50l-145 415q-15 44 -15 91h-6q-4 -46 -19 -92l-141 -414h-49z" />
    <glyph glyph-name="wacute" unicode="&#x1e83;" horiz-adv-x="839" 
d="M445 582h-33l75 162h92v-23zM423 333q-4 -24 -20 -67l-112 -271h-36l-186 421q-13 30 -24.5 38.5t-39.5 9.5v30h233v-30q-29 0 -42 -8.5t-13 -27.5q0 -7 10 -37l82 -195q15 -34 16 -83h5q2 28 15 65l85 195l-19 43q-13 30 -24 38.5t-37 9.5v30h246v-30q-41 0 -55.5 -7.5
t-14.5 -28.5q0 -14 9 -39l81 -197q15 -35 15 -82h5q3 30 17 66l89 214q9 21 9 36q0 23 -15.5 30.5t-59.5 7.5v30h192v-30q-27 -1 -41.5 -12t-24.5 -39l-170 -418h-36l-118 271q-15 32 -16 67h-5z" />
    <glyph glyph-name="Wdieresis" unicode="&#x1e84;" horiz-adv-x="1065" 
d="M430 767q-24 0 -41 16.5t-17 41.5t17 42t41 17q25 0 42 -17t17 -42t-17 -41.5t-42 -16.5zM638 767q-24 0 -41 16.5t-17 41.5t17 42t41 17t41 -17t17 -42t-17 -41.5t-41 -16.5zM326 -5l-218 590q-17 46 -39.5 65t-59.5 21v29h293v-30q-47 -4 -63 -13t-16 -36q0 -17 11 -50
l120 -358q15 -48 18 -91h5q3 44 19 92l108 324l-23 64q-15 43 -30 54t-57 15v29h288v-30q-50 -4 -67.5 -13.5t-17.5 -34.5q0 -19 8 -42l122 -358q18 -54 21 -97h5q2 39 21 97l118 348q9 30 9 47q0 29 -18.5 39t-71.5 14v30h245v-29q-40 -6 -65 -25t-41 -65l-199 -586h-50
l-145 415q-15 44 -15 91h-6q-4 -46 -19 -92l-141 -414h-49z" />
    <glyph glyph-name="wdieresis" unicode="&#x1e85;" horiz-adv-x="839" 
d="M330 583q-25 0 -42.5 17.5t-17.5 43.5t17.5 43t42.5 17q26 0 43.5 -17t17.5 -43t-17.5 -43.5t-43.5 -17.5zM525 583q-26 0 -43.5 17.5t-17.5 43.5t17.5 43t43.5 17t43 -17t17 -43t-17 -43.5t-43 -17.5zM423 333q-4 -24 -20 -67l-112 -271h-36l-186 421q-13 30 -24.5 38.5
t-39.5 9.5v30h233v-30q-29 0 -42 -8.5t-13 -27.5q0 -7 10 -37l82 -195q15 -34 16 -83h5q2 28 15 65l85 195l-19 43q-13 30 -24 38.5t-37 9.5v30h246v-30q-41 0 -55.5 -7.5t-14.5 -28.5q0 -14 9 -39l81 -197q15 -35 15 -82h5q3 30 17 66l89 214q9 21 9 36q0 23 -15.5 30.5
t-59.5 7.5v30h192v-30q-27 -1 -41.5 -12t-24.5 -39l-170 -418h-36l-118 271q-15 32 -16 67h-5z" />
    <glyph glyph-name="Ygrave" unicode="&#x1ef2;" horiz-adv-x="672" 
d="M352 750l-131 114v26h90l90 -140h-49zM453 700h214v-29q-26 -3 -44.5 -20t-42.5 -52l-183 -309v-149q0 -67 23.5 -87t102.5 -24v-30h-363v30q79 4 102.5 24.5t23.5 86.5v148l-175 288q-32 52 -53.5 70.5t-52.5 23.5v29h295v-30q-53 -2 -69.5 -9.5t-16.5 -29.5
q0 -20 18 -48l111 -182q29 -46 33 -72h5q3 23 30 69l110 185q16 32 16 48q0 35 -84 39v30z" />
    <glyph glyph-name="ygrave" unicode="&#x1ef3;" horiz-adv-x="548" 
d="M287 582l-138 139v23h92l79 -162h-33zM83 -237q-44 0 -77 15v113h25q34 -25 88 -25q85 0 127 71l12 23l-193 449q-15 36 -25.5 45.5t-33.5 9.5v30h253v-30q-78 0 -78 -46q0 -14 8 -33l94 -229q17 -41 17 -82l5 -1q4 27 18 65l93 238q9 23 9 37q0 51 -77 51v30h195v-30
q-36 0 -59 -55l-205 -492q-37 -88 -86 -121t-110 -33z" />
    <glyph glyph-name="uni2002" unicode="&#x2002;" horiz-adv-x="500" 
 />
    <glyph glyph-name="uni2003" unicode="&#x2003;" horiz-adv-x="1000" 
 />
    <glyph glyph-name="uni2004" unicode="&#x2004;" horiz-adv-x="333" 
 />
    <glyph glyph-name="uni2005" unicode="&#x2005;" horiz-adv-x="250" 
 />
    <glyph glyph-name="uni2009" unicode="&#x2009;" horiz-adv-x="133" 
 />
    <glyph glyph-name="uni200A" unicode="&#x200a;" horiz-adv-x="75" 
 />
    <glyph glyph-name="endash" unicode="&#x2013;" horiz-adv-x="538" 
d="M500 330v-47h-462v47h462z" />
    <glyph glyph-name="emdash" unicode="&#x2014;" horiz-adv-x="833" 
d="M795 330v-47h-757v47h757z" />
    <glyph glyph-name="quoteleft" unicode="&#x2018;" horiz-adv-x="275" 
d="M196 738l3 -26q-44 -7 -62 -26t-18 -41q0 -30 46 -38q21 -3 36.5 -19.5t15.5 -44.5q0 -26 -18 -43t-46 -17q-37 0 -61.5 30t-24.5 80q0 64 37 101t92 44z" />
    <glyph glyph-name="quoteright" unicode="&#x2019;" horiz-adv-x="280" 
d="M79 448l-3 26q83 16 83 70q0 20 -12.5 28t-35.5 12q-22 3 -38 20t-16 46q0 27 19 45t48 18q38 0 63.5 -31.5t25.5 -83.5q0 -67 -38 -105t-96 -45z" />
    <glyph glyph-name="quotesinglbase" unicode="&#x201a;" horiz-adv-x="280" 
d="M79 -132l-3 26q83 16 83 70q0 20 -12.5 28t-35.5 12q-22 3 -38 20t-16 46q0 27 19 45t48 18q38 0 63.5 -31.5t25.5 -83.5q0 -67 -38 -105t-96 -45z" />
    <glyph glyph-name="quotedblleft" unicode="&#x201c;" horiz-adv-x="459" 
d="M196 738l3 -26q-44 -7 -62 -26t-18 -41q0 -30 46 -38q21 -3 36.5 -19.5t15.5 -44.5q0 -26 -18 -43t-46 -17q-37 0 -61.5 30t-24.5 80q0 64 37 101t92 44zM380 738l3 -26q-44 -7 -61.5 -26t-17.5 -41q0 -30 45 -38q22 -3 37.5 -19.5t15.5 -44.5q0 -26 -18.5 -43t-46.5 -17
q-36 0 -60.5 30t-24.5 80q0 64 36.5 101t91.5 44z" />
    <glyph glyph-name="quotedblright" unicode="&#x201d;" horiz-adv-x="470" 
d="M79 447l-3 27q83 16 83 70q0 20 -12.5 27.5t-35.5 11.5q-22 4 -38 21t-16 46q0 27 19 45t48 18q38 0 63.5 -31.5t25.5 -83.5q0 -67 -38 -105t-96 -46zM269 448l-3 26q45 9 64 28.5t19 41.5q0 32 -48 40q-22 3 -38 20t-16 46q0 27 18.5 45t48.5 18q38 0 63 -31.5t25 -83.5
q0 -67 -38 -105t-95 -45z" />
    <glyph glyph-name="quotedblbase" unicode="&#x201e;" horiz-adv-x="470" 
d="M89 -133l-3 27q83 16 83 70q0 20 -12.5 27.5t-35.5 11.5q-22 4 -38 21t-16 46q0 27 19 45t48 18q38 0 63.5 -31.5t25.5 -83.5q0 -67 -38 -105t-96 -46zM279 -132l-3 26q45 9 64 28.5t19 41.5q0 32 -48 40q-22 3 -38 20t-16 46q0 27 18.5 45t48.5 18q38 0 63 -31.5
t25 -83.5q0 -67 -38 -105t-95 -45z" />
    <glyph glyph-name="dagger" unicode="&#x2020;" horiz-adv-x="497" 
d="M336 234q-40 -34 -53.5 -95.5t-18.5 -223.5h-31q-5 162 -18.5 223.5t-53.5 95.5v30q33 7 48.5 30t15.5 68v27q0 38 -11.5 49.5t-50.5 11.5h-33q-38 0 -52 -17t-15 -64h-23v205h23q1 -47 15 -64t52 -17h33q40 0 51 9.5t11 46.5v16q0 46 -16 63t-63 19v23h205v-23
q-47 -2 -63 -19t-16 -63v-16q0 -37 11 -46.5t51 -9.5h33q38 0 52 17t15 64h23v-205h-23q-1 47 -15 64t-52 17h-33q-39 0 -50.5 -11.5t-11.5 -49.5v-27q0 -45 15.5 -68t48.5 -30v-30z" />
    <glyph glyph-name="daggerdbl" unicode="&#x2021;" horiz-adv-x="497" 
d="M123 317q57 0 79.5 15.5t22.5 56.5q0 38 -11.5 49.5t-50.5 11.5h-33q-38 0 -52 -17t-15 -64h-23v205h23q1 -47 15 -64t52 -17h33q40 0 51 9.5t11 46.5v16q0 46 -16 63t-63 19v23h205v-23q-47 -2 -63 -19t-16 -63v-16q0 -37 11 -46.5t51 -9.5h33q38 0 52 17t15 64h23v-205
h-23q-1 47 -15 64t-52 17h-33q-39 0 -50.5 -11.5t-11.5 -49.5q0 -41 22.5 -56.5t79.5 -15.5v-24q-57 0 -79.5 -15.5t-22.5 -56.5q0 -38 11.5 -49.5t50.5 -11.5h33q38 0 52 17t15 64h23v-205h-23q-1 47 -15 64t-52 17h-33q-40 0 -51 -9.5t-11 -46.5v-16q0 -46 16 -63t63 -19
v-23h-205v23q47 2 63 19t16 63v16q0 37 -11 46.5t-51 9.5h-33q-38 0 -52 -17t-15 -64h-23v205h23q1 -47 15 -64t52 -17h33q39 0 50.5 11.5t11.5 49.5q0 41 -22.5 56.5t-79.5 15.5v24z" />
    <glyph glyph-name="bullet" unicode="&#x2022;" horiz-adv-x="600" 
d="M300 258q-38 0 -65 27t-27 65q0 39 27 66t65 27t65 -27t27 -66q0 -38 -27 -65t-65 -27z" />
    <glyph glyph-name="ellipsis" unicode="&#x2026;" horiz-adv-x="706" 
d="M572 -6q-32 0 -55 22.5t-23 54.5t23 55t55 23t54.5 -23t22.5 -55t-22.5 -54.5t-54.5 -22.5zM135 -8q-32 0 -55 23t-23 55t23 54.5t55 22.5q31 0 54 -22.5t23 -54.5t-22.5 -55t-54.5 -23zM355 -8q-32 0 -54.5 23t-22.5 55t22.5 54.5t54.5 22.5t55 -22.5t23 -54.5t-23 -55
t-55 -23z" />
    <glyph glyph-name="perthousand" unicode="&#x2030;" horiz-adv-x="1130" 
d="M143 -40l429 722h59l-427 -722h-61zM201 316q-73 0 -117 47.5t-44 125.5t44 125.5t117 47.5q72 0 116 -47.5t44 -125.5t-43.5 -125.5t-116.5 -47.5zM201 353q35 0 53 38t18 98t-18 97.5t-53 37.5t-53 -37.5t-18 -97.5t18 -98t53 -38zM577 -20q-73 0 -117 47.5t-44 125.5
t44 125.5t117 47.5q72 0 116 -47.5t44 -125.5t-44 -125.5t-116 -47.5zM930 -20q-73 0 -117 47.5t-44 125.5t44 125.5t117 47.5q72 0 116 -47.5t44 -125.5t-44 -125.5t-116 -47.5zM577 17q35 0 53 38t18 98t-18 98t-53 38t-53 -38t-18 -98t18 -98t53 -38zM930 17q35 0 53 38
t18 98t-18 98t-53 38t-53 -38t-18 -98t18 -98t53 -38z" />
    <glyph glyph-name="guilsinglleft" unicode="&#x2039;" horiz-adv-x="367" 
d="M289 486v-34l-124 -184l124 -184v-34l-221 201v34z" />
    <glyph glyph-name="guilsinglright" unicode="&#x203a;" horiz-adv-x="367" 
d="M78 486l221 -201v-34l-221 -201v34l124 184l-124 184v34z" />
    <glyph glyph-name="fraction" unicode="&#x2044;" horiz-adv-x="97" 
d="M-195 -40l429 722h58l-427 -722h-60z" />
    <glyph glyph-name="Euro" unicode="&#x20ac;" 
d="M516 169l30 -13q-20 -81 -73.5 -124.5t-132.5 -43.5q-110 0 -179.5 80.5t-79.5 218.5h-62v34h61v5q0 33 3 63h-64v34h69q21 122 92 190.5t179 68.5q105 0 167 -44v-148h-34q-29 140 -143 140q-72 0 -121 -56t-60 -151h261v-34h-264v-20q0 -18 2 -48h262v-34h-257
q18 -94 73.5 -148.5t135.5 -54.5q99 0 135 85z" />
    <glyph glyph-name="uni20B9" unicode="&#x20b9;" horiz-adv-x="511" 
d="M372 105q43 -75 119 -76v-29h-180q-23 24 -59 91l-49 92q-39 70 -66.5 97t-69.5 27h-30v37h49q148 0 162 128h-211v38h213q-6 122 -156 122h-57v38h416v-38h-164q76 -43 79 -122h85v-38h-89q-14 -61 -72.5 -100.5t-140.5 -42.5l-33 -1v-7l36 -1q59 -2 91 -28.5t80 -106.5
z" />
    <glyph glyph-name="uni20BA" unicode="&#x20ba;" horiz-adv-x="607" 
d="M350 270h226v-30h-5q-39 0 -39 -74q0 -166 -195 -166h-294v30l14 1q49 4 66 28t17 82v109l-88 -41v33l88 41v66l-88 -41v33l88 41v147q0 58 -17 82t-66 28l-14 1v30h300v-30l-22 -2q-43 -4 -59 -27.5t-16 -81.5v-98l166 77v-33l-166 -77v-66l166 77v-33l-166 -77v-264h45
q81 0 113.5 32.5t32.5 98.5q0 74 -82 74h-5v30z" />
    <glyph glyph-name="uni20BD" unicode="&#x20bd;" horiz-adv-x="611" 
d="M347 302h-102v-72h196v-34h-196v-61q0 -57 18.5 -79.5t79.5 -25.5l23 -1l-1 -29h-322v29l14 1q46 4 62.5 27t16.5 78v61h-90v34h90v304q0 55 -16.5 78.5t-62.5 26.5l-14 1v30h313q98 0 165 -45t67 -134q0 -92 -71 -140.5t-170 -48.5zM245 634v-294h89q69 0 105.5 38.5
t36.5 113.5q0 142 -135 142h-96z" />
    <glyph glyph-name="uni20BF" unicode="&#x20bf;" horiz-adv-x="625" 
d="M585 185q0 -77 -54 -129t-158 -56v-100h-34v100h-70v-100h-34v100h-191l-1 29l13 1q44 4 59 27t15 79v398q0 56 -15 79t-59 26l-13 1l1 30h191v80h34v-80h70v80h34v-81q87 -4 134.5 -48t47.5 -115q0 -62 -45 -105.5t-120 -45.5l-32 -1l2 -5h31q90 0 142 -47t52 -117z
M232 633v-264h94q59 0 92 34.5t33 97.5q0 73 -33.5 102.5t-98.5 29.5h-87zM347 37q130 0 130 147q0 70 -37 109.5t-104 39.5h-104v-238q0 -29 12 -43.5t42 -14.5h61z" />
    <glyph glyph-name="uni2113" unicode="&#x2113;" horiz-adv-x="600" 
d="M438 166l28 -13q-30 -87 -74.5 -127t-109.5 -40q-134 0 -152 212q-43 -23 -54 -28l-16 37q40 15 68 31v26q0 123 28.5 224.5t79 159.5t112.5 58q54 0 85.5 -34.5t31.5 -95.5q0 -92 -59 -170.5t-189 -158.5q12 -179 109 -179q34 0 60.5 23t51.5 75zM215 298v-4
q78 61 121.5 139t43.5 153q0 61 -45 61q-52 0 -86 -102.5t-34 -246.5z" />
    <glyph glyph-name="uni2116" unicode="&#x2116;" horiz-adv-x="1154" 
d="M643 -5l-409 525q-33 44 -47 80l-4 -1q7 -40 7 -101v-378q1 -51 20 -66.5t82 -23.5v-30h-249v30q59 5 78 26.5t19 84.5v493q-20 20 -37 25.5t-59 10.5v29h202l322 -419q47 -62 68 -113l6 2q-5 45 -5 115v281q0 62 -18.5 80t-82.5 25v30h248v-30q-61 -5 -78.5 -25.5
t-17.5 -85.5v-564h-45zM930 147q-86 0 -135.5 52.5t-49.5 133.5t49.5 133.5t135.5 52.5t135.5 -52.5t49.5 -133.5t-49.5 -133.5t-135.5 -52.5zM930 192q90 0 90 141q0 142 -90 142q-91 0 -91 -142q0 -141 91 -141zM767 0v70h326v-70h-326z" />
    <glyph glyph-name="trademark" unicode="&#x2122;" horiz-adv-x="851" 
d="M317 680h18v-123h-22l-2 19q-9 67 -63 67h-36v-246q0 -30 10 -43t43 -13h12v-21h-200v21h12q30 0 41.5 11.5t11.5 44.5v246h-34q-57 0 -65 -67l-3 -19h-21v123h18q4 -10 26 -10h229q21 0 25 10zM547 313l-98 243q-14 35 -21 63h-2l-12 -229q-1 -27 6 -37.5t26 -12.5h14
v-20h-126v21l12 1q20 0 28 9.5t10 39.5l12 213q3 45 -35 45h-10v21h125l76 -187q19 -48 25 -77h2q4 23 22 65l86 199h123v-22h-11q-39 0 -36 -44l12 -215q2 -26 10 -36.5t28 -10.5l12 -1v-21h-163v21h12q35 1 32 48l-11 231h-2q-5 -15 -29 -75l-97 -232h-20z" />
    <glyph glyph-name="uni2126" unicode="&#x2126;" horiz-adv-x="717" 
d="M85 0v168h29q1 -44 25.5 -63.5t83.5 -19.5h62v62q-111 29 -174 98t-63 177q0 131 90 213t221 82q130 0 220 -82t90 -213q0 -108 -63 -177t-174 -98v-62h63q59 0 83 19.5t25 63.5h29v-168h-242v181q74 19 114 87.5t40 153.5q0 52 -9.5 95.5t-30 80t-57.5 57t-88 20.5
q-98 0 -142 -71.5t-44 -181.5q0 -85 40.5 -153.5t114.5 -87.5v-181h-243z" />
    <glyph glyph-name="estimated" unicode="&#x212e;" horiz-adv-x="701" 
d="M352 13q151 0 226 104l17 -13q-40 -60 -104.5 -88t-138.5 -28q-136 0 -220 91t-84 228q0 138 85.5 230.5t218.5 92.5q137 0 218.5 -90t82.5 -236h-532v-173q79 -118 231 -118zM352 605q-153 0 -231 -122v-156h452v174q-77 104 -221 104z" />
    <glyph glyph-name="uni2153" unicode="&#x2153;" horiz-adv-x="800" 
d="M57 298v22h14q37 1 51.5 12t14.5 34v237q0 48 -61 34l-16 -4l-8 19l138 55h24v-341q0 -22 15 -33.5t53 -12.5h13v-22h-238zM575 682h58l-427 -722h-60zM638 206q51 -1 82 -27.5t31 -69.5q0 -50 -38 -83t-100 -33q-86 0 -128 66l17 12q36 -40 83 -40q38 0 60.5 22.5
t22.5 61.5q0 36 -24.5 56t-66.5 20h-28v30h23q38 0 61 22t23 58q0 32 -17.5 50.5t-49.5 18.5q-51 0 -78 -55l-21 11q33 83 128 83q56 0 88.5 -26t32.5 -69q0 -40 -30 -69t-76 -32l-21 -2v-5h26z" />
    <glyph glyph-name="uni2154" unicode="&#x2154;" horiz-adv-x="839" 
d="M53 298l-7 19l79 73q106 96 106 183q0 37 -18.5 61t-55.5 24q-65 0 -83 -74l-22 5q7 57 45.5 87.5t93.5 30.5q52 0 86 -27t34 -76q0 -56 -35.5 -101.5t-103.5 -100.5l-36 -31v-4h119q23 0 36 8.5t24 33.5h21l-34 -111h-249zM185 -40l429 722h58l-427 -722h-60zM540 71
q36 -40 83 -40q38 0 60.5 22.5t22.5 61.5q0 36 -24.5 56t-66.5 20h-28v30h23q38 0 61 22t23 58q0 32 -17.5 50.5t-49.5 18.5q-51 0 -78 -55l-21 11q33 83 128 83q56 0 88.5 -26t32.5 -69q0 -40 -30 -69t-76 -32l-21 -2v-5h26q51 -1 82 -27.5t31 -69.5q0 -50 -38 -83
t-100 -33q-86 0 -128 66z" />
    <glyph glyph-name="oneeighth" unicode="&#x215b;" horiz-adv-x="838" 
d="M57 298v22h14q37 1 51.5 12t14.5 34v237q0 48 -61 34l-16 -4l-8 19l138 55h24v-341q0 -22 15 -33.5t53 -12.5h13v-22h-238zM575 682h58l-427 -722h-60zM718 210q71 -41 71 -102q0 -52 -41 -83.5t-109 -31.5t-109.5 28t-41.5 75q0 73 98 104l-16 8q-68 39 -68 98
q0 46 38 74.5t99 28.5q59 0 95.5 -26t36.5 -67q0 -60 -83 -89zM639 386q-31 0 -48.5 -14.5t-17.5 -40.5q0 -38 51 -68l48 -27q39 26 39 79q0 33 -19 52t-53 19zM639 17q36 0 56 18t20 50q0 43 -58 76l-51 28q-50 -30 -50 -89q0 -83 83 -83z" />
    <glyph glyph-name="threeeighths" unicode="&#x215c;" horiz-adv-x="859" 
d="M312 407q0 -50 -38 -83t-100 -33q-86 0 -128 66l17 12q36 -40 83 -40q38 0 60.5 22.5t22.5 61.5q0 36 -24.5 56t-66.5 20h-28v30h23q38 0 61 22t23 58q0 32 -17.5 50.5t-49.5 18.5q-50 0 -78 -55l-21 11q33 83 128 83q56 0 88.5 -26t32.5 -69q0 -40 -30 -69t-76 -32
l-21 -2v-5h26q51 -1 82 -27.5t31 -69.5zM596 682h58l-427 -722h-60zM738 210q71 -41 71 -102q0 -52 -41.5 -83.5t-108.5 -31.5q-68 0 -109.5 28t-41.5 75q0 73 98 104l-16 8q-68 39 -68 98q0 46 38 74.5t99 28.5q59 0 95.5 -26t36.5 -67q0 -60 -83 -89zM659 386
q-31 0 -48.5 -14.5t-17.5 -40.5q0 -38 51 -68l48 -27q39 26 39 79q0 33 -19 52t-53 19zM659 17q36 0 56 18t20 50q0 43 -58 76l-51 28q-50 -30 -50 -89q0 -83 83 -83z" />
    <glyph glyph-name="fiveeighths" unicode="&#x215d;" horiz-adv-x="871" 
d="M302 421q0 -59 -44 -94.5t-100 -35.5q-41 0 -73 15.5t-46 42.5l20 14q8 -17 27.5 -28t42.5 -11q36 0 62 25t26 72q0 37 -20 62.5t-60 25.5q-25 0 -49 -12l-18 10l45 193h147q34 0 49 18h21l-28 -87h-184l-27 -110l4 -2q34 17 74 17q58 0 94.5 -31.5t36.5 -83.5zM608 682
h58l-427 -722h-60zM750 210q71 -41 71 -102q0 -52 -41.5 -83.5t-108.5 -31.5q-68 0 -109.5 28t-41.5 75q0 73 98 104l-16 8q-68 39 -68 98q0 46 38 74.5t99 28.5q59 0 95.5 -26t36.5 -67q0 -60 -83 -89zM671 386q-31 0 -48.5 -14.5t-17.5 -40.5q0 -38 51 -68l48 -27
q39 26 39 79q0 33 -19 52t-53 19zM671 17q36 0 56 18t20 50q0 43 -58 76l-51 28q-50 -30 -50 -89q0 -83 83 -83z" />
    <glyph glyph-name="arrowleft" unicode="&#x2190;" horiz-adv-x="822" 
d="M783 336v-60h-586l111 -139v-46l-240 215l240 215v-45l-111 -140h586z" />
    <glyph glyph-name="arrowup" unicode="&#x2191;" horiz-adv-x="466" 
d="M448 510h-46l-138 111v-661h-62v661l-138 -111h-46l215 240z" />
    <glyph glyph-name="arrowright" unicode="&#x2192;" horiz-adv-x="822" 
d="M513 91v46l112 139h-587v60h587l-112 140v45l240 -215z" />
    <glyph glyph-name="arrowdown" unicode="&#x2193;" horiz-adv-x="466" 
d="M402 200h46l-215 -240l-215 240h46l138 -111v661h62v-661z" />
    <glyph glyph-name="arrowboth" unicode="&#x2194;" horiz-adv-x="931" 
d="M673 91v46l112 139h-638l111 -139v-46l-240 215l240 215v-45l-111 -140h638l-112 140v45l240 -215z" />
    <glyph glyph-name="arrowupdn" unicode="&#x2195;" horiz-adv-x="466" 
d="M264 89l138 111h46l-215 -240l-215 240h46l138 -111v532l-138 -111h-46l215 240l215 -240h-46l-138 111v-532z" />
    <glyph glyph-name="uni2196" unicode="&#x2196;" horiz-adv-x="736" 
d="M718 43l-43 -43l-588 587l-19 -176l-32 -32l-18 321l322 -18l-32 -32l-177 -19z" />
    <glyph glyph-name="uni2197" unicode="&#x2197;" horiz-adv-x="736" 
d="M397 682l321 18l-17 -321l-32 32l-20 176l-588 -587l-43 43l587 588l-176 19z" />
    <glyph glyph-name="uni2198" unicode="&#x2198;" horiz-adv-x="736" 
d="M397 18l32 32l176 19l-587 588l43 43l588 -587l20 176l32 32l17 -321z" />
    <glyph glyph-name="uni2199" unicode="&#x2199;" horiz-adv-x="736" 
d="M131 69l177 -19l32 -32l-322 -18l18 321l32 -32l19 -176l588 587l43 -43z" />
    <glyph glyph-name="partialdiff" unicode="&#x2202;" horiz-adv-x="556" 
d="M313 715q98 -2 151 -73t53 -207q0 -200 -87 -325t-214 -125q-85 0 -131 45.5t-46 118.5q0 63 25 116t64 86t88 56.5t94.5 34t86.5 11.5q-15 188 -131 188q-93 0 -140 -109l-25 13q55 167 212 170zM249 21q38 0 68 38t47.5 96t26.5 118.5t9 112.5q0 25 -1 36
q-112 -2 -179.5 -69t-67.5 -192q0 -68 25 -104t72 -36z" />
    <glyph glyph-name="emptyset" unicode="&#x2205;" 
d="M543 585l-68 -63q48 -63 48 -150q0 -101 -64.5 -169.5t-168.5 -68.5q-102 0 -166 66l-67 -62l-21 22l68 63q-47 64 -47 149q0 101 64.5 169.5t168.5 68.5q100 0 165 -65l67 62zM93 372q0 -72 37 -126l300 276q-54 56 -140 56q-89 0 -143 -59.5t-54 -146.5zM487 372
q0 74 -38 127l-300 -276q55 -57 141 -57q89 0 143 59.5t54 146.5z" />
    <glyph glyph-name="uni2206" unicode="&#x2206;" horiz-adv-x="733" 
d="M11 0l-2 3l342 702h5l368 -702l-2 -3h-711zM38 18h576l-298 572z" />
    <glyph glyph-name="product" unicode="&#x220f;" horiz-adv-x="779" 
d="M713 668q-42 -5 -58 -28t-16 -81v-418q0 -57 17 -81.5t65 -28.5l15 -1v-30h-303v30l14 1q48 4 64.5 28t16.5 82v513h-277v-513q0 -57 17 -81.5t64 -28.5l14 -1v-30h-303v30l14 1q49 4 66 28t17 82v418q0 58 -17 82t-66 28l-14 1v30h693v-30z" />
    <glyph glyph-name="summation" unicode="&#x2211;" horiz-adv-x="669" 
d="M47 -150l-3 5l300 392l-285 449l2 4h536v-202h-31q-24 89 -68.5 124t-140.5 35h-139l231 -360v-16l-264 -331h288q62 0 86.5 18.5t25.5 66.5h37v-185h-575z" />
    <glyph glyph-name="minus" unicode="&#x2212;" 
d="M90 285v43h400v-43h-400z" />
    <glyph glyph-name="radical" unicode="&#x221a;" horiz-adv-x="813" 
d="M285 -15l-183 450h-97v35h125l161 -407l304 703h213v-35h-189l-328 -746h-6z" />
    <glyph glyph-name="infinity" unicode="&#x221e;" horiz-adv-x="644" 
d="M174 130q-58 0 -97 38.5t-39 95.5t39 95.5t97 38.5q72 0 148 -95q77 95 148 95q58 0 97 -38.5t39 -95.5t-39 -95.5t-97 -38.5q-40 0 -74.5 23t-73.5 72q-39 -49 -73.5 -72t-74.5 -23zM170 173q31 0 59.5 21t68.5 70q-40 49 -68.5 70t-59.5 21q-36 0 -60.5 -25.5
t-24.5 -65.5t24.5 -65.5t60.5 -25.5zM474 173q36 0 60.5 25.5t24.5 65.5t-24.5 65.5t-60.5 25.5q-31 0 -59 -20.5t-69 -70.5q41 -50 69 -70.5t59 -20.5z" />
    <glyph glyph-name="integral" unicode="&#x222b;" horiz-adv-x="500" 
d="M-4 -237q-85 0 -147 52l80 104l13 -4q8 -125 69 -125q25 0 44.5 32.5t28.5 89.5l100 613q13 88 68.5 140t134.5 52q86 0 146 -53l-79 -103l-13 4q-4 60 -22 92.5t-47 32.5q-25 0 -44.5 -32.5t-28.5 -89.5l-100 -613q-14 -88 -69 -140t-134 -52z" />
    <glyph glyph-name="approxequal" unicode="&#x2248;" 
d="M382 313q-49 0 -110 25.5t-96 25.5q-68 0 -97 -45l-5 1q27 87 134 87q35 0 96 -25.5t110 -25.5q68 0 97 45l5 -1q-27 -87 -134 -87zM372 184q-49 0 -110 25.5t-96 25.5q-68 0 -97 -45l-5 1q27 87 134 87q35 0 96 -25.5t110 -25.5q68 0 97 45l5 -1q-27 -87 -134 -87z" />
    <glyph glyph-name="notequal" unicode="&#x2260;" 
d="M490 355h-162l-49 -97h211v-43h-232l-70 -139h-48l69 139h-119v43h141l48 97h-189v43h210l66 132h50l-66 -132h140v-43z" />
    <glyph glyph-name="lessequal" unicode="&#x2264;" 
d="M490 64l-400 192v42l400 192v-50l-340 -161v-4l340 -161v-50zM90 0v43h400v-43h-400z" />
    <glyph glyph-name="greaterequal" unicode="&#x2265;" 
d="M89 64v50l340 161v4l-340 161v50l400 -192v-42zM489 0h-400v43h400v-43z" />
    <glyph glyph-name="uni2460" unicode="&#x2460;" horiz-adv-x="876" 
d="M438 740q173 0 281.5 -108t108.5 -282t-108.5 -282t-281.5 -108t-281.5 108t-108.5 282t108.5 282t281.5 108zM438 -4q152 0 250 97.5t98 256.5t-98 256.5t-250 97.5q-151 0 -249.5 -98t-98.5 -256t98.5 -256t249.5 -98zM475 233q0 -41 62 -42h12v-20h-217v20h13
q60 1 60 42v216q0 44 -55 30l-15 -4l-7 18l125 50h22v-310z" />
    <glyph glyph-name="uni2461" unicode="&#x2461;" horiz-adv-x="876" 
d="M438 -40q-173 0 -281.5 108t-108.5 282t108.5 282t281.5 108t281.5 -108t108.5 -282t-108.5 -282t-281.5 -108zM438 -4q152 0 250 97.5t98 256.5t-98 256.5t-250 97.5q-151 0 -249.5 -98t-98.5 -256t98.5 -256t249.5 -98zM312 169l-6 18l72 66q96 88 96 167
q0 34 -17 55.5t-51 21.5q-58 0 -75 -68l-20 5q7 52 41.5 79.5t84.5 27.5q48 0 79 -24.5t31 -68.5q0 -52 -33 -93.5t-94 -90.5l-32 -28v-4h108q21 0 33 7.5t21 30.5h20l-32 -101h-226z" />
    <glyph glyph-name="uni2462" unicode="&#x2462;" horiz-adv-x="876" 
d="M438 -40q-173 0 -281.5 108t-108.5 282t108.5 282t281.5 108t281.5 -108t108.5 -282t-108.5 -282t-281.5 -108zM438 -4q152 0 250 97.5t98 256.5t-98 256.5t-250 97.5q-151 0 -249.5 -98t-98.5 -256t98.5 -256t249.5 -98zM333 236q33 -37 75 -37q34 0 54.5 21t20.5 56
q0 33 -22 51t-60 18h-26v28h21q35 0 55.5 19.5t20.5 52.5q0 62 -61 62q-45 0 -70 -49l-19 10q30 75 116 75q51 0 80.5 -23.5t29.5 -62.5q0 -36 -27.5 -62.5t-69.5 -29.5l-18 -2v-4h23q47 -1 75 -25t28 -64q0 -45 -34.5 -75t-90.5 -30q-80 0 -117 60z" />
    <glyph glyph-name="uni2463" unicode="&#x2463;" horiz-adv-x="876" 
d="M438 740q173 0 281.5 -108t108.5 -282t-108.5 -282t-281.5 -108t-281.5 108t-108.5 282t108.5 282t281.5 108zM438 -4q152 0 250 97.5t98 256.5t-98 256.5t-250 97.5q-151 0 -249.5 -98t-98.5 -256t98.5 -256t249.5 -98zM503 541v-224h57v-36h-56v-52q0 -36 32 -37l11 -1
v-20h-181v21h13q34 3 44.5 15.5t10.5 45.5v28h-159v18l176 242h52zM318 317h118v163h-3l-115 -160v-3z" />
    <glyph glyph-name="uni2464" unicode="&#x2464;" horiz-adv-x="876" 
d="M438 -40q-173 0 -281.5 108t-108.5 282t108.5 282t281.5 108t281.5 -108t108.5 -282t-108.5 -282t-281.5 -108zM438 -4q152 0 250 97.5t98 256.5t-98 256.5t-250 97.5q-151 0 -249.5 -98t-98.5 -256t98.5 -256t249.5 -98zM412 169q-78 0 -108 53l18 12q20 -35 64 -35
q32 0 56 22.5t24 65.5q0 34 -18.5 57t-54.5 23q-22 0 -44 -11l-17 9l41 176h133q32 0 45 16h19l-25 -79h-167l-25 -100l4 -2q32 16 67 16q53 0 86 -28.5t33 -76.5q0 -54 -40 -86t-91 -32z" />
    <glyph glyph-name="uni2465" unicode="&#x2465;" horiz-adv-x="876" 
d="M438 740q173 0 281.5 -108t108.5 -282t-108.5 -282t-281.5 -108t-281.5 108t-108.5 282t108.5 282t281.5 108zM438 -4q152 0 250 97.5t98 256.5t-98 256.5t-250 97.5q-151 0 -249.5 -98t-98.5 -256t98.5 -256t249.5 -98zM458 404q47 0 76.5 -29.5t29.5 -78.5
q0 -56 -37.5 -91.5t-96.5 -35.5q-65 0 -102.5 43t-37.5 118q0 95 57 156t144 61q49 0 71 -13l-9 -19q-21 7 -50 7q-128 0 -137 -167h3q26 49 89 49zM432 193q59 0 59 90q0 86 -64 86q-46 0 -62 -44q0 -132 67 -132z" />
    <glyph glyph-name="uni2466" unicode="&#x2466;" horiz-adv-x="876" 
d="M438 -40q-173 0 -281.5 108t-108.5 282t108.5 282t281.5 108t281.5 -108t108.5 -282t-108.5 -282t-281.5 -108zM438 -4q152 0 250 97.5t98 256.5t-98 256.5t-250 97.5q-151 0 -249.5 -98t-98.5 -256t98.5 -256t249.5 -98zM363 169q11 91 48 171t97 129v2h-134
q-22 0 -34 -8.5t-19 -30.5h-20l32 103h236l6 -16q-69 -66 -95 -150t-28 -200h-89z" />
    <glyph glyph-name="uni2467" unicode="&#x2467;" horiz-adv-x="876" 
d="M438 740q173 0 281.5 -108t108.5 -282t-108.5 -282t-281.5 -108t-281.5 108t-108.5 282t108.5 282t281.5 108zM438 -4q152 0 250 97.5t98 256.5t-98 256.5t-250 97.5q-151 0 -249.5 -98t-98.5 -256t98.5 -256t249.5 -98zM510 362q65 -37 65 -93q0 -47 -38 -75.5
t-99 -28.5q-62 0 -99.5 25.5t-37.5 67.5q0 68 89 94l-14 8q-63 35 -63 89q0 41 34.5 67.5t90.5 26.5q53 0 86.5 -23.5t33.5 -60.5q0 -55 -75 -82zM438 522q-28 0 -44 -13.5t-16 -36.5q0 -35 46 -61l45 -25q35 23 35 71q0 30 -17.5 47.5t-48.5 17.5zM438 186q32 0 50.5 16.5
t18.5 45.5q0 40 -53 69l-46 26q-45 -28 -45 -81q0 -76 75 -76z" />
    <glyph glyph-name="uni2468" unicode="&#x2468;" horiz-adv-x="876" 
d="M438 740q173 0 281.5 -108t108.5 -282t-108.5 -282t-281.5 -108t-281.5 108t-108.5 282t108.5 282t281.5 108zM438 -4q152 0 250 97.5t98 256.5t-98 256.5t-250 97.5q-151 0 -249.5 -98t-98.5 -256t98.5 -256t249.5 -98zM451 539q65 0 102.5 -43t37.5 -118
q0 -95 -56.5 -156t-143.5 -61q-49 0 -71 13l9 20q20 -8 49 -8q129 0 138 167h-4q-24 -49 -88 -49q-47 0 -76.5 30t-29.5 79q0 55 37.5 90.5t95.5 35.5zM455 339q44 0 62 45q0 132 -67 132q-28 0 -43.5 -24t-15.5 -67q0 -86 64 -86z" />
    <glyph glyph-name="uni24EA" unicode="&#x24ea;" horiz-adv-x="876" 
d="M438 -40q-173 0 -281.5 108t-108.5 282t108.5 282t281.5 108t281.5 -108t108.5 -282t-108.5 -282t-281.5 -108zM438 -4q152 0 250 97.5t98 256.5t-98 256.5t-250 97.5q-151 0 -249.5 -98t-98.5 -256t98.5 -256t249.5 -98zM437 163q-69 0 -109 51t-40 140q0 88 40 138.5
t109 50.5q70 0 110.5 -50.5t40.5 -138.5q0 -89 -40.5 -140t-110.5 -51zM437 190q46 0 61 42.5t15 121.5q0 78 -15 120.5t-61 42.5q-24 0 -39.5 -12.5t-22.5 -37.5t-9.5 -50.5t-2.5 -62.5q0 -38 2.5 -63.5t9.5 -50.5t22.5 -37.5t39.5 -12.5z" />
    <glyph glyph-name="uni24FF" unicode="&#x24ff;" horiz-adv-x="876" 
d="M438 -40q-173 0 -281.5 108t-108.5 282t108.5 282t281.5 108t281.5 -108t108.5 -282t-108.5 -282t-281.5 -108zM437 163q70 0 110.5 51t40.5 140q0 88 -40.5 138.5t-110.5 50.5q-69 0 -109 -50.5t-40 -138.5q0 -89 40 -140t109 -51zM437 190q-24 0 -39.5 12.5t-22.5 37.5
t-9.5 50.5t-2.5 63.5q0 37 2.5 62.5t9.5 50.5t22.5 37.5t39.5 12.5q46 0 61 -42.5t15 -120.5q0 -79 -15 -121.5t-61 -42.5z" />
    <glyph glyph-name="lozenge" unicode="&#x25ca;" horiz-adv-x="536" 
d="M268 -16l-263 370v3l259 358h4l263 -370v-3l-259 -358h-4zM308 103l136 187l-217 305l-136 -187z" />
    <glyph glyph-name="circle" unicode="&#x25cb;" horiz-adv-x="876" 
d="M438 -40q-173 0 -281.5 108t-108.5 282t108.5 282t281.5 108t281.5 -108t108.5 -282t-108.5 -282t-281.5 -108zM438 -4q152 0 250 97.5t98 256.5t-98 256.5t-250 97.5q-151 0 -249.5 -98t-98.5 -256t98.5 -256t249.5 -98z" />
    <glyph glyph-name="uni25CF" unicode="&#x25cf;" horiz-adv-x="876" 
d="M438 -40q-173 0 -281.5 108t-108.5 282t108.5 282t281.5 108t281.5 -108t108.5 -282t-108.5 -282t-281.5 -108z" />
    <glyph glyph-name="uni2776" unicode="&#x2776;" horiz-adv-x="876" 
d="M438 -40q-173 0 -281.5 108t-108.5 282t108.5 282t281.5 108t281.5 -108t108.5 -282t-108.5 -282t-281.5 -108zM313 171h217v20h-13q-61 1 -61 41v311h-22l-125 -50l7 -18l15 4q55 14 55 -30v-217q0 -40 -60 -41h-13v-20z" />
    <glyph glyph-name="uni2777" unicode="&#x2777;" horiz-adv-x="876" 
d="M438 -40q-173 0 -281.5 108t-108.5 282t108.5 282t281.5 108t281.5 -108t108.5 -282t-108.5 -282t-281.5 -108zM312 169h226l32 101h-20q-9 -23 -21 -30.5t-33 -7.5h-108v4l32 28q61 49 94 90.5t33 93.5q0 44 -31 68.5t-79 24.5q-50 0 -84.5 -27.5t-41.5 -79.5l20 -5
q17 68 75 68q34 0 51 -21.5t17 -55.5q0 -79 -96 -167l-72 -66z" />
    <glyph glyph-name="uni2778" unicode="&#x2778;" horiz-adv-x="876" 
d="M438 -40q-173 0 -281.5 108t-108.5 282t108.5 282t281.5 108t281.5 -108t108.5 -282t-108.5 -282t-281.5 -108zM433 165q56 0 90.5 30t34.5 75q0 40 -28 64t-74 25h-24v4l19 2q42 3 69 29.5t27 62.5q0 39 -29.5 62.5t-80.5 23.5q-86 0 -116 -75l19 -10q24 49 71 49
q60 0 60 -62q0 -33 -20.5 -52.5t-55.5 -19.5h-20v-28h25q38 0 60 -18t22 -51q0 -35 -20.5 -56t-54.5 -21q-41 0 -75 37l-15 -11q35 -60 116 -60z" />
    <glyph glyph-name="uni2779" unicode="&#x2779;" horiz-adv-x="876" 
d="M438 -40q-173 0 -281.5 108t-108.5 282t108.5 282t281.5 108t281.5 -108t108.5 -282t-108.5 -282t-281.5 -108zM355 171h181v20l-11 1q-32 1 -32 37v52h57v36h-58v224h-52l-176 -242v-18h159v-28q0 -33 -10.5 -45.5t-44.5 -15.5l-13 -1v-20zM307 317v3l115 161h3v-164
h-118z" />
    <glyph glyph-name="uni277A" unicode="&#x277a;" horiz-adv-x="876" 
d="M438 -40q-173 0 -281.5 108t-108.5 282t108.5 282t281.5 108t281.5 -108t108.5 -282t-108.5 -282t-281.5 -108zM408 169q51 0 91.5 32t40.5 86q0 48 -33.5 76.5t-86.5 28.5q-35 0 -67 -16l-3 2l25 100h166l26 79h-19q-13 -16 -45 -16h-133l-41 -176l16 -9q22 11 45 11
q36 0 54 -23t18 -57q0 -43 -23.5 -65.5t-55.5 -22.5q-45 0 -65 35l-17 -12q28 -53 107 -53z" />
    <glyph glyph-name="uni277B" unicode="&#x277b;" horiz-adv-x="876" 
d="M438 -40q-173 0 -281.5 108t-108.5 282t108.5 282t281.5 108t281.5 -108t108.5 -282t-108.5 -282t-281.5 -108zM417 169q59 0 96.5 35.5t37.5 91.5q0 49 -29.5 78.5t-76.5 29.5q-63 0 -88 -48h-4q9 166 138 166q28 0 49 -7l10 19q-24 13 -72 13q-87 0 -143.5 -61
t-56.5 -155q0 -75 37.5 -118.5t101.5 -43.5zM420 192q-67 0 -68 133q18 44 62 44q64 0 64 -86q0 -43 -15 -67t-43 -24z" />
    <glyph glyph-name="uni277C" unicode="&#x277c;" horiz-adv-x="876" 
d="M438 -40q-173 0 -281.5 108t-108.5 282t108.5 282t281.5 108t281.5 -108t108.5 -282t-108.5 -282t-281.5 -108zM352 169h89q2 116 28 200t95 150l-6 16h-236l-32 -103h20q7 22 19 30.5t34 8.5h133v-2q-60 -49 -97 -129.5t-47 -170.5z" />
    <glyph glyph-name="uni277D" unicode="&#x277d;" horiz-adv-x="876" 
d="M438 -40q-173 0 -281.5 108t-108.5 282t108.5 282t281.5 108t281.5 -108t108.5 -282t-108.5 -282t-281.5 -108zM438 165q61 0 99 28.5t38 75.5q0 56 -66 93l-27 15q77 27 77 81q0 37 -34 61t-87 24q-56 0 -90.5 -26t-34.5 -68q0 -54 63 -89l14 -8q-89 -27 -89 -94
q0 -42 37.5 -67.5t99.5 -25.5zM467 386l-43 24q-46 28 -46 62q0 50 60 50q31 0 48.5 -17.5t17.5 -47.5q0 -48 -37 -71zM438 187q-75 0 -75 75q0 53 46 81l45 -26q53 -29 53 -69q0 -29 -18.5 -45t-50.5 -16z" />
    <glyph glyph-name="uni277E" unicode="&#x277e;" horiz-adv-x="876" 
d="M438 -40q-173 0 -281.5 108t-108.5 282t108.5 282t281.5 108t281.5 -108t108.5 -282t-108.5 -282t-281.5 -108zM390 161q87 0 143.5 61t56.5 155q0 75 -37.5 118.5t-101.5 43.5q-59 0 -96.5 -36t-37.5 -91q0 -49 29.5 -78.5t76.5 -29.5q64 0 89 48h3q-8 -167 -137 -167
q-26 0 -50 8l-9 -19q24 -13 71 -13zM454 339q-64 0 -64 86q0 42 15.5 66.5t43.5 24.5q67 0 67 -133q-16 -44 -62 -44z" />
    <glyph glyph-name="uniF8FF" unicode="&#xf8ff;" horiz-adv-x="662" 
d="M460 479q182 -89 182 -256q0 -132 -93 -215.5t-241 -83.5q-128 0 -208 58t-80 150q0 70 46 111t126 41q89 0 152.5 -50t63.5 -120q0 -45 -27.5 -72.5t-72.5 -27.5q-43 0 -70.5 27.5t-27.5 69.5q0 38 28 64.5t68 26.5q22 0 40 -6q-39 52 -114 52q-51 0 -81 -31.5
t-30 -86.5q0 -77 58 -127t147 -50q82 0 132.5 41t50.5 106q0 93 -129 156l-152 74q-153 75 -153 211q0 99 75.5 161t196.5 62q68 0 142.5 -17.5t121.5 -44.5l-72 -194h-5q-22 93 -93 156t-154 63q-43 0 -67 -18t-24 -49q0 -28 23.5 -52t77.5 -50z" />
    <glyph glyph-name="bar.case" horiz-adv-x="198" 
d="M122 790v-884h-46v884h46z" />
    <glyph glyph-name="brokenbar.case" horiz-adv-x="198" 
d="M122 790v-392h-46v392h46zM76 -94v392h46v-392h-46z" />
    <glyph glyph-name="parenleft.case" horiz-adv-x="357" 
d="M332 -109q-51 22 -99.5 59t-93.5 91t-72 130t-27 163q0 86 27.5 162.5t72 130t93 91t99.5 59.5l15 -26q-99 -70 -149 -179t-50 -238t50 -238t149 -179z" />
    <glyph glyph-name="parenright.case" horiz-adv-x="357" 
d="M25 -109l-15 26q99 70 149 179t50 238t-50 238t-149 179l15 26q51 -22 99.5 -59.5t93 -91t72 -130t27.5 -162.5q0 -87 -27 -163t-72 -130t-93.5 -91t-99.5 -59z" />
    <glyph glyph-name="hyphen.case" horiz-adv-x="364" 
d="M326 392v-71h-288v71h288z" />
    <glyph glyph-name="bracketleft.case" horiz-adv-x="282" 
d="M257 758q-49 0 -69.5 -14t-20.5 -44v-704q0 -30 20.5 -44t69.5 -14h15v-32h-196v884h196v-32h-15z" />
    <glyph glyph-name="bracketright.case" horiz-adv-x="282" 
d="M25 758h-15v32h196v-884h-196v32h15q49 0 69.5 14t20.5 44v704q0 30 -20.5 44t-69.5 14z" />
    <glyph glyph-name="braceleft.case" horiz-adv-x="320" 
d="M305 -64v-30q-96 2 -152 51t-56 132v146q0 59 -59 94v25q59 35 59 106v147q0 83 56 132t152 51v-30q-62 -7 -90 -43.5t-28 -112.5v-129q0 -35 -13.5 -59.5t-47.5 -48.5q34 -24 47.5 -48.5t13.5 -59.5v-167q0 -75 28 -111.5t90 -44.5z" />
    <glyph glyph-name="braceright.case" horiz-adv-x="320" 
d="M14 -64q63 7 90.5 44t27.5 112v167q0 35 14 59.5t48 48.5q-34 24 -48 48.5t-14 59.5v129q0 77 -27.5 113t-90.5 43v30q97 -2 152.5 -51t55.5 -132v-147q0 -71 59 -106v-25q-59 -35 -59 -94v-146q0 -83 -55.5 -132t-152.5 -51v30z" />
    <glyph glyph-name="endash.case" horiz-adv-x="538" 
d="M500 380v-47h-462v47h462z" />
    <glyph glyph-name="emdash.case" horiz-adv-x="833" 
d="M795 380v-47h-757v47h757z" />
    <glyph glyph-name="guilsinglleft.case" horiz-adv-x="367" 
d="M289 516v-34l-124 -184l124 -184v-34l-221 201v34z" />
    <glyph glyph-name="guilsinglright.case" horiz-adv-x="367" 
d="M78 516l221 -201v-34l-221 -201v34l124 184l-124 184v34z" />
    <glyph glyph-name="exclamdown.case" horiz-adv-x="301" 
d="M151 754q32 0 54.5 -22.5t22.5 -54.5t-22.5 -54.5t-54.5 -22.5t-55 22.5t-23 54.5t23 54.5t55 22.5zM131 511h39l51 -430q2 -26 2 -27q0 -32 -21 -51.5t-51 -19.5t-51.5 19.5t-21.5 51.5q0 1 2 27z" />
    <glyph glyph-name="questiondown.case" horiz-adv-x="450" 
d="M268 757q32 0 55 -23t23 -55t-23 -54.5t-55 -22.5t-54.5 23t-22.5 54q0 32 22.5 55t54.5 23zM297 513v-38q0 -40 -15 -71t-53 -64q-44 -39 -64.5 -72t-20.5 -78q0 -60 33.5 -96.5t104.5 -36.5q57 0 97.5 28t52.5 87l38 -8q-12 -87 -78 -134t-159 -47q-91 0 -148 49
t-57 128q0 66 34.5 112t104.5 95q50 35 63.5 58.5t13.5 66.5v21h53z" />
    <glyph glyph-name="a.sc" horiz-adv-x="621" 
d="M532 97q22 -62 74 -69v-28h-249v29l23 2q35 2 43.5 18.5t-6.5 55.5l-31 81h-207l-30 -78q-29 -75 37 -78l17 -1v-29h-188v28q32 4 49 20t32 54l163 416l97 33zM193 222h180l-38 99q-48 125 -50 156h-4q-2 -25 -51 -157z" />
    <glyph glyph-name="b.sc" 
d="M367 278q80 0 128 -36t48 -95q0 -68 -54 -107.5t-148 -39.5h-299v28l10 1q38 2 52.5 20.5t14.5 64.5v305q0 47 -14.5 65.5t-52.5 18.5h-10v31h290q88 0 137 -34.5t49 -95.5q0 -52 -42.5 -86t-108.5 -34h-32v-6h32zM296 502h-71v-206h76q52 0 80.5 27t28.5 75
q0 54 -27.5 79t-86.5 25zM312 32q57 0 88.5 30t31.5 85t-32.5 86t-90.5 31h-84v-191q0 -41 44 -41h43z" />
    <glyph glyph-name="c.sc" horiz-adv-x="572" 
d="M313 -13q-118 0 -192 74.5t-74 188.5q0 135 80.5 215.5t213.5 80.5q108 0 174 -37v-156h-33q-32 137 -162 137q-81 0 -127 -52.5t-46 -144.5q0 -94 56.5 -152.5t150.5 -58.5q104 0 154 84l28 -13q-23 -80 -81 -123t-142 -43z" />
    <glyph glyph-name="d.sc" horiz-adv-x="651" 
d="M292 534q148 0 229.5 -70t81.5 -197t-81 -197t-230 -70h-250v28l10 1q38 2 52.5 20.5t14.5 64.5v305q0 47 -14.5 65.5t-52.5 18.5h-10v31h250zM300 38q89 0 137 59.5t48 169.5t-48 169t-137 59h-75v-415q0 -42 44 -42h31z" />
    <glyph glyph-name="e.sc" horiz-adv-x="568" 
d="M493 173h32l-19 -173h-464v28l10 1q37 2 52 19.5t15 65.5v305q0 48 -14.5 66t-52.5 18h-10v31h455l12 -158h-32l-8 28q-13 49 -47.5 72t-103.5 23h-93v-202h52q39 0 59.5 13.5t28.5 55.5l3 21h28v-216h-28l-3 21q-8 38 -26 54t-62 16h-52v-186q0 -41 44 -41h45
q73 0 110 22t59 86z" />
    <glyph glyph-name="f.sc" horiz-adv-x="542" 
d="M505 534l14 -164h-33l-7 25q-16 56 -53 80.5t-111 24.5h-90v-212h52q40 0 61 15t28 54l4 21h27v-216h-27l-4 21q-7 39 -26.5 55t-62.5 16h-52v-139q0 -46 16 -65t66 -21l18 -1v-28h-283v28l10 1q37 2 52 19.5t15 65.5v305q0 48 -14.5 66t-52.5 18h-10v31h463z" />
    <glyph glyph-name="g.sc" horiz-adv-x="634" 
d="M352 -13q-137 0 -221 74.5t-84 202.5q0 129 88 205.5t233 76.5q107 0 183 -29v-146h-32q-33 133 -166 133q-90 0 -139 -61t-49 -179q0 -112 49.5 -171.5t137.5 -59.5q81 0 111 42v85q-1 33 -23.5 45.5t-68.5 14.5l-17 1v27h254v-26q-28 0 -39 -14t-11 -47v-113
q-85 -61 -206 -61z" />
    <glyph glyph-name="h.sc" horiz-adv-x="699" 
d="M645 504q-36 -2 -50.5 -19.5t-14.5 -65.5v-305q0 -48 14.5 -65.5t50.5 -18.5h12v-30h-257v30h11q35 1 49 19t14 65v144h-249v-144q0 -48 13.5 -65.5t49.5 -18.5h11v-30h-257v30h12q36 1 50.5 18.5t14.5 65.5v305q0 48 -14.5 65.5t-50.5 19.5h-12v30h257v-30h-11
q-36 -2 -49.5 -20t-13.5 -65v-123h249v123q0 47 -13.5 65t-49.5 20h-11v30h257v-30h-12z" />
    <glyph glyph-name="i.sc" horiz-adv-x="345" 
d="M291 504q-37 -2 -51.5 -19.5t-14.5 -65.5v-305q0 -48 15 -65.5t51 -18.5h11v-30h-260v30h12q36 1 50.5 18.5t14.5 65.5v305q0 48 -14.5 65.5t-50.5 19.5h-12v30h260v-30h-11z" />
    <glyph glyph-name="j.sc" horiz-adv-x="320" 
d="M304 534v-32h-15q-33 0 -47.5 -17t-14.5 -66v-391q0 -77 -40 -117.5t-110 -40.5q-62 0 -113 46l23 27q31 -26 63 -26q35 0 52.5 22t17.5 60v420q0 48 -15 66t-52 18h-11v31h262z" />
    <glyph glyph-name="k.sc" horiz-adv-x="650" 
d="M287 501q-33 0 -47.5 -17t-14.5 -66v-304q0 -46 14.5 -64.5t52.5 -20.5l10 -1v-28h-260v28l10 1q37 2 52 19.5t15 65.5v305q0 48 -14.5 66t-52.5 18h-10v31h260v-33h-15zM456 0l-218 268l177 164q33 32 33 51q0 22 -29 22h-23v29h208v-29q-39 -2 -67.5 -17t-62.5 -48
l-135 -131l189 -227q43 -52 105 -54v-28h-177z" />
    <glyph glyph-name="l.sc" horiz-adv-x="540" 
d="M479 194h30l-19 -194h-448v28l10 1q37 2 52 19.5t15 65.5v305q0 48 -14.5 66t-52.5 18h-10v31h267v-32h-16q-68 0 -68 -78v-351q0 -42 44 -42h50q61 0 94.5 32t58.5 112z" />
    <glyph glyph-name="m.sc" horiz-adv-x="817" 
d="M361 -11l-152 370q-26 63 -34 98h-3l-17 -351q-2 -42 8.5 -58t41.5 -18l21 -2v-28h-194v28l18 2q33 5 44.5 19.5t14.5 58.5l19 328q5 65 -53 68l-17 1v29h190l119 -292q28 -66 38 -114h4q6 36 33 98l134 308h186v-29l-17 -1q-59 -5 -56 -69l19 -330q2 -39 15 -55t45 -20
l18 -2v-28h-250v28l18 2q31 3 42 19.5t9 55.5l-17 352h-4q-6 -18 -42 -112l-153 -356h-28z" />
    <glyph glyph-name="n.sc" horiz-adv-x="661" 
d="M439 534h201v-32l-23 -1q-30 -2 -42.5 -19.5t-12.5 -62.5v-424h-40l-361 429v-311q0 -45 12.5 -62t49.5 -21l20 -2v-28h-201v28l12 1q38 4 51.5 21.5t13.5 63.5v359q-26 26 -53 29l-22 2v29h172l300 -363h4v255q0 42 -12 58t-48 20l-21 2v29z" />
    <glyph glyph-name="o.sc" horiz-adv-x="692" 
d="M346 -13q-131 0 -215 77.5t-84 202.5q0 124 84 201.5t215 77.5t215 -77.5t84 -201.5q0 -125 -84 -202.5t-215 -77.5zM346 29q84 0 130.5 63t46.5 175q0 111 -46.5 174t-130.5 63t-130.5 -63t-46.5 -174q0 -112 46.5 -175t130.5 -63z" />
    <glyph glyph-name="p.sc" horiz-adv-x="540" 
d="M307 234h-82v-119q0 -46 16 -65t66 -21l18 -1v-28h-283v28l10 1q37 2 52 19.5t15 65.5v305q0 48 -14.5 66t-52.5 18h-10v31h270q90 0 146.5 -37t56.5 -110q0 -75 -59 -114t-149 -39zM293 500h-68v-232h63q56 0 86.5 31t30.5 89q0 112 -112 112z" />
    <glyph glyph-name="q.sc" horiz-adv-x="692" 
d="M690 -210q-134 0 -254 61.5t-274 186.5q-115 94 -115 229q0 124 84 201.5t215 77.5t215 -77.5t84 -201.5q0 -123 -81.5 -200t-212.5 -80v-8q48 -7 104 -32q84 -46 151.5 -67t158.5 -21q103 0 140 20l14 -19q-86 -70 -229 -70zM346 29q84 0 130.5 63t46.5 175
q0 111 -46.5 174t-130.5 63t-130.5 -63t-46.5 -174q0 -112 46.5 -175t130.5 -63z" />
    <glyph glyph-name="r.sc" horiz-adv-x="618" 
d="M517 88q30 -54 85 -60v-28h-157q-15 16 -41 72l-37 85q-22 50 -45 74.5t-64 24.5h-33v-142q0 -46 14.5 -64.5t52.5 -20.5l10 -1v-28h-260v28l10 1q37 2 52 19.5t15 65.5v305q0 48 -14.5 66t-52.5 18h-10v31h271q89 0 141 -32t52 -97q0 -61 -45.5 -95t-116.5 -36l-36 -1
v-7h33q50 -1 78 -20t57 -76zM225 287h50q119 0 119 114q0 98 -111 98h-58v-212z" />
    <glyph glyph-name="s.sc" horiz-adv-x="480" 
d="M231 -13q-106 0 -186 48v146h36q29 -152 166 -152q103 0 103 79q0 31 -16 49.5t-58 37.5l-113 50q-114 50 -114 145q0 71 56 113.5t150 42.5q91 0 163 -33v-134h-33q-33 127 -150 127q-46 0 -72 -19t-26 -53q0 -52 76 -85l113 -48q114 -46 114 -144q0 -76 -57.5 -123
t-151.5 -47z" />
    <glyph glyph-name="t.sc" horiz-adv-x="530" 
d="M481 549h26v-186h-32l-3 27q-12 102 -105 102h-48v-377q0 -47 15.5 -65.5t65.5 -20.5l18 -1v-28h-305v28l18 1q47 2 64 19.5t17 66.5v377h-48q-93 0 -105 -102l-3 -27h-33v186h27q7 -15 39 -15h353q32 0 39 15z" />
    <glyph glyph-name="u.sc" horiz-adv-x="626" 
d="M611 534v-32h-16q-33 0 -47 -16t-14 -61v-220q0 -103 -56 -160.5t-158 -57.5q-107 0 -167 56t-60 158v218q0 48 -14.5 66t-52.5 18h-10v31h265v-32h-15q-34 0 -48.5 -17t-14.5 -66v-214q0 -76 37.5 -116.5t108.5 -40.5q70 0 106.5 41t36.5 120v210q0 48 -15 66t-52 18
h-11v31h197z" />
    <glyph glyph-name="v.sc" horiz-adv-x="609" 
d="M290 -5l-209 459q-13 25 -27.5 37t-40.5 14v29h252v-29l-25 -1q-44 -3 -44 -36q0 -15 11 -41l100 -234q24 -56 26 -87h4q4 30 26 86l99 234q11 25 11 42q0 33 -42 36l-26 1v29h191v-29q-30 -2 -47.5 -17t-34.5 -55l-183 -438h-41z" />
    <glyph glyph-name="w.sc" horiz-adv-x="882" 
d="M274 -4l-182 447q-12 30 -29 45.5t-48 16.5v29h246v-32h-16q-43 0 -43 -34q0 -18 9 -40l89 -243q14 -33 16 -73h4q4 40 17 72l78 216l-21 52q-12 28 -23 39.5t-29 12.5l-15 1v29h245v-32h-16q-51 0 -51 -37q0 -15 7 -32l90 -242q17 -48 18 -77h4q5 41 18 77l86 235
q9 24 9 39q0 37 -52 37h-19v32h201v-29q-33 -4 -53 -19.5t-34 -54.5l-158 -435h-45l-115 297q-14 37 -14 75h-5q-3 -41 -16 -75l-109 -297h-44z" />
    <glyph glyph-name="x.sc" horiz-adv-x="605" 
d="M21 0v28q28 2 47 15.5t48 47.5l139 164l-153 204q-18 24 -33.5 34t-45.5 12v29h255v-29l-22 -1q-37 -2 -37 -26q0 -13 8 -22l72 -98q19 -26 23 -43h4q0 4 1.5 7t2.5 5.5t4 6.5t4.5 6.5t7 8.5t8.5 10l68 82q22 26 22 41q0 20 -33 22l-24 1v29h189v-29q-29 -2 -49 -15
t-48 -47l-131 -152l150 -202q26 -35 42.5 -47t42.5 -14v-28h-247v28l21 1q37 3 37 25q0 14 -19 39l-71 95q-18 25 -22 43h-4q-1 -8 -5 -15.5t-7 -11t-16 -18.5l-82 -98q-18 -22 -18 -35q0 -21 36 -24l20 -1v-28h-185z" />
    <glyph glyph-name="y.sc" horiz-adv-x="564" 
d="M374 534h177v-29q-25 -1 -40 -14.5t-31 -40.5l-142 -229v-106q0 -47 15.5 -65.5t65.5 -20.5l18 -1v-28h-304v28l18 1q49 2 65 21t16 65v105l-137 220q-23 35 -39.5 48.5t-42.5 16.5v29h251v-29l-28 -2q-37 -3 -37 -29q0 -14 12 -35l81 -128q22 -34 26 -59h4q5 23 24 56
l80 131q12 21 12 35q0 26 -39 29l-25 2v29z" />
    <glyph glyph-name="z.sc" horiz-adv-x="549" 
d="M49 0l-15 30l324 440q14 20 30 25l-1 5q-17 -5 -33 -5h-113q-69 0 -102 -23.5t-52 -92.5l-6 -19h-32l16 174h423l15 -30l-321 -439q-18 -22 -32 -26l1 -5q15 4 35 4h106q76 0 117 26t59 90l8 26h33l-19 -180h-441z" />
    <glyph glyph-name="aacute.sc" horiz-adv-x="621" 
d="M477 719l-150 -108h-35l84 129h101v-21zM532 97q22 -62 74 -69v-28h-249v29l23 2q35 2 43.5 18.5t-6.5 55.5l-31 81h-207l-30 -78q-29 -75 37 -78l17 -1v-29h-188v28q32 4 49 20t32 54l163 416l97 33zM193 222h180l-38 99q-48 125 -50 156h-4q-2 -25 -51 -157z" />
    <glyph glyph-name="abreve.sc" horiz-adv-x="621" 
d="M310 604q-53 0 -86 34.5t-33 101.5h31q2 -39 26.5 -60t61.5 -21t61.5 20.5t26.5 60.5h32q0 -67 -33.5 -101.5t-86.5 -34.5zM532 97q22 -62 74 -69v-28h-249v29l23 2q35 2 43.5 18.5t-6.5 55.5l-31 81h-207l-30 -78q-29 -75 37 -78l17 -1v-29h-188v28q32 4 49 20t32 54
l163 416l97 33zM193 222h180l-38 99q-48 125 -50 156h-4q-2 -25 -51 -157z" />
    <glyph glyph-name="acircumflex.sc" horiz-adv-x="621" 
d="M311 675l-90 -64h-40l111 129h37l111 -129h-40zM532 97q22 -62 74 -69v-28h-249v29l23 2q35 2 43.5 18.5t-6.5 55.5l-31 81h-207l-30 -78q-29 -75 37 -78l17 -1v-29h-188v28q32 4 49 20t32 54l163 416l97 33zM193 222h180l-38 99q-48 125 -50 156h-4q-2 -25 -51 -157z
" />
    <glyph glyph-name="adieresis.sc" horiz-adv-x="621" 
d="M212 603q-25 0 -42 17t-17 42t17 42t42 17q26 0 43 -17t17 -42t-17 -42t-43 -17zM408 603q-26 0 -43 17t-17 42t17 42t43 17q25 0 42 -17t17 -42t-17 -42t-42 -17zM532 97q22 -62 74 -69v-28h-249v29l23 2q35 2 43.5 18.5t-6.5 55.5l-31 81h-207l-30 -78q-29 -75 37 -78
l17 -1v-29h-188v28q32 4 49 20t32 54l163 416l97 33zM193 222h180l-38 99q-48 125 -50 156h-4q-2 -25 -51 -157z" />
    <glyph glyph-name="agrave.sc" horiz-adv-x="621" 
d="M328 611h-36l-149 108v21h101zM532 97q22 -62 74 -69v-28h-249v29l23 2q35 2 43.5 18.5t-6.5 55.5l-31 81h-207l-30 -78q-29 -75 37 -78l17 -1v-29h-188v28q32 4 49 20t32 54l163 416l97 33zM193 222h180l-38 99q-48 125 -50 156h-4q-2 -25 -51 -157z" />
    <glyph glyph-name="amacron.sc" horiz-adv-x="621" 
d="M443 675v-42h-266v42h266zM532 97q22 -62 74 -69v-28h-249v29l23 2q35 2 43.5 18.5t-6.5 55.5l-31 81h-207l-30 -78q-29 -75 37 -78l17 -1v-29h-188v28q32 4 49 20t32 54l163 416l97 33zM193 222h180l-38 99q-48 125 -50 156h-4q-2 -25 -51 -157z" />
    <glyph glyph-name="aogonek.sc" horiz-adv-x="621" 
d="M372 0q-45 -14 -70.5 -46t-25.5 -67q0 -27 14.5 -43t41.5 -16q42 0 58 41l21 -10q-10 -44 -38.5 -70t-66.5 -26q-44 0 -70 27t-26 77q0 54 41 100.5t106 59.5v2l23 2q35 2 43.5 18.5t-6.5 55.5l-31 81h-207l-30 -78q-29 -75 37 -78l17 -1v-29h-188v28q32 4 49 20t32 54
l163 416l97 33l176 -454q22 -62 74 -69v-28h-234zM193 222h180l-38 99q-48 125 -50 156h-4q-2 -25 -51 -157z" />
    <glyph glyph-name="aring.sc" horiz-adv-x="621" 
d="M309 561q-41 0 -70 27t-29 68q0 42 29 68.5t70 26.5q43 0 71.5 -26.5t28.5 -68.5t-28.5 -68.5t-71.5 -26.5zM309 716q-25 0 -41.5 -16t-16.5 -44t16.5 -44.5t41.5 -16.5t41.5 16.5t16.5 44.5t-16.5 44t-41.5 16zM532 97q22 -62 74 -69v-28h-249v29l23 2q35 2 43.5 18.5
t-6.5 55.5l-31 81h-207l-30 -78q-29 -75 37 -78l17 -1v-29h-188v28q32 4 49 20t32 54l163 416l97 33zM193 222h180l-38 99q-48 125 -50 156h-4q-2 -25 -51 -157z" />
    <glyph glyph-name="atilde.sc" horiz-adv-x="621" 
d="M242 647q-37 0 -58 -35h-19q3 50 31.5 72.5t66.5 22.5q28 0 61 -18.5t54 -18.5q38 0 58 35h20q-3 -50 -32 -72.5t-67 -22.5q-28 0 -61 18.5t-54 18.5zM532 97q22 -62 74 -69v-28h-249v29l23 2q35 2 43.5 18.5t-6.5 55.5l-31 81h-207l-30 -78q-29 -75 37 -78l17 -1v-29
h-188v28q32 4 49 20t32 54l163 416l97 33zM193 222h180l-38 99q-48 125 -50 156h-4q-2 -25 -51 -157z" />
    <glyph glyph-name="ae.sc" horiz-adv-x="825" 
d="M749 173h32l-19 -173h-420v29l10 1q37 3 51 19.5t15 57.5v156h-170l-91 -156q-37 -64 30 -76l13 -2v-29h-187v29q34 4 52.5 19t40.5 52l211 355q16 28 1 39t-58 11h-29v29h530l13 -156h-32l-8 26q-15 51 -47 73.5t-97 22.5h-70v-203h26q39 0 57 15.5t27 55.5l4 19h33
v-216h-33l-4 21q-8 40 -25.5 55.5t-58.5 15.5h-26v-186q0 -42 45 -42h24q67 0 98 23t52 85zM268 296h150v204h-31z" />
    <glyph glyph-name="aeacute.sc" horiz-adv-x="825" 
d="M673 720l-150 -108h-35l84 129h101v-21zM749 173h32l-19 -173h-420v29l10 1q37 3 51 19.5t15 57.5v156h-170l-91 -156q-37 -64 30 -76l13 -2v-29h-187v29q34 4 52.5 19t40.5 52l211 355q16 28 1 39t-58 11h-29v29h530l13 -156h-32l-8 26q-15 51 -47 73.5t-97 22.5h-70
v-203h26q39 0 57 15.5t27 55.5l4 19h33v-216h-33l-4 21q-8 40 -25.5 55.5t-58.5 15.5h-26v-186q0 -42 45 -42h24q67 0 98 23t52 85zM268 296h150v204h-31z" />
    <glyph glyph-name="cacute.sc" horiz-adv-x="572" 
d="M352 611h-35l84 129h101v-21zM313 -13q-118 0 -192 74.5t-74 188.5q0 135 80.5 215.5t213.5 80.5q108 0 174 -37v-156h-33q-32 137 -162 137q-81 0 -127 -52.5t-46 -144.5q0 -94 56.5 -152.5t150.5 -58.5q104 0 154 84l28 -13q-23 -80 -81 -123t-142 -43z" />
    <glyph glyph-name="ccaron.sc" horiz-adv-x="572" 
d="M317 611l-111 129h40l90 -65l89 65h40l-111 -129h-37zM313 -13q-118 0 -192 74.5t-74 188.5q0 135 80.5 215.5t213.5 80.5q108 0 174 -37v-156h-33q-32 137 -162 137q-81 0 -127 -52.5t-46 -144.5q0 -94 56.5 -152.5t150.5 -58.5q104 0 154 84l28 -13q-23 -80 -81 -123
t-142 -43z" />
    <glyph glyph-name="ccedilla.sc" horiz-adv-x="572" 
d="M536 153q-22 -75 -74 -117.5t-127 -47.5l-36 -61q12 9 35 9q34 0 56.5 -22.5t22.5 -59.5q0 -39 -26.5 -65t-68.5 -26q-34 0 -58 17.5t-32 47.5l17 6q16 -35 54 -35q24 0 40 15.5t16 41.5q0 23 -11.5 37.5t-33.5 14.5q-20 0 -39 -17l-14 9l49 87q-115 2 -187 76t-72 187
q0 135 80.5 215.5t213.5 80.5q108 0 174 -37v-156h-33q-32 137 -162 137q-81 0 -127 -52.5t-46 -144.5q0 -94 56.5 -152.5t150.5 -58.5q104 0 154 84z" />
    <glyph glyph-name="ccircumflex.sc" horiz-adv-x="572" 
d="M206 611l111 129h37l111 -129h-40l-89 64l-90 -64h-40zM313 -13q-118 0 -192 74.5t-74 188.5q0 135 80.5 215.5t213.5 80.5q108 0 174 -37v-156h-33q-32 137 -162 137q-81 0 -127 -52.5t-46 -144.5q0 -94 56.5 -152.5t150.5 -58.5q104 0 154 84l28 -13q-23 -80 -81 -123
t-142 -43z" />
    <glyph glyph-name="cdotaccent.sc" horiz-adv-x="572" 
d="M336 596q-29 0 -50.5 21t-21.5 50q0 30 21.5 51t50.5 21t50 -21t21 -51q0 -29 -21 -50t-50 -21zM313 -13q-118 0 -192 74.5t-74 188.5q0 135 80.5 215.5t213.5 80.5q108 0 174 -37v-156h-33q-32 137 -162 137q-81 0 -127 -52.5t-46 -144.5q0 -94 56.5 -152.5t150.5 -58.5
q104 0 154 84l28 -13q-23 -80 -81 -123t-142 -43z" />
    <glyph glyph-name="eth.sc" horiz-adv-x="651" 
d="M292 534q148 0 229.5 -70t81.5 -197t-81 -197t-230 -70h-250v28l10 1q38 2 52.5 20.5t14.5 64.5v129h-78v31h78v145q0 47 -14.5 65.5t-52.5 18.5h-10v31h250zM300 38q89 0 137 59.5t48 169.5t-48 169t-137 59h-75v-221h144v-31h-144v-163q0 -42 44 -42h31z" />
    <glyph glyph-name="dcaron.sc" horiz-adv-x="651" 
d="M295 611l-111 129h40l90 -65l89 65h40l-111 -129h-37zM292 534q148 0 229.5 -70t81.5 -197t-81 -197t-230 -70h-250v28l10 1q38 2 52.5 20.5t14.5 64.5v305q0 47 -14.5 65.5t-52.5 18.5h-10v31h250zM300 38q89 0 137 59.5t48 169.5t-48 169t-137 59h-75v-415
q0 -42 44 -42h31z" />
    <glyph glyph-name="dcroat.sc" horiz-adv-x="651" 
d="M292 534q148 0 229.5 -70t81.5 -197t-81 -197t-230 -70h-250v28l10 1q38 2 52.5 20.5t14.5 64.5v129h-78v31h78v145q0 47 -14.5 65.5t-52.5 18.5h-10v31h250zM300 38q89 0 137 59.5t48 169.5t-48 169t-137 59h-75v-221h144v-31h-144v-163q0 -42 44 -42h31z" />
    <glyph glyph-name="eacute.sc" horiz-adv-x="568" 
d="M451 719l-150 -108h-35l84 129h101v-21zM493 173h32l-19 -173h-464v28l10 1q37 2 52 19.5t15 65.5v305q0 48 -14.5 66t-52.5 18h-10v31h455l12 -158h-32l-8 28q-13 49 -47.5 72t-103.5 23h-93v-202h52q39 0 59.5 13.5t28.5 55.5l3 21h28v-216h-28l-3 21q-8 38 -26 54
t-62 16h-52v-186q0 -41 44 -41h45q73 0 110 22t59 86z" />
    <glyph glyph-name="ebreve.sc" horiz-adv-x="568" 
d="M284 604q-53 0 -86 34.5t-33 101.5h31q2 -39 26.5 -60t61.5 -21t61.5 20.5t26.5 60.5h32q0 -67 -33.5 -101.5t-86.5 -34.5zM493 173h32l-19 -173h-464v28l10 1q37 2 52 19.5t15 65.5v305q0 48 -14.5 66t-52.5 18h-10v31h455l12 -158h-32l-8 28q-13 49 -47.5 72t-103.5 23
h-93v-202h52q39 0 59.5 13.5t28.5 55.5l3 21h28v-216h-28l-3 21q-8 38 -26 54t-62 16h-52v-186q0 -41 44 -41h45q73 0 110 22t59 86z" />
    <glyph glyph-name="ecaron.sc" horiz-adv-x="568" 
d="M303 611h-37l-111 129h40l90 -65l89 65h40zM493 173h32l-19 -173h-464v28l10 1q37 2 52 19.5t15 65.5v305q0 48 -14.5 66t-52.5 18h-10v31h455l12 -158h-32l-8 28q-13 49 -47.5 72t-103.5 23h-93v-202h52q39 0 59.5 13.5t28.5 55.5l3 21h28v-216h-28l-3 21q-8 38 -26 54
t-62 16h-52v-186q0 -41 44 -41h45q73 0 110 22t59 86z" />
    <glyph glyph-name="ecircumflex.sc" horiz-adv-x="568" 
d="M285 675l-90 -64h-40l111 129h37l111 -129h-40zM493 173h32l-19 -173h-464v28l10 1q37 2 52 19.5t15 65.5v305q0 48 -14.5 66t-52.5 18h-10v31h455l12 -158h-32l-8 28q-13 49 -47.5 72t-103.5 23h-93v-202h52q39 0 59.5 13.5t28.5 55.5l3 21h28v-216h-28l-3 21
q-8 38 -26 54t-62 16h-52v-186q0 -41 44 -41h45q73 0 110 22t59 86z" />
    <glyph glyph-name="edieresis.sc" horiz-adv-x="568" 
d="M186 603q-25 0 -42 17t-17 42t17 42t42 17q26 0 43 -17t17 -42t-17 -42t-43 -17zM382 603q-26 0 -43 17t-17 42t17 42t43 17q25 0 42 -17t17 -42t-17 -42t-42 -17zM493 173h32l-19 -173h-464v28l10 1q37 2 52 19.5t15 65.5v305q0 48 -14.5 66t-52.5 18h-10v31h455
l12 -158h-32l-8 28q-13 49 -47.5 72t-103.5 23h-93v-202h52q39 0 59.5 13.5t28.5 55.5l3 21h28v-216h-28l-3 21q-8 38 -26 54t-62 16h-52v-186q0 -41 44 -41h45q73 0 110 22t59 86z" />
    <glyph glyph-name="edotaccent.sc" horiz-adv-x="568" 
d="M285 596q-29 0 -50.5 21t-21.5 50q0 30 21.5 51t50.5 21t50 -21t21 -51q0 -29 -21 -50t-50 -21zM493 173h32l-19 -173h-464v28l10 1q37 2 52 19.5t15 65.5v305q0 48 -14.5 66t-52.5 18h-10v31h455l12 -158h-32l-8 28q-13 49 -47.5 72t-103.5 23h-93v-202h52
q39 0 59.5 13.5t28.5 55.5l3 21h28v-216h-28l-3 21q-8 38 -26 54t-62 16h-52v-186q0 -41 44 -41h45q73 0 110 22t59 86z" />
    <glyph glyph-name="egrave.sc" horiz-adv-x="568" 
d="M302 611h-36l-149 108v21h101zM493 173h32l-19 -173h-464v28l10 1q37 2 52 19.5t15 65.5v305q0 48 -14.5 66t-52.5 18h-10v31h455l12 -158h-32l-8 28q-13 49 -47.5 72t-103.5 23h-93v-202h52q39 0 59.5 13.5t28.5 55.5l3 21h28v-216h-28l-3 21q-8 38 -26 54t-62 16h-52
v-186q0 -41 44 -41h45q73 0 110 22t59 86z" />
    <glyph glyph-name="emacron.sc" horiz-adv-x="568" 
d="M417 675v-42h-266v42h266zM493 173h32l-19 -173h-464v28l10 1q37 2 52 19.5t15 65.5v305q0 48 -14.5 66t-52.5 18h-10v31h455l12 -158h-32l-8 28q-13 49 -47.5 72t-103.5 23h-93v-202h52q39 0 59.5 13.5t28.5 55.5l3 21h28v-216h-28l-3 21q-8 38 -26 54t-62 16h-52v-186
q0 -41 44 -41h45q73 0 110 22t59 86z" />
    <glyph glyph-name="eogonek.sc" horiz-adv-x="568" 
d="M443 0q-45 -14 -70.5 -46t-25.5 -67q0 -27 14.5 -43t41.5 -16q42 0 58 41l21 -10q-10 -44 -38.5 -70t-66.5 -26q-44 0 -70 27t-26 77q0 38 21.5 73.5t58.5 59.5h-319v28l10 1q37 2 52 19.5t15 65.5v305q0 48 -14.5 66t-52.5 18h-10v31h455l12 -158h-32l-8 28
q-13 49 -47.5 72t-103.5 23h-93v-202h52q39 0 59.5 13.5t28.5 55.5l3 21h28v-216h-28l-3 21q-8 38 -26 54t-62 16h-52v-186q0 -41 44 -41h45q73 0 110 22t59 86l10 30h32l-19 -173h-63z" />
    <glyph glyph-name="gbreve.sc" horiz-adv-x="634" 
d="M449 740h32q0 -67 -33.5 -101.5t-86.5 -34.5t-86 34.5t-33 101.5h31q2 -39 26.5 -60t61.5 -21t61.5 20.5t26.5 60.5zM352 -13q-137 0 -221 74.5t-84 202.5q0 129 88 205.5t233 76.5q107 0 183 -29v-146h-32q-33 133 -166 133q-90 0 -139 -61t-49 -179q0 -112 49.5 -171.5
t137.5 -59.5q81 0 111 42v85q-1 33 -23.5 45.5t-68.5 14.5l-17 1v27h254v-26q-28 0 -39 -14t-11 -47v-113q-85 -61 -206 -61z" />
    <glyph glyph-name="gcircumflex.sc" horiz-adv-x="634" 
d="M233 611l111 129h37l111 -129h-40l-89 64l-90 -64h-40zM352 -13q-137 0 -221 74.5t-84 202.5q0 129 88 205.5t233 76.5q107 0 183 -29v-146h-32q-33 133 -166 133q-90 0 -139 -61t-49 -179q0 -112 49.5 -171.5t137.5 -59.5q81 0 111 42v85q-1 33 -23.5 45.5t-68.5 14.5
l-17 1v27h254v-26q-28 0 -39 -14t-11 -47v-113q-85 -61 -206 -61z" />
    <glyph glyph-name="uni0123.sc" horiz-adv-x="634" 
d="M352 -13q-137 0 -221 74.5t-84 202.5q0 129 88 205.5t233 76.5q107 0 183 -29v-146h-32q-33 133 -166 133q-90 0 -139 -61t-49 -179q0 -112 49.5 -171.5t137.5 -59.5q81 0 111 42v85q-1 33 -23.5 45.5t-68.5 14.5l-17 1v27h254v-26q-28 0 -39 -14t-11 -47v-113
q-85 -61 -206 -61zM322 -231l-2 19q58 9 58 40q0 11 -7 16.5t-24 12.5q-34 13 -34 49q0 21 14.5 34.5t37.5 13.5q26 0 43.5 -21t17.5 -53q0 -44 -29 -75t-75 -36z" />
    <glyph glyph-name="gdotaccent.sc" horiz-adv-x="634" 
d="M363 596q-29 0 -50.5 21t-21.5 50q0 30 21.5 51t50.5 21t50 -21t21 -51q0 -29 -21 -50t-50 -21zM352 -13q-137 0 -221 74.5t-84 202.5q0 129 88 205.5t233 76.5q107 0 183 -29v-146h-32q-33 133 -166 133q-90 0 -139 -61t-49 -179q0 -112 49.5 -171.5t137.5 -59.5
q81 0 111 42v85q-1 33 -23.5 45.5t-68.5 14.5l-17 1v27h254v-26q-28 0 -39 -14t-11 -47v-113q-85 -61 -206 -61z" />
    <glyph glyph-name="hbar.sc" horiz-adv-x="699" 
d="M645 504q-36 -2 -50.5 -19.5t-14.5 -65.5v-30h71v-33h-71v-242q0 -48 14.5 -65.5t50.5 -18.5h12v-30h-257v30h11q35 1 49 19t14 65v144h-249v-144q0 -48 13.5 -65.5t49.5 -18.5h11v-30h-257v30h12q36 1 50.5 18.5t14.5 65.5v242h-70v33h70v30q0 48 -14.5 65.5t-50.5 19.5
h-12v30h257v-30h-11q-36 -2 -49.5 -20t-13.5 -65v-30h249v30q0 47 -13.5 65t-49.5 20h-11v30h257v-30h-12zM474 296v60h-249v-60h249z" />
    <glyph glyph-name="hcircumflex.sc" horiz-adv-x="699" 
d="M220 611l111 129h37l111 -129h-40l-89 64l-90 -64h-40zM645 504q-36 -2 -50.5 -19.5t-14.5 -65.5v-305q0 -48 14.5 -65.5t50.5 -18.5h12v-30h-257v30h11q35 1 49 19t14 65v144h-249v-144q0 -48 13.5 -65.5t49.5 -18.5h11v-30h-257v30h12q36 1 50.5 18.5t14.5 65.5v305
q0 48 -14.5 65.5t-50.5 19.5h-12v30h257v-30h-11q-36 -2 -49.5 -20t-13.5 -65v-123h249v123q0 47 -13.5 65t-49.5 20h-11v30h257v-30h-12z" />
    <glyph glyph-name="ij.sc" horiz-adv-x="665" 
d="M291 504q-37 -2 -51.5 -19.5t-14.5 -65.5v-305q0 -48 15 -65.5t51 -18.5h11v-30h-260v30h12q36 1 50.5 18.5t14.5 65.5v305q0 48 -14.5 65.5t-50.5 19.5h-12v30h260v-30h-11zM649 534v-32h-15q-33 0 -47.5 -17t-14.5 -66v-391q0 -77 -40 -117.5t-110 -40.5q-62 0 -113 46
l23 27q31 -26 63 -26q35 0 52.5 22t17.5 60v420q0 48 -15 66t-52 18h-11v31h262z" />
    <glyph glyph-name="iacute.sc" horiz-adv-x="345" 
d="M189 611h-35l84 129h101v-21zM291 504q-37 -2 -51.5 -19.5t-14.5 -65.5v-305q0 -48 15 -65.5t51 -18.5h11v-30h-260v30h12q36 1 50.5 18.5t14.5 65.5v305q0 48 -14.5 65.5t-50.5 19.5h-12v30h260v-30h-11z" />
    <glyph glyph-name="ibreve.sc" horiz-adv-x="345" 
d="M259 740h32q0 -67 -33.5 -101.5t-86.5 -34.5t-86 34.5t-33 101.5h31q2 -39 26.5 -60t61.5 -21t61.5 20.5t26.5 60.5zM291 504q-37 -2 -51.5 -19.5t-14.5 -65.5v-305q0 -48 15 -65.5t51 -18.5h11v-30h-260v30h12q36 1 50.5 18.5t14.5 65.5v305q0 48 -14.5 65.5t-50.5 19.5
h-12v30h260v-30h-11z" />
    <glyph glyph-name="icircumflex.sc" horiz-adv-x="345" 
d="M43 611l111 129h37l111 -129h-40l-89 64l-90 -64h-40zM291 504q-37 -2 -51.5 -19.5t-14.5 -65.5v-305q0 -48 15 -65.5t51 -18.5h11v-30h-260v30h12q36 1 50.5 18.5t14.5 65.5v305q0 48 -14.5 65.5t-50.5 19.5h-12v30h260v-30h-11z" />
    <glyph glyph-name="idieresis.sc" horiz-adv-x="345" 
d="M74 603q-25 0 -42 17t-17 42t17 42t42 17q26 0 43 -17t17 -42t-17 -42t-43 -17zM270 603q-26 0 -43 17t-17 42t17 42t43 17q25 0 42 -17t17 -42t-17 -42t-42 -17zM291 504q-37 -2 -51.5 -19.5t-14.5 -65.5v-305q0 -48 15 -65.5t51 -18.5h11v-30h-260v30h12
q36 1 50.5 18.5t14.5 65.5v305q0 48 -14.5 65.5t-50.5 19.5h-12v30h260v-30h-11z" />
    <glyph glyph-name="i.sc.loclTRK" horiz-adv-x="345" 
d="M173 596q-29 0 -50.5 21t-21.5 50q0 30 21.5 51t50.5 21t50 -21t21 -51q0 -29 -21 -50t-50 -21zM291 504q-37 -2 -51.5 -19.5t-14.5 -65.5v-305q0 -48 15 -65.5t51 -18.5h11v-30h-260v30h12q36 1 50.5 18.5t14.5 65.5v305q0 48 -14.5 65.5t-50.5 19.5h-12v30h260v-30h-11
z" />
    <glyph glyph-name="igrave.sc" horiz-adv-x="345" 
d="M154 611l-149 108v21h101l84 -129h-36zM291 504q-37 -2 -51.5 -19.5t-14.5 -65.5v-305q0 -48 15 -65.5t51 -18.5h11v-30h-260v30h12q36 1 50.5 18.5t14.5 65.5v305q0 48 -14.5 65.5t-50.5 19.5h-12v30h260v-30h-11z" />
    <glyph glyph-name="imacron.sc" horiz-adv-x="345" 
d="M39 633h266v42h-266v-42zM291 504q-37 -2 -51.5 -19.5t-14.5 -65.5v-305q0 -48 15 -65.5t51 -18.5h11v-30h-260v30h12q36 1 50.5 18.5t14.5 65.5v305q0 48 -14.5 65.5t-50.5 19.5h-12v30h260v-30h-11z" />
    <glyph glyph-name="iogonek.sc" horiz-adv-x="345" 
d="M291 504q-37 -2 -51.5 -19.5t-14.5 -65.5v-305q0 -48 15 -65.5t51 -18.5h11v-30h-81q-45 -14 -70.5 -46t-25.5 -67q0 -27 14.5 -43t41.5 -16q42 0 58 41l21 -10q-10 -44 -38.5 -70t-66.5 -26q-44 0 -70 27t-26 77q0 38 21.5 73.5t58.5 59.5h-97v30h12q36 1 50.5 18.5
t14.5 65.5v305q0 48 -14.5 65.5t-50.5 19.5h-12v30h260v-30h-11z" />
    <glyph glyph-name="itilde.sc" horiz-adv-x="345" 
d="M219 610q-28 0 -61 18.5t-54 18.5q-37 0 -58 -35h-19q3 50 31.5 72.5t66.5 22.5q28 0 61 -18.5t54 -18.5q38 0 58 35h20q-3 -50 -32 -72.5t-67 -22.5zM291 504q-37 -2 -51.5 -19.5t-14.5 -65.5v-305q0 -48 15 -65.5t51 -18.5h11v-30h-260v30h12q36 1 50.5 18.5t14.5 65.5
v305q0 48 -14.5 65.5t-50.5 19.5h-12v30h260v-30h-11z" />
    <glyph glyph-name="jcircumflex.sc" horiz-adv-x="320" 
d="M44 611l111 129h37l111 -129h-40l-89 64l-90 -64h-40zM304 534v-32h-15q-33 0 -47.5 -17t-14.5 -66v-391q0 -77 -40 -117.5t-110 -40.5q-62 0 -113 46l23 27q31 -26 63 -26q35 0 52.5 22t17.5 60v420q0 48 -15 66t-52 18h-11v31h262z" />
    <glyph glyph-name="uni0137.sc" horiz-adv-x="650" 
d="M287 501q-33 0 -47.5 -17t-14.5 -66v-304q0 -46 14.5 -64.5t52.5 -20.5l10 -1v-28h-260v28l10 1q37 2 52 19.5t15 65.5v305q0 48 -14.5 66t-52.5 18h-10v31h260v-33h-15zM456 0l-218 268l177 164q33 32 33 51q0 22 -29 22h-23v29h208v-29q-39 -2 -67.5 -17t-62.5 -48
l-135 -131l189 -227q43 -52 105 -54v-28h-177zM285 -231l-2 19q58 9 58 40q0 11 -7 16.5t-24 12.5q-34 13 -34 49q0 21 14.5 34.5t37.5 13.5q26 0 43.5 -21t17.5 -53q0 -44 -29 -75t-75 -36z" />
    <glyph glyph-name="lacute.sc" horiz-adv-x="540" 
d="M189 611h-35l84 129h101v-21zM479 194h30l-19 -194h-448v28l10 1q37 2 52 19.5t15 65.5v305q0 48 -14.5 66t-52.5 18h-10v31h267v-32h-16q-68 0 -68 -78v-351q0 -42 44 -42h50q61 0 94.5 32t58.5 112z" />
    <glyph glyph-name="lcaron.sc" horiz-adv-x="540" 
d="M154 611l-111 129h40l90 -65l89 65h40l-111 -129h-37zM479 194h30l-19 -194h-448v28l10 1q37 2 52 19.5t15 65.5v305q0 48 -14.5 66t-52.5 18h-10v31h267v-32h-16q-68 0 -68 -78v-351q0 -42 44 -42h50q61 0 94.5 32t58.5 112z" />
    <glyph glyph-name="uni013C.sc" horiz-adv-x="540" 
d="M479 194h30l-19 -194h-448v28l10 1q37 2 52 19.5t15 65.5v305q0 48 -14.5 66t-52.5 18h-10v31h267v-32h-16q-68 0 -68 -78v-351q0 -42 44 -42h50q61 0 94.5 32t58.5 112zM229 -231l-2 19q58 9 58 40q0 11 -7 16.5t-24 12.5q-34 13 -34 49q0 21 14.5 34.5t37.5 13.5
q26 0 43.5 -21t17.5 -53q0 -44 -29 -75t-75 -36z" />
    <glyph glyph-name="ldot.sc" horiz-adv-x="540" 
d="M479 194h30l-19 -194h-448v28l10 1q37 2 52 19.5t15 65.5v305q0 48 -14.5 66t-52.5 18h-10v31h267v-32h-16q-68 0 -68 -78v-351q0 -42 44 -42h50q61 0 94.5 32t58.5 112zM361 215q-29 0 -49.5 20t-20.5 49t20.5 49t49.5 20t49 -20.5t20 -48.5q0 -29 -20 -49t-49 -20z" />
    <glyph glyph-name="lslash.sc" horiz-adv-x="540" 
d="M479 194h30l-19 -194h-448v28l10 1q37 2 52 19.5t15 65.5v76l-70 -44v41l70 45v187q0 48 -14.5 66t-52.5 18h-10v31h267v-32h-16q-68 0 -68 -78v-125l162 103v-42l-162 -103v-184q0 -42 44 -42h50q61 0 94.5 32t58.5 112z" />
    <glyph glyph-name="nacute.sc" horiz-adv-x="661" 
d="M497 719l-150 -108h-35l84 129h101v-21zM439 534h201v-32l-23 -1q-30 -2 -42.5 -19.5t-12.5 -62.5v-424h-40l-361 429v-311q0 -45 12.5 -62t49.5 -21l20 -2v-28h-201v28l12 1q38 4 51.5 21.5t13.5 63.5v359q-26 26 -53 29l-22 2v29h172l300 -363h4v255q0 42 -12 58
t-48 20l-21 2v29z" />
    <glyph glyph-name="ncaron.sc" horiz-adv-x="661" 
d="M349 611h-37l-111 129h40l90 -65l89 65h40zM439 534h201v-32l-23 -1q-30 -2 -42.5 -19.5t-12.5 -62.5v-424h-40l-361 429v-311q0 -45 12.5 -62t49.5 -21l20 -2v-28h-201v28l12 1q38 4 51.5 21.5t13.5 63.5v359q-26 26 -53 29l-22 2v29h172l300 -363h4v255q0 42 -12 58
t-48 20l-21 2v29z" />
    <glyph glyph-name="uni0146.sc" horiz-adv-x="661" 
d="M439 534h201v-32l-23 -1q-30 -2 -42.5 -19.5t-12.5 -62.5v-424h-40l-361 429v-311q0 -45 12.5 -62t49.5 -21l20 -2v-28h-201v28l12 1q38 4 51.5 21.5t13.5 63.5v359q-26 26 -53 29l-22 2v29h172l300 -363h4v255q0 42 -12 58t-48 20l-21 2v29zM332 -46q26 0 43.5 -21
t17.5 -53q0 -44 -29 -75t-75 -36l-2 19q58 9 58 40q0 11 -7 16.5t-24 12.5q-34 13 -34 49q0 21 14.5 34.5t37.5 13.5z" />
    <glyph glyph-name="eng.sc" horiz-adv-x="661" 
d="M429 -236q-60 0 -102 37l16 28q29 -20 63 -20q23 0 37 15.5t14 45.5v202l-296 353v-311q0 -44 13 -62t50 -21l19 -2v-29h-201v29l10 1q38 3 52.5 20.5t14.5 65.5v356q-25 26 -53 30l-22 2v29h172l300 -363h4v254q0 42 -12.5 58.5t-49.5 19.5l-19 1v31h201v-33h-16
q-34 0 -48 -17.5t-14 -65.5v-490q0 -88 -39.5 -126t-93.5 -38z" />
    <glyph glyph-name="ntilde.sc" horiz-adv-x="661" 
d="M262 647q-37 0 -58 -35h-19q3 50 31.5 72.5t66.5 22.5q28 0 61 -18.5t54 -18.5q38 0 58 35h20q-3 -50 -32 -72.5t-67 -22.5q-28 0 -61 18.5t-54 18.5zM439 534h201v-32l-23 -1q-30 -2 -42.5 -19.5t-12.5 -62.5v-424h-40l-361 429v-311q0 -45 12.5 -62t49.5 -21l20 -2v-28
h-201v28l12 1q38 4 51.5 21.5t13.5 63.5v359q-26 26 -53 29l-22 2v29h172l300 -363h4v255q0 42 -12 58t-48 20l-21 2v29z" />
    <glyph glyph-name="oacute.sc" horiz-adv-x="692" 
d="M363 611h-35l84 129h101v-21zM346 -13q-131 0 -215 77.5t-84 202.5q0 124 84 201.5t215 77.5t215 -77.5t84 -201.5q0 -125 -84 -202.5t-215 -77.5zM346 29q84 0 130.5 63t46.5 175q0 111 -46.5 174t-130.5 63t-130.5 -63t-46.5 -174q0 -112 46.5 -175t130.5 -63z" />
    <glyph glyph-name="obreve.sc" horiz-adv-x="692" 
d="M433 740h32q0 -67 -33.5 -101.5t-86.5 -34.5t-86 34.5t-33 101.5h31q2 -39 26.5 -60t61.5 -21t61.5 20.5t26.5 60.5zM346 -13q-131 0 -215 77.5t-84 202.5q0 124 84 201.5t215 77.5t215 -77.5t84 -201.5q0 -125 -84 -202.5t-215 -77.5zM346 29q84 0 130.5 63t46.5 175
q0 111 -46.5 174t-130.5 63t-130.5 -63t-46.5 -174q0 -112 46.5 -175t130.5 -63z" />
    <glyph glyph-name="ocircumflex.sc" horiz-adv-x="692" 
d="M216 611l111 129h37l111 -129h-40l-89 64l-90 -64h-40zM346 -13q-131 0 -215 77.5t-84 202.5q0 124 84 201.5t215 77.5t215 -77.5t84 -201.5q0 -125 -84 -202.5t-215 -77.5zM346 29q84 0 130.5 63t46.5 175q0 111 -46.5 174t-130.5 63t-130.5 -63t-46.5 -174
q0 -112 46.5 -175t130.5 -63z" />
    <glyph glyph-name="odieresis.sc" horiz-adv-x="692" 
d="M248 603q-25 0 -42 17t-17 42t17 42t42 17q26 0 43 -17t17 -42t-17 -42t-43 -17zM444 603q-26 0 -43 17t-17 42t17 42t43 17q25 0 42 -17t17 -42t-17 -42t-42 -17zM346 -13q-131 0 -215 77.5t-84 202.5q0 124 84 201.5t215 77.5t215 -77.5t84 -201.5q0 -125 -84 -202.5
t-215 -77.5zM346 29q84 0 130.5 63t46.5 175q0 111 -46.5 174t-130.5 63t-130.5 -63t-46.5 -174q0 -112 46.5 -175t130.5 -63z" />
    <glyph glyph-name="ograve.sc" horiz-adv-x="692" 
d="M328 611l-149 108v21h101l84 -129h-36zM346 -13q-131 0 -215 77.5t-84 202.5q0 124 84 201.5t215 77.5t215 -77.5t84 -201.5q0 -125 -84 -202.5t-215 -77.5zM346 29q84 0 130.5 63t46.5 175q0 111 -46.5 174t-130.5 63t-130.5 -63t-46.5 -174q0 -112 46.5 -175t130.5 -63
z" />
    <glyph glyph-name="ohungarumlaut.sc" horiz-adv-x="692" 
d="M268 611l79 129h86v-21l-131 -108h-34zM415 611l78 129h87v-21l-131 -108h-34zM346 -13q-131 0 -215 77.5t-84 202.5q0 124 84 201.5t215 77.5t215 -77.5t84 -201.5q0 -125 -84 -202.5t-215 -77.5zM346 29q84 0 130.5 63t46.5 175q0 111 -46.5 174t-130.5 63t-130.5 -63
t-46.5 -174q0 -112 46.5 -175t130.5 -63z" />
    <glyph glyph-name="omacron.sc" horiz-adv-x="692" 
d="M213 633h266v42h-266v-42zM346 -13q-131 0 -215 77.5t-84 202.5q0 124 84 201.5t215 77.5t215 -77.5t84 -201.5q0 -125 -84 -202.5t-215 -77.5zM346 29q84 0 130.5 63t46.5 175q0 111 -46.5 174t-130.5 63t-130.5 -63t-46.5 -174q0 -112 46.5 -175t130.5 -63z" />
    <glyph glyph-name="oslash.sc" horiz-adv-x="692" 
d="M535 489q110 -79 110 -222q0 -125 -84 -202.5t-215 -77.5q-75 0 -139 28l-36 -52h-47l48 70q-59 37 -92 97t-33 137q0 124 84 201.5t215 77.5q87 0 156 -36l29 41h47zM169 267q0 -110 45 -174l251 362q-46 49 -119 49q-84 0 -130.5 -63t-46.5 -174zM346 29q84 0 130.5 63
t46.5 175q0 95 -34 155l-248 -358q43 -35 105 -35z" />
    <glyph glyph-name="oslashacute.sc" horiz-adv-x="692" 
d="M513 719l-150 -108h-35l84 129h101v-21zM535 489q110 -79 110 -222q0 -125 -84 -202.5t-215 -77.5q-75 0 -139 28l-36 -52h-47l48 70q-59 37 -92 97t-33 137q0 124 84 201.5t215 77.5q87 0 156 -36l29 41h47zM169 267q0 -110 45 -174l251 362q-46 49 -119 49
q-84 0 -130.5 -63t-46.5 -174zM346 29q84 0 130.5 63t46.5 175q0 95 -34 155l-248 -358q43 -35 105 -35z" />
    <glyph glyph-name="otilde.sc" horiz-adv-x="692" 
d="M393 610q-28 0 -61 18.5t-54 18.5q-37 0 -58 -35h-19q3 50 31.5 72.5t66.5 22.5q28 0 61 -18.5t54 -18.5q38 0 58 35h20q-3 -50 -32 -72.5t-67 -22.5zM346 -13q-131 0 -215 77.5t-84 202.5q0 124 84 201.5t215 77.5t215 -77.5t84 -201.5q0 -125 -84 -202.5t-215 -77.5z
M346 29q84 0 130.5 63t46.5 175q0 111 -46.5 174t-130.5 63t-130.5 -63t-46.5 -174q0 -112 46.5 -175t130.5 -63z" />
    <glyph glyph-name="oe.sc" horiz-adv-x="813" 
d="M737 173h32l-25 -173h-399q-137 0 -217.5 76t-80.5 191t80.5 191t217.5 76h389l20 -156h-34l-7 26q-15 51 -45.5 73.5t-93.5 22.5h-77v-203h36q40 0 59 16.5t26 54.5l4 19h27v-216h-27l-4 21q-7 38 -25.5 54.5t-59.5 16.5h-36v-186q0 -42 43 -42h29q72 0 104 22.5
t53 85.5zM360 39h31v456h-31q-94 0 -145 -65.5t-51 -162.5t51 -162.5t145 -65.5z" />
    <glyph glyph-name="thorn.sc" horiz-adv-x="506" 
d="M276 127h-51v-13q0 -48 15 -65.5t51 -18.5h11v-30h-260v30h12q36 1 50.5 18.5t14.5 65.5v305q0 48 -14.5 65.5t-50.5 19.5h-12v30h260v-30h-11q-35 -2 -50 -17.5t-16 -58.5h55q86 0 143 -35.5t57 -111.5q0 -75 -57 -114.5t-147 -39.5zM370 282q0 112 -113 112h-32v-233
h28q56 0 86.5 31.5t30.5 89.5z" />
    <glyph glyph-name="racute.sc" horiz-adv-x="618" 
d="M461 719l-150 -108h-35l84 129h101v-21zM517 88q30 -54 85 -60v-28h-157q-15 16 -41 72l-37 85q-22 50 -45 74.5t-64 24.5h-33v-142q0 -46 14.5 -64.5t52.5 -20.5l10 -1v-28h-260v28l10 1q37 2 52 19.5t15 65.5v305q0 48 -14.5 66t-52.5 18h-10v31h271q89 0 141 -32
t52 -97q0 -61 -45.5 -95t-116.5 -36l-36 -1v-7h33q50 -1 78 -20t57 -76zM225 287h50q119 0 119 114q0 98 -111 98h-58v-212z" />
    <glyph glyph-name="rcaron.sc" horiz-adv-x="618" 
d="M312 611h-37l-111 129h40l90 -65l89 65h40zM517 88q30 -54 85 -60v-28h-157q-15 16 -41 72l-37 85q-22 50 -45 74.5t-64 24.5h-33v-142q0 -46 14.5 -64.5t52.5 -20.5l10 -1v-28h-260v28l10 1q37 2 52 19.5t15 65.5v305q0 48 -14.5 66t-52.5 18h-10v31h271q89 0 141 -32
t52 -97q0 -61 -45.5 -95t-116.5 -36l-36 -1v-7h33q50 -1 78 -20t57 -76zM225 287h50q119 0 119 114q0 98 -111 98h-58v-212z" />
    <glyph glyph-name="uni0157.sc" horiz-adv-x="618" 
d="M517 88q30 -54 85 -60v-28h-157q-15 16 -41 72l-37 85q-22 50 -45 74.5t-64 24.5h-33v-142q0 -46 14.5 -64.5t52.5 -20.5l10 -1v-28h-260v28l10 1q37 2 52 19.5t15 65.5v305q0 48 -14.5 66t-52.5 18h-10v31h271q89 0 141 -32t52 -97q0 -61 -45.5 -95t-116.5 -36l-36 -1
v-7h33q50 -1 78 -20t57 -76zM225 287h50q119 0 119 114q0 98 -111 98h-58v-212zM335 -46q26 0 43.5 -21t17.5 -53q0 -44 -29 -75t-75 -36l-2 19q58 9 58 40q0 11 -7 16.5t-24 12.5q-34 13 -34 49q0 21 14.5 34.5t37.5 13.5z" />
    <glyph glyph-name="sacute.sc" horiz-adv-x="480" 
d="M259 611h-35l84 129h101v-21zM231 -13q-106 0 -186 48v146h36q29 -152 166 -152q103 0 103 79q0 31 -16 49.5t-58 37.5l-113 50q-114 50 -114 145q0 71 56 113.5t150 42.5q91 0 163 -33v-134h-33q-33 127 -150 127q-46 0 -72 -19t-26 -53q0 -52 76 -85l113 -48
q114 -46 114 -144q0 -76 -57.5 -123t-151.5 -47z" />
    <glyph glyph-name="scaron.sc" horiz-adv-x="480" 
d="M224 611l-111 129h40l90 -65l89 65h40l-111 -129h-37zM231 -13q-106 0 -186 48v146h36q29 -152 166 -152q103 0 103 79q0 31 -16 49.5t-58 37.5l-113 50q-114 50 -114 145q0 71 56 113.5t150 42.5q91 0 163 -33v-134h-33q-33 127 -150 127q-46 0 -72 -19t-26 -53
q0 -52 76 -85l113 -48q114 -46 114 -144q0 -76 -57.5 -123t-151.5 -47z" />
    <glyph glyph-name="scedilla.sc" horiz-adv-x="480" 
d="M440 157q0 -69 -46.5 -114t-125.5 -54l-37 -62q12 9 35 9q34 0 56.5 -22.5t22.5 -59.5q0 -39 -26.5 -65t-68.5 -26q-34 0 -58 17.5t-32 47.5l17 6q16 -35 54 -35q24 0 40 15.5t16 41.5q0 23 -11.5 37.5t-33.5 14.5q-20 0 -39 -17l-14 9l49 87h-7q-106 0 -186 48v146h36
q29 -152 166 -152q103 0 103 79q0 31 -16 49.5t-58 37.5l-113 50q-114 50 -114 145q0 71 56 113.5t150 42.5q91 0 163 -33v-134h-33q-33 127 -150 127q-46 0 -72 -19t-26 -53q0 -52 76 -85l113 -48q114 -46 114 -144z" />
    </font>
</defs>
</svg>
